<svg width="50" height="47" viewBox="0 0 50 47" fill="none" xmlns="http://www.w3.org/2000/svg">
<path d="M23.2065 1.63397C23.9402 0.147483 26.0598 0.147481 26.7935 1.63397L32.7637 13.7309C33.055 14.3212 33.6181 14.7303 34.2695 14.825L47.6193 16.7648C49.2597 17.0032 49.9147 19.0191 48.7277 20.1762L39.0677 29.5923C38.5964 30.0518 38.3813 30.7138 38.4925 31.3626L40.7729 44.6584C41.0532 46.2922 39.3383 47.5381 37.871 46.7667L25.9307 40.4893C25.348 40.183 24.652 40.183 24.0693 40.4893L12.129 46.7667C10.6617 47.5381 8.94684 46.2922 9.22706 44.6584L11.5075 31.3626C11.6187 30.7138 11.4036 30.0518 10.9323 29.5923L1.27232 20.1762C0.085284 19.0191 0.740303 17.0032 2.38074 16.7648L15.7305 14.825C16.3819 14.7303 16.945 14.3212 17.2363 13.7309L23.2065 1.63397Z" fill="white"/>
</svg>
