<svg width="66" height="70" viewBox="0 0 66 70" fill="none" xmlns="http://www.w3.org/2000/svg">
<g opacity="0.7">
<path d="M62.0207 10.3353C62.0207 10.3353 56.6362 7.10924 48.1497 3.96434C47.9815 3.90528 47.8059 3.84622 47.6376 3.78717C47.5791 3.76502 47.5279 3.74287 47.4767 3.72072C43.7163 2.35498 39.3926 1.02615 34.6811 0C18.8276 3.45496 7.3489 10.3353 7.3489 10.3353C6.62463 17.0164 7.54643 28.939 7.54643 28.939L12.9456 28.4813C12.9456 28.4813 11.914 18.9137 12.5432 13.5467C12.5432 13.5467 21.6076 8.60048 34.6885 5.64015C47.7693 8.60048 56.8337 13.5467 56.8337 13.5467C57.2946 17.4963 56.863 23.7196 56.5996 26.7316L58.5237 25.5726L62.0426 25.5578C62.2548 21.527 62.4962 14.7722 62.0207 10.3353Z" fill="white"/>
<path d="M34.8516 63.9889C44.5064 59.7351 49.9336 49.8047 49.9336 49.8047H61.2853C61.2853 49.8047 57.4307 51.2855 54.8195 51.9243C54.8195 51.9243 48.6024 64.1994 34.8516 69.6582C21.1009 64.1994 14.8838 51.9243 14.8838 51.9243C12.2726 51.2855 8.41797 49.8047 8.41797 49.8047H19.777C19.777 49.8047 25.1968 59.7351 34.8516 63.9889Z" fill="white"/>
<path d="M21.9996 30.0563C21.9996 30.0563 10.2846 29.9912 5.45038 30.9673C5.45038 30.9673 3.57979 32.9629 2.58948 35.3489C2.58948 35.3489 0.447474 35.7827 0 36.6793H64.8618C64.8618 36.6793 63.2479 35.1175 61.3553 33.7582C61.3553 33.7582 62.1843 31.6108 63.2186 30.8661C64.2529 30.1214 64.3629 30.143 65.2285 29.89C65.2285 29.89 66.0355 28.7548 65.9988 27.9089C65.9694 27.2075 63.2479 27.3449 62.2723 27.3521C61.2966 27.3593 59.118 27.381 59.118 27.381C59.118 27.381 56.6752 28.95 55.7362 30.0274C55.7362 30.0274 51.3128 26.564 44.1092 24.4527C36.9056 22.3415 29.4013 22.9705 29.4013 22.9705C29.4013 22.9705 25.7921 25.5807 21.9996 30.0563Z" fill="white"/>
<path d="M23.2356 29.8546C23.3129 29.9965 24.0786 30.1906 25.3006 30.2802C25.8188 30.2802 26.3602 30.3325 26.8861 30.0786C27.6827 29.6829 28.6804 28.436 29.655 27.3533C30.6217 26.2782 31.573 25.3672 31.6194 25.1283C31.7122 24.643 31.6426 24.083 31.0007 23.7769C30.351 23.4707 29.8019 23.5081 29.4307 23.7246C29.1445 23.8889 25.5945 27.204 24.009 28.8691C23.5218 29.3768 23.2124 29.8024 23.2356 29.8546Z" fill="white"/>
<path d="M30.3057 28.4542C30.3057 28.4542 32.9583 24.9382 34.1982 24.7309C35.438 24.5237 36.7355 24.3307 40.4478 25.3026C44.1601 26.2745 48.4635 27.9753 49.4582 29.2903C50.453 30.6052 49.3285 30.6195 47.894 30.6195C46.4596 30.6195 40.4478 30.5194 37.5068 30.4051C34.5658 30.2908 32.7205 30.3622 32.2303 30.2479C32.2303 30.2479 33.0809 30.0549 33.571 29.5618C33.9387 29.1831 34.1693 28.2398 33.1169 28.154C32.0573 28.0754 31.6104 28.1612 30.3057 28.4542Z" fill="white"/>
<path d="M22.9964 38.6992H19.3124C19.3124 38.6992 16.8369 38.9231 16.8369 41.7691C16.8369 44.615 19.8366 44.7306 20.5938 44.7306C21.351 44.7306 21.3437 45.3445 21.3437 45.554C21.3437 45.7635 21.1398 46.3052 20.5865 46.3052C20.0332 46.3052 18.7809 46.3269 18.7809 46.3269C18.7809 46.3269 17.1136 46.7747 17.1136 48.4577H21.1034C21.1034 48.4577 23.5716 47.9232 23.5716 45.3662C23.5716 43.0187 21.249 42.513 20.8923 42.513C20.5355 42.513 19.6036 42.4697 19.6036 42.4697C19.6036 42.4697 19.1012 42.2675 19.1012 41.7185C19.1012 41.1695 19.2177 40.8228 20.419 40.8228C22.3557 40.8228 22.9964 39.9488 22.9964 38.6992Z" fill="white"/>
<path d="M30.6426 40.4024C30.6426 40.9582 30.6426 48.3987 30.6426 48.3987C30.6426 48.3987 32.8672 48.3023 32.8672 45.4417H33.9471C33.9471 45.4417 34.8326 47.0425 35.6533 47.8429C35.8621 48.0429 36.0997 48.2134 36.2797 48.2875C37.05 48.621 37.5036 48.4209 38.0507 47.9985L36.1285 45.0342C36.1285 45.0342 37.8852 44.2486 37.842 41.3806C37.806 38.5126 35.1422 38.0235 34.0839 38.0235C33.0256 38.0235 32.0465 38.0013 31.3697 38.7424C30.7866 39.2908 30.6426 39.8466 30.6426 40.4024Z" fill="white"/>
<path d="M33 40.3944V43.0744H34.7061C34.7061 43.0744 35.6939 43.0106 35.6939 41.8053C35.6939 40.6 35.0204 40.5078 34.7286 40.4298C34.4367 40.3519 33 40.3944 33 40.3944Z" fill="white"/>
<path d="M45.459 43.3571V46.5594C45.459 46.5594 45.5231 47.241 46.0145 47.7593C46.4348 48.2138 46.8621 48.3558 47.1897 48.3984C47.4818 48.4339 48.714 48.512 50.0459 48.3984C51.0715 48.3061 51.5202 46.9073 51.5202 46.3747L48.1655 46.3819C48.1655 46.3819 47.6313 46.2824 47.6171 45.5795C47.6028 44.8766 47.6171 41.2909 47.6171 41.2909C47.6171 41.2909 47.7595 40.7086 48.3436 40.7086C48.9276 40.7086 49.6328 40.7015 49.6328 40.7015C49.6328 40.7015 49.6328 40.9713 50.1313 40.9571C50.7082 40.9429 51.4276 40.0838 51.4276 39.7572C51.4276 39.4306 51.4347 38.6992 51.4347 38.6992H47.3322C47.3322 38.6992 46.4775 38.6992 46.0217 39.2388C45.5658 39.7785 45.459 40.4175 45.459 41.3548C45.459 42.2991 45.459 43.3571 45.459 43.3571Z" fill="white"/>
<path d="M16.1631 28.2675C16.1631 28.2675 18.5656 21.4294 29.7233 16.158C35.1253 13.3466 43.6446 11.0038 45.5534 10.7695C45.5534 10.7695 54.6328 14.4888 55.0676 14.8036C55.0676 14.8036 55.2445 18.3471 55.2224 19.5478C55.2224 19.5478 51.9503 20.6167 48.5676 23.9113C48.5676 23.9113 44.1752 22.0151 39.5029 21.4221C34.8231 20.8364 31.0719 20.8144 28.6105 21.0706C28.6105 21.0706 23.9086 24.541 21.4693 27.9234C21.4693 27.9234 19.0594 27.9454 16.1631 28.2675Z" fill="white"/>
<path d="M34.8522 49.8008H47.4797C47.4797 49.8008 42.8693 57.8718 34.8522 61.9148C26.8277 57.8718 22.2246 49.8008 22.2246 49.8008H34.8522Z" fill="white"/>
<path opacity="0.1" d="M23.2343 55.2237C22.7171 54.854 22.331 54.2922 21.9741 53.7874C21.6099 53.2754 21.2238 52.7421 20.9543 52.1732C20.896 52.0452 20.8377 51.9172 20.7722 51.7892C20.6192 51.6683 20.4881 51.519 20.3934 51.3483C20.3206 51.2274 20.2623 51.0923 20.2113 50.9572C19.9272 50.6159 19.6358 50.2604 19.461 49.855C19.3226 49.8693 19.1842 49.8764 19.0458 49.8977C18.9802 49.9048 18.9074 49.9119 18.8418 49.9262C18.8637 49.9262 18.7326 49.9404 18.6889 49.9475C18.2882 50.0044 17.9167 50.0257 17.5234 49.9119C17.4505 49.9404 17.3704 49.9546 17.2903 49.9617C17.1737 49.9759 17.0572 49.9546 16.9406 49.9404C16.7949 49.9262 16.6493 49.9048 16.4963 49.8977C16.4526 49.8977 16.4162 49.8977 16.3725 49.8977C16.3652 49.8977 16.3506 49.8977 16.3433 49.8977C16.3287 49.9048 16.2705 49.9262 16.2486 49.9262C16.2341 49.9333 16.2122 49.9475 16.1976 49.9546C16.0592 50.047 15.8844 50.0115 15.7679 49.919C15.7096 49.9119 15.6513 49.8835 15.6003 49.8479C15.054 49.8479 14.5077 49.8053 13.9613 49.8266C13.4733 49.8408 13.0071 49.9973 12.519 49.9973C11.9582 50.0044 11.4264 49.8124 10.8655 49.8053C10.0569 49.7982 9.22653 49.855 8.42525 50.0186C8.42525 50.0399 8.41797 50.0613 8.41797 50.0826C8.82589 50.1679 9.18282 50.3884 9.58346 50.5519C9.80199 50.6444 10.0278 50.7297 10.2536 50.815C10.698 50.8932 11.135 50.9643 11.5429 51.199C11.7542 51.3128 11.9217 51.4337 12.1548 51.455C12.4899 51.4905 12.825 51.4834 13.1528 51.5688C13.6627 51.6968 14.3183 51.8674 14.6898 52.2372C14.9666 52.5074 15.0977 52.8914 15.1705 53.2754C15.2944 53.4389 15.4182 53.6025 15.5566 53.7518C16.0082 54.2282 16.4089 54.7047 16.7002 55.2949C16.8241 55.558 16.9333 55.8068 17.0426 56.0628C17.1082 56.141 17.1737 56.2122 17.2539 56.2833C17.5744 56.5677 17.9022 56.8521 18.1353 57.2077C19.8398 56.7597 21.5443 56.0913 23.2343 55.2237Z" fill="white"/>
<path opacity="0.1" d="M48.797 8.61044C48.7455 7.08104 48.6425 5.56628 48.5028 4.07347C48.3337 4.01493 48.1572 3.95639 47.9881 3.89785C47.7013 3.7954 47.4439 3.6271 47.1865 3.45879C45.782 3.10754 44.4142 2.58798 43.0391 2.11965C42.3111 1.92208 41.5684 1.73913 40.833 1.60741C39.6196 1.38788 38.5019 0.912235 37.2885 0.64148C36.6267 0.495127 35.9869 0.165831 35.3251 0.0707009C35.0898 -0.0171113 34.8471 -0.024429 34.5971 0.0560655C34.5383 0.0780186 34.4868 0.092654 34.4427 0.0999716C34.2221 0.319502 33.9206 0.443903 33.6117 0.443903C32.7513 0.443903 31.6556 0.839058 30.8394 1.08786C30.7217 1.12445 30.6041 1.13908 30.5011 1.13908C29.2804 1.54156 28.0597 1.96598 26.8243 2.33918C25.4051 2.77093 24.0961 3.48074 22.6401 3.78077C22.2136 3.86858 21.8018 3.93444 21.4047 4.0003C21.0296 4.17592 20.6399 4.32228 20.2722 4.45399C20.0001 4.54912 19.7207 4.63694 19.4412 4.72475C19.1618 4.84915 18.8677 4.95891 18.5662 5.05404C18.1102 5.27357 17.6249 5.41261 17.1175 5.58824C17.0072 5.63946 16.8895 5.69068 16.7645 5.73459C16.7351 5.74191 16.713 5.74191 16.691 5.74922C15.3747 6.47367 14.0363 7.12495 12.5877 7.63719C11.5287 8.33237 10.2492 8.90315 9.15351 9.40075C8.59463 9.65687 8.06517 9.94226 7.54306 10.2423C7.4254 10.7618 7.28568 11.2521 7.19744 11.7644C7.21215 11.7936 7.2195 11.8302 7.23421 11.8595C7.30774 12.1156 7.3151 12.3644 7.28568 12.6278C7.26362 12.7815 7.2195 12.9279 7.16067 13.0742C7.21215 13.7255 7.3298 14.3695 7.33716 15.0134C7.34451 15.4012 7.27098 15.7379 7.18273 16.0745C7.21215 16.4477 7.19744 16.8282 7.18273 17.2453C7.16067 17.7575 7.11655 18.2698 7.07978 18.782C7.06507 18.9576 7.07243 19.126 7.07978 19.2796C7.11655 19.404 7.15332 19.5357 7.19009 19.6601C7.25627 19.887 7.25627 20.0846 7.20479 20.2675C7.26362 20.5675 7.32245 20.8749 7.35922 21.2188C7.47688 22.3677 7.40334 23.5605 7.35922 24.7532C7.47688 24.8557 7.56512 24.9874 7.60924 25.1338C7.69013 25.4045 7.66807 25.6972 7.60189 25.968C7.57247 26.107 7.52835 26.2387 7.49894 26.3778C7.48423 26.5973 7.49158 26.8168 7.49894 27.0437C7.52835 27.3291 7.52835 27.6071 7.55777 27.8925C7.56512 27.9218 7.57983 28.0243 7.57983 28.0462C7.59454 28.1267 7.60189 28.2072 7.6166 28.2877C7.64601 28.4926 7.67543 28.6975 7.67543 28.9097C7.67543 28.917 7.67543 28.9243 7.67543 28.939C7.71219 28.939 7.75632 28.939 7.79308 28.939C7.89603 28.9316 7.99163 28.9243 8.09458 28.9097C8.124 28.9024 8.24901 28.8877 8.24166 28.8877C8.66081 28.8146 9.07262 28.7268 9.49913 28.7048C9.73444 28.6902 9.98447 28.7048 10.2345 28.7268C10.3669 28.5804 10.5507 28.4853 10.7345 28.5072C10.9919 28.5292 11.2419 28.5658 11.4993 28.595C11.5876 28.595 11.6685 28.595 11.7567 28.6024C11.8008 28.5877 11.8449 28.5731 11.8817 28.5511C12.0435 28.4633 12.2273 28.4487 12.3965 28.4926C12.5288 28.4853 12.6465 28.5072 12.7641 28.5292C12.845 28.4999 12.9259 28.4633 13.0068 28.434C13.0142 28.4048 13.0142 28.3755 13.0215 28.3462C13.0215 28.3316 13.0289 28.3243 13.0289 28.317C13.0289 28.3096 13.0362 28.3096 13.0362 28.3023C13.0509 28.2584 13.073 28.2145 13.0877 28.1706C13.0583 27.973 13.0509 27.7828 13.073 27.5852C13.0656 27.5486 13.0509 27.512 13.0436 27.4681C13.0289 27.373 13.0142 27.2852 13.0068 27.19C13.0068 27.1608 13.0068 27.1315 13.0068 27.1022C13.0068 27.0876 13.0068 27.073 13.0068 27.0583C13.0142 26.9851 13.0215 26.9046 13.0362 26.8315C13.0362 26.8242 13.0436 26.8095 13.0436 26.8022C13.0362 26.7729 13.0362 26.7363 13.0289 26.7071C12.8892 26.0119 12.7862 25.3753 12.8083 24.6581C12.8156 24.541 12.8156 24.424 12.823 24.3069C12.6685 24.1166 12.595 23.8532 12.6685 23.619V23.6117C12.6685 23.5971 12.6685 23.5751 12.6685 23.5605C12.6318 23.3775 12.5877 23.1946 12.573 23.0043C12.5582 22.836 12.5656 22.6604 12.5803 22.4921C12.6024 22.2945 12.6318 22.1042 12.6685 21.914C12.6538 21.7676 12.6465 21.614 12.6465 21.4676C12.6318 21.431 12.6097 21.3944 12.595 21.3505C12.47 21.0285 12.4994 20.7358 12.5803 20.4139C12.595 20.3553 12.6024 20.2895 12.6171 20.2309C12.5803 20.0846 12.5803 19.9455 12.6024 19.7992C12.5877 19.7333 12.5803 19.6601 12.5803 19.5943C12.5803 19.5504 12.5877 19.5138 12.595 19.4699C12.595 19.4626 12.5877 19.4552 12.5877 19.4479C12.4847 19.1772 12.5435 18.9064 12.5509 18.6283C12.5509 18.5405 12.5509 18.4527 12.5435 18.3722C12.4994 18.2625 12.4774 18.1234 12.5141 18.0137C12.5215 18.0063 12.5215 17.9917 12.5215 17.9844C12.5068 17.8819 12.4994 17.7795 12.4921 17.677C12.4847 17.5526 12.4847 17.4356 12.4994 17.3185C12.5141 17.2234 12.5215 17.1209 12.5509 17.0258C12.5656 16.9819 12.5803 16.9453 12.595 16.9014C12.47 16.4477 12.4038 16.0086 12.4553 15.5256C12.4847 15.2329 12.5509 14.9476 12.5656 14.6622C12.5729 14.5085 12.5729 14.3475 12.6097 14.2011C12.6318 14.128 12.698 14.0328 12.7053 13.9597C12.7127 13.9011 12.7274 13.8426 12.7494 13.784C12.7494 13.6231 12.8303 13.4547 13.0215 13.3596C13.5142 13.1035 14.0437 12.9132 14.5511 12.6791C15.0585 12.4449 15.5659 12.2473 16.0806 12.0497C16.1395 12.0278 16.1909 11.9985 16.2498 11.9766C16.3748 11.9107 16.5071 11.8522 16.6395 11.7936C16.9263 11.6473 17.2131 11.4863 17.5219 11.3765C17.5881 11.3546 17.6617 11.3326 17.7352 11.318C17.8234 11.2814 17.9043 11.2521 17.9705 11.2229C18.1397 11.1497 18.2867 11.0399 18.4485 10.9594C18.8088 10.7765 19.1986 10.6301 19.5883 10.513C19.9707 10.4033 20.2207 10.3301 20.559 10.1618C20.8164 10.0374 21.0738 9.92762 21.3458 9.8764C21.7724 9.65687 22.1768 9.43002 22.6621 9.32757C23.2651 9.19585 23.7064 8.94705 24.2432 8.6763C24.5153 8.53726 24.7726 8.51531 25.0741 8.47872C25.3977 8.43481 25.6698 8.31773 25.9713 8.19333C26.5154 7.96648 27.1111 7.75427 27.692 7.61523C27.9273 7.55669 28.17 7.52742 28.4127 7.49815C29.1554 7.17617 29.9055 6.8981 30.6776 6.69321C30.9791 6.61271 31.2512 6.61271 31.4939 6.66393C31.538 6.63466 31.5821 6.60539 31.6336 6.58344C31.9645 6.43709 32.2072 6.40782 32.5528 6.33464C32.7881 6.28341 32.994 6.16633 33.2293 6.10779C33.7588 5.98339 34.3838 5.81508 34.928 5.8224C35.4354 5.82972 35.9355 6.09316 36.4355 6.1956C37.0238 6.31269 37.5974 6.48099 38.1783 6.59808C38.7519 6.71516 39.3181 6.83956 39.877 7.00055C40.0314 7.04445 40.1859 7.09568 40.3403 7.15422C40.4285 7.1469 40.5168 7.1469 40.605 7.16885C40.8845 7.13958 41.1492 7.21276 41.4066 7.34448C41.4728 7.38107 41.5316 7.41766 41.5904 7.45424C41.6198 7.4762 41.6566 7.49083 41.686 7.51279C41.7669 7.53474 41.8625 7.54206 41.9066 7.55669C42.0096 7.58596 42.1125 7.60792 42.2081 7.6445C42.3184 7.68109 42.4214 7.73232 42.5243 7.77622C42.7596 7.85672 42.9803 7.96648 43.2229 8.04698C43.3847 8.0982 43.5538 8.10552 43.723 8.14211C43.8039 8.16406 43.8774 8.18601 43.9583 8.21528C44.0759 8.23724 44.1862 8.27382 44.2818 8.32505C44.6789 8.44213 45.0907 8.53726 45.4805 8.68362C45.5834 8.7202 45.679 8.76411 45.782 8.81533C46.1129 8.77875 46.4144 8.91046 46.6129 9.15195C46.7159 9.18854 46.8115 9.23244 46.9144 9.27635C47.0174 9.30562 47.1203 9.32025 47.2233 9.34221C47.3998 9.3788 47.5616 9.45929 47.716 9.55442C47.7748 9.59101 47.841 9.6276 47.8998 9.6715C48.2013 9.73736 48.5249 9.78127 48.8264 9.86908C48.8117 9.43002 48.8117 9.02755 48.797 8.61044Z" fill="white"/>
<path opacity="0.1" d="M43.1568 22.1794C43.2667 22.194 43.3619 22.2086 43.4645 22.2451C43.5377 22.267 43.5963 22.2816 43.6329 22.2889C43.8893 22.3254 44.0871 22.3838 44.3069 22.5152C44.3142 22.5152 44.3362 22.5298 44.3581 22.5444C44.3581 22.5371 44.4094 22.559 44.3948 22.559C44.4168 22.559 44.468 22.559 44.4754 22.559C44.534 22.559 44.5926 22.5663 44.6585 22.5809C44.8709 22.6101 45.0541 22.6904 45.2518 22.7706C45.6181 22.9166 46.0137 22.9896 46.3946 23.0772C46.5264 23.1064 46.6583 23.1429 46.7828 23.1867C47.7351 19.5879 48.3358 15.8576 48.4896 12.047C48.3651 12.0105 48.2332 11.974 48.1087 11.9302C47.7058 11.7915 47.3615 11.5652 46.9806 11.3973C46.8341 11.3389 46.6876 11.2805 46.5411 11.2148C46.5704 11.2294 46.5997 11.2367 46.629 11.2513C46.5777 11.2294 46.5338 11.2221 46.4825 11.2075C46.2627 11.2002 46.0796 11.098 45.9331 10.9593C45.8159 10.9739 45.6987 10.9666 45.5888 10.9228C45.4496 10.8644 45.3031 10.8206 45.1639 10.7695C45.1566 10.7695 45.1566 10.7768 45.1493 10.7768C45.0248 10.8133 44.9075 10.8206 44.783 10.7914C44.7684 10.7914 44.761 10.7914 44.7464 10.7841C44.5413 10.879 44.3215 10.9374 44.0944 10.9958C44.0725 11.0031 44.0505 11.0104 44.0285 11.0104C43.9772 11.025 43.926 11.0323 43.8674 11.0469C43.6915 11.0834 43.5231 11.1345 43.3546 11.171C43.318 11.1856 43.296 11.1929 43.296 11.1929C43.2813 11.2002 43.274 11.2002 43.2594 11.2075C43.1861 11.244 43.1202 11.2732 43.0469 11.3097C42.6001 11.5141 42.1752 11.609 41.6771 11.6455C41.6331 11.6455 41.5819 11.6528 41.5379 11.6528C41.3108 11.7331 41.0764 11.8061 40.842 11.8645C40.5124 11.9448 40.1241 11.9886 39.7872 12.0762C39.7579 12.0908 39.7286 12.1054 39.6919 12.12C39.67 12.1419 39.6407 12.1565 39.6187 12.1784C39.5015 12.2587 39.3623 12.3098 39.2231 12.3609C39.1499 12.3901 39.0693 12.3974 38.996 12.3901C38.6517 12.4996 38.3001 12.5945 37.9705 12.7551C37.2966 13.0836 36.5714 13.2734 35.8462 13.4632C35.6997 13.5435 35.5605 13.6311 35.414 13.6968C35.1942 13.799 34.9891 13.872 34.7547 13.9012C34.6814 13.9304 34.6082 13.9596 34.5276 13.9742C34.4177 14.0034 34.3078 14.0253 34.198 14.0618C34.1833 14.0691 34.176 14.0764 34.1613 14.0764C33.9343 14.2589 33.7291 14.4633 33.4288 14.5509C32.916 14.7115 32.3886 14.8502 31.8685 14.9962C31.3704 15.1349 30.9895 15.4999 30.4914 15.6386C30.484 15.6386 30.4694 15.6459 30.4621 15.6459C30.1324 15.8649 29.8101 16.062 29.4365 16.2153C28.7919 16.4781 28.1473 16.8212 27.5393 17.1716C27.466 17.2446 27.3854 17.303 27.3049 17.3614C27.2609 17.3979 27.2096 17.4198 27.1584 17.449C27.0338 17.5074 26.9093 17.5512 26.7848 17.6023C26.6749 17.6534 26.565 17.7045 26.4625 17.7629C26.4551 17.7629 26.4478 17.7702 26.4478 17.7702C26.3965 17.814 26.3452 17.8578 26.2866 17.9016C26.0376 18.0768 25.7885 18.2593 25.5321 18.4199C25.2465 18.5951 24.9681 18.7849 24.6824 18.9601C24.5945 19.0185 24.5066 19.0769 24.4187 19.128C24.0671 19.5003 23.5836 19.7558 23.1441 20.004C23.1001 20.0332 23.1075 20.0332 23.1441 19.9967C23.2393 19.9237 23.188 19.9602 22.9903 20.1135C22.9463 20.1427 22.9024 20.1792 22.8657 20.2084C22.8145 20.2449 22.7559 20.2887 22.7046 20.3252C22.6973 20.3325 22.6899 20.3398 22.6753 20.3471C22.4482 20.5442 22.2504 20.7705 21.994 20.9384C21.8988 21.0041 21.7962 21.0552 21.6937 21.1063C21.6424 21.1355 21.5911 21.1574 21.5399 21.1939C21.5252 21.2012 21.5106 21.2085 21.5032 21.2231C21.3347 21.3983 21.1809 21.5881 21.0124 21.7706C20.7927 22.0188 20.529 22.2305 20.2433 22.4276C20.1114 22.6027 19.9649 22.7633 19.8111 22.902C19.7818 22.9458 19.7598 22.9823 19.7305 23.0261C19.7012 23.0699 19.6792 23.1137 19.6426 23.1575C19.5693 23.2524 19.5034 23.3619 19.4155 23.4422C19.3423 23.5079 19.2544 23.5663 19.1811 23.632C19.1591 23.6466 19.1372 23.6612 19.1152 23.6831C19.0932 23.6977 19.0712 23.7123 19.0419 23.7196C18.998 23.778 18.954 23.8437 18.9101 23.9021C18.8222 24.0189 18.7123 24.1795 18.5731 24.2525C18.5658 24.2671 18.5585 24.2817 18.5511 24.2963C18.5218 24.362 18.4852 24.4204 18.4486 24.4788C18.3387 24.6467 18.1995 24.8 18.075 24.9533C18.0677 24.9679 18.0091 25.0409 17.9944 25.0555C17.9651 25.0993 17.9431 25.1358 17.9212 25.1796C17.6062 25.7563 17.2033 26.2746 16.8443 26.8294C16.7784 26.9316 16.7125 27.0411 16.6539 27.1433C16.6392 27.1652 16.6319 27.1944 16.6173 27.2236C16.6026 27.2528 16.588 27.2747 16.5733 27.3039C16.5513 27.355 16.522 27.4061 16.5001 27.4572C16.5001 27.4645 16.5001 27.4718 16.4927 27.4864C16.4561 27.6835 16.3755 27.8806 16.251 28.0485C16.251 28.0558 16.2437 28.0631 16.2437 28.0704C16.2144 28.1361 16.1924 28.2018 16.1631 28.2675C16.4414 28.2237 16.7052 28.1215 17.0055 28.1215C17.108 28.1215 17.2106 28.1288 17.3205 28.1288C17.4011 28.0923 17.489 28.0631 17.5842 28.0631C17.5915 28.0631 17.5988 28.0631 17.6062 28.0631C17.8479 28.0193 18.075 27.9244 18.3314 27.9463C18.4486 27.9536 18.5585 27.9755 18.6683 27.9974C19.0419 27.8952 19.4009 27.8076 19.8111 27.8295C20.1261 27.8514 20.4118 27.9171 20.7048 27.9317C20.822 27.9025 20.9392 27.8879 21.0564 27.8806C21.137 27.8806 21.2175 27.8879 21.2981 27.9025C21.364 27.9025 21.4373 27.9025 21.5032 27.9025C21.5325 27.8149 21.5765 27.7346 21.6424 27.6835C21.6644 27.6689 21.679 27.647 21.6937 27.6251C21.745 27.5448 21.7889 27.4645 21.8402 27.3842C21.8988 27.282 21.9647 27.1871 22.0233 27.0922C22.1112 26.9535 22.1991 26.7856 22.3237 26.6761C22.4042 26.6031 22.4921 26.5447 22.5874 26.479C22.6899 26.333 22.7852 26.1943 22.8877 26.0483C23.0562 25.8147 23.2393 25.6541 23.4737 25.4862C23.6642 25.3475 23.7814 25.2599 23.9499 25.0701C24.0012 25.0117 24.0598 24.9606 24.1184 24.9095C24.2429 24.7124 24.4114 24.5518 24.5872 24.4058C24.6897 24.3182 24.7996 24.2379 24.9022 24.1503C24.9461 24.1138 24.9974 24.07 25.0413 24.0262C25.0633 24.0043 25.0706 23.997 25.0706 23.997C25.0706 23.997 25.078 23.9897 25.0999 23.9532C25.2098 23.8145 25.3124 23.6831 25.4589 23.5809C25.4735 23.559 25.4955 23.5298 25.5248 23.4933C25.5468 23.4714 25.5614 23.4495 25.5907 23.4276C25.6786 23.3546 25.7739 23.2816 25.8691 23.2159C25.979 23.1429 26.0815 23.0699 26.1914 22.9969C26.2061 22.9896 26.2134 22.9823 26.228 22.9677C26.294 22.8947 26.3599 22.8217 26.4332 22.7706C26.6456 22.6174 26.7921 22.4203 27.0118 22.2451C27.2316 22.0699 27.488 21.9385 27.6638 21.756C27.8762 21.537 28.0594 21.2961 28.3377 21.1501C28.433 21.099 28.5282 21.0698 28.6307 21.0479C28.682 21.026 28.7333 21.0187 28.7919 21.0114C28.8871 20.953 28.997 20.9165 29.0996 20.9238C29.2387 20.9311 29.3706 20.9457 29.5098 20.9384C29.5611 20.9238 29.6123 20.9165 29.6636 20.9092C29.7808 20.8873 29.9053 20.8654 30.0225 20.8654C30.1471 20.8581 30.2789 20.88 30.4035 20.9092C30.5353 20.9092 30.6598 20.9019 30.7917 20.8946C31.4144 20.8435 32.0224 20.8508 32.645 20.8654C33.3189 20.88 33.9929 20.8946 34.6668 20.9238C34.9964 20.9384 35.3334 20.9311 35.663 20.953C35.8169 20.9676 36.1685 21.0625 36.249 21.0552C36.4029 21.026 36.564 21.0479 36.6959 21.1209C36.8277 21.1136 36.9596 21.1136 37.0915 21.1063C37.3405 21.1063 37.5896 21.1355 37.8313 21.1501C38.2415 21.1793 38.6737 21.1939 39.0693 21.3107C39.1059 21.3107 39.1425 21.3034 39.1792 21.2961C39.3843 21.2961 39.5747 21.3691 39.7725 21.4056C40.1095 21.464 40.4611 21.4786 40.7981 21.5224C41.135 21.5662 41.428 21.6611 41.743 21.7706C42.1313 21.902 42.5415 21.9458 42.9297 22.0699C43.0103 22.1283 43.0835 22.1502 43.1568 22.1794Z" fill="white"/>
<path opacity="0.1" d="M46.3371 25.0425C45.9621 24.957 45.6313 24.9142 45.2858 24.7289C45.2637 24.7147 45.2417 24.7075 45.2196 24.6933C45.102 24.7004 44.977 24.6648 44.8667 24.6362C44.7271 24.5935 44.5874 24.5578 44.4404 24.5222C44.1316 24.4509 43.8081 24.3012 43.5435 24.1943C43.3964 24.1872 43.242 24.1729 43.1024 24.1516C42.7642 24.0945 42.4922 23.9449 42.1834 23.8237C41.8967 23.7168 41.5291 23.7168 41.2277 23.7096C40.8895 23.6954 40.5881 23.6384 40.272 23.5172C39.9559 23.4031 39.6912 23.396 39.3678 23.3604C39.0002 23.3176 38.6326 23.2178 38.265 23.1608C37.5666 23.0539 36.8315 23.0396 36.1257 23.0396C36.0154 23.0396 35.9199 23.0111 35.839 22.9683C34.6995 22.8971 33.5674 22.8828 32.4279 22.8828H29.6857C29.6563 22.8828 29.6195 22.8828 29.5828 22.8828C29.5607 22.8971 29.5387 22.9113 29.5166 22.9256C29.5166 22.9256 29.5166 22.9256 29.5093 22.9327C29.4799 22.9683 29.4578 23.004 29.4284 23.0325C29.3475 23.1252 29.2373 23.1964 29.127 23.2463C29.0094 23.2962 28.8917 23.339 28.7668 23.3818C28.7594 23.3818 28.6565 23.4245 28.6638 23.4174C28.6271 23.4317 28.5903 23.4459 28.5536 23.4673C28.5389 23.4744 28.5242 23.4887 28.5095 23.5029C28.5095 23.5029 28.5095 23.5101 28.5021 23.5101C28.4506 23.5956 28.4212 23.6811 28.3624 23.7595C28.2154 23.9734 28.0095 24.1088 27.7743 24.23C27.7596 24.2371 27.7522 24.2442 27.7449 24.2442C27.7375 24.2513 27.7302 24.2585 27.7228 24.2656C27.6567 24.3155 27.5832 24.3725 27.517 24.4224C27.4361 24.4794 27.3553 24.5293 27.2744 24.5792C27.2229 24.6149 27.1715 24.6505 27.12 24.6861C27.12 24.6861 27.0538 24.736 27.0318 24.7503C26.9509 24.8144 26.8701 24.8857 26.7965 24.957C26.6642 25.0924 26.5245 25.2065 26.4069 25.349C26.2966 25.4773 26.1643 25.6128 26.0026 25.684C25.907 25.8195 25.8114 25.9549 25.7012 26.0761C25.5247 26.2756 25.3042 26.4325 25.0983 26.6035C24.8925 26.7675 24.7528 26.9314 24.5984 27.1381C24.4808 27.302 24.3632 27.4232 24.2014 27.5373C24.1132 27.5943 23.9882 27.6656 23.9441 27.7083C23.9074 27.7511 23.7971 27.9079 23.7162 28.0006C23.628 28.0932 23.5251 28.1788 23.4295 28.2714C23.3266 28.3712 23.231 28.4781 23.1207 28.5779C23.0252 28.6706 22.9002 28.7419 22.8267 28.8488C22.8708 28.7917 22.7826 28.9486 22.7899 28.9414C22.7679 28.9913 22.7458 29.0412 22.7164 29.084C22.7164 29.0911 22.7091 29.0982 22.7017 29.0982C22.6576 29.2265 22.5767 29.3335 22.4591 29.3976C22.4297 29.4261 22.3929 29.4475 22.3635 29.4618C22.3341 29.5117 22.2974 29.5544 22.2533 29.5901C22.2533 29.5972 22.2459 29.6043 22.2459 29.6043C22.1944 29.6898 22.1209 29.7611 22.0327 29.811C21.9812 29.8324 21.9371 29.8538 21.8857 29.868C21.8048 29.8894 21.7239 29.8966 21.6431 29.8752C21.621 29.8752 21.5916 29.868 21.5696 29.8609C21.4519 29.8823 21.3417 29.8894 21.2461 29.8894C21.1432 29.8894 21.0476 29.8609 20.9667 29.8181C20.9594 29.8181 20.9594 29.8181 20.952 29.8253C20.8565 29.8609 20.7609 29.8966 20.658 29.9179C20.5036 29.9393 20.3565 29.9536 20.2022 29.9464C20.0845 29.9393 19.9743 29.9322 19.8566 29.9322C19.7905 29.9322 19.7317 29.9179 19.6728 29.9037C19.6508 29.9037 19.6287 29.9108 19.6067 29.9108C19.467 29.9251 19.3347 29.9322 19.195 29.9322C19.1362 29.9322 19.0774 29.9251 19.0186 29.9251C18.9892 29.9251 18.7686 29.9393 18.9303 29.9179C18.776 29.9393 18.6289 29.9179 18.5039 29.868C18.4892 29.868 18.4819 29.868 18.4672 29.8752C18.0702 29.9037 17.6659 29.8538 17.2615 29.8609C17.063 29.8609 16.8645 29.8752 16.6661 29.8894C16.5411 29.9037 16.4234 29.9108 16.3058 29.9179C15.7471 29.9607 15.181 30.0249 14.6223 30.0605C14.24 30.0819 13.8871 30.0391 13.5049 30.1104C13.0564 30.1888 12.6447 30.2102 12.1889 30.2102C12.0934 30.2102 12.0125 30.1959 11.9463 30.1603C11.8508 30.1603 11.7552 30.1532 11.6523 30.146C11.3729 30.2102 11.0788 30.2458 10.7848 30.2529C10.3143 30.2601 9.85113 30.1959 9.38798 30.2173C8.98364 30.2316 8.66752 30.3171 8.22643 30.3812C7.81474 30.4383 7.4104 30.4739 7.00606 30.4169C6.89579 30.5594 6.71935 30.6592 6.4841 30.6664C6.10182 30.6664 5.61661 30.6521 5.26374 30.8232C5.11671 30.8944 5.10935 30.9871 5.02113 31.1439C4.91086 31.3506 4.76383 31.5217 4.59474 31.6785C4.1757 32.0563 3.85223 32.4198 3.62433 32.9401C3.40379 33.4391 3.24205 33.9594 2.91123 34.4013C2.551 34.886 2.10991 35.164 1.58059 35.4491C1.02187 35.7556 0.544017 36.1975 0.0735159 36.6181C0.0514611 36.6394 0.0294064 36.6537 0 36.6751C0.544018 36.5824 1.08804 36.5183 1.66881 36.561C2.08785 36.5895 2.50689 36.6252 2.92593 36.5967C3.38908 36.5682 3.84488 36.4612 4.30803 36.4898C4.74177 36.5111 5.16081 36.6466 5.58721 36.6751C5.96214 36.7036 6.28561 36.5824 6.63848 36.4684C7.47657 36.1975 8.28524 36.1833 9.16008 36.2902C10.057 36.3971 10.9318 36.4612 11.8361 36.4684C12.5051 36.4755 13.1667 36.4755 13.8283 36.5254C13.946 36.4399 14.093 36.3828 14.2547 36.3615C14.6444 36.3116 14.9825 36.4185 15.3281 36.5183C15.3795 36.504 15.431 36.4969 15.4824 36.504C15.6883 36.5254 15.8574 36.561 16.0485 36.6323C16.0779 36.6466 16.1073 36.6537 16.1367 36.6608C16.2617 36.6608 16.3867 36.6608 16.5117 36.6466C16.5778 36.6181 16.6366 36.5967 16.7102 36.5824C16.8792 36.5397 17.0483 36.5397 17.2101 36.5824C17.2321 36.5824 17.2615 36.5753 17.2836 36.5753C18.3275 36.4969 19.3714 36.5468 20.4154 36.504C21.4078 36.4612 22.3562 36.4327 23.3339 36.5396C23.4222 36.4898 23.5177 36.4684 23.628 36.4612C24.0765 36.4113 24.5249 36.447 24.966 36.5111C25.0542 36.5254 25.1498 36.5397 25.238 36.561C25.3997 36.5397 25.5615 36.5183 25.7232 36.4969C25.782 36.4684 25.8482 36.4541 25.9291 36.447C25.9805 36.447 26.032 36.447 26.0908 36.447C26.2966 36.4185 26.5098 36.39 26.723 36.3686C26.8921 36.3472 27.0391 36.4113 27.1568 36.5111C27.2817 36.5183 27.4067 36.5325 27.5317 36.5325C27.6126 36.4541 27.7302 36.4042 27.8846 36.4042C28.5242 36.4042 29.1785 36.3543 29.818 36.4042C30.1415 36.4327 30.4576 36.4826 30.7737 36.5325C31.0605 36.5325 31.3398 36.5111 31.5971 36.4185C32.0676 36.2474 32.641 36.2688 33.0895 36.4969C33.1998 36.4898 33.31 36.4755 33.4277 36.4684C33.6629 36.4541 33.8982 36.4541 34.1408 36.4612C34.5378 36.4256 34.9274 36.447 35.317 36.4826C35.5302 36.3543 35.7655 36.2973 36.0228 36.3116C36.1698 36.3187 36.3095 36.3401 36.4492 36.3615C36.508 36.3686 36.5594 36.3828 36.6183 36.39C36.633 36.39 36.6844 36.3971 36.7138 36.4042C36.7506 36.4042 36.7873 36.4113 36.802 36.4113C36.8829 36.4113 36.9711 36.4185 37.052 36.4256C37.2064 36.4327 37.3681 36.447 37.5225 36.4612C37.7284 36.4755 37.9342 36.4898 38.14 36.504C38.1915 36.504 38.243 36.4969 38.2944 36.4898C39.0149 36.447 39.728 36.4969 40.4484 36.5183C40.7866 36.5325 41.1395 36.4826 41.4703 36.5396H41.4777C42.551 34.6936 43.514 32.7619 44.3742 30.759C43.8743 30.8303 43.3376 30.8018 42.8451 30.8517C41.9555 30.9372 40.8822 31.1439 40.022 30.8446C39.8824 30.7947 39.7647 30.7305 39.6545 30.6592C38.7576 30.7448 37.8386 30.7875 36.9564 30.6592C36.78 30.6307 36.5962 30.6093 36.4124 30.5737C36.4124 30.5737 36.4124 30.5737 36.4051 30.5737C35.8022 30.5808 35.2068 30.6521 34.6039 30.645C34.3099 30.645 34.0158 30.6236 33.7217 30.6236C33.4571 30.6236 33.1924 30.6236 32.9351 30.5523C32.8689 30.5666 32.8028 30.5879 32.7366 30.5951C32.7219 30.5951 32.7072 30.5951 32.6925 30.5951C32.6925 30.5951 32.6925 30.5951 32.6925 30.6022C32.6925 30.6022 32.6925 30.6022 32.6852 30.6093L32.6778 30.6165C32.6705 30.6236 32.6631 30.6307 32.6631 30.6378L32.6558 30.645C32.6337 30.6664 32.6043 30.6806 32.5749 30.6949C32.5602 30.6949 32.5381 30.702 32.5234 30.702C32.494 30.702 32.472 30.6949 32.4499 30.6877C32.4279 30.6806 32.4058 30.6664 32.3911 30.6521C32.369 30.6378 32.3617 30.6165 32.3543 30.5951C32.3396 30.5737 32.3396 30.5523 32.3396 30.5238C32.3396 30.4882 32.347 30.4596 32.369 30.424C32.369 30.424 32.369 30.424 32.3764 30.4169C32.3764 30.4169 32.3764 30.4098 32.3837 30.4098C32.3911 30.4026 32.3984 30.3955 32.3984 30.3884L32.4058 30.3812C32.4279 30.3599 32.4573 30.3456 32.4867 30.3313C32.5014 30.3313 32.5234 30.3242 32.5381 30.3242C32.5381 30.3242 32.5381 30.3242 32.5455 30.3242C32.5675 30.2886 32.5969 30.2601 32.6484 30.2458C32.7293 30.2173 32.8248 30.1959 32.9131 30.1888C32.9351 30.1817 32.9498 30.1745 32.9645 30.1674C33.0086 30.089 33.0969 30.032 33.1777 29.9821C33.1998 29.9678 33.2292 29.9536 33.2512 29.9393C33.2586 29.9322 33.2586 29.9322 33.2586 29.9251C33.2733 29.9037 33.288 29.8752 33.3027 29.8538C33.3395 29.8039 33.3762 29.7611 33.4203 29.7255C33.4497 29.697 33.5012 29.6756 33.5232 29.64C33.5526 29.5972 33.56 29.5473 33.5747 29.5045C33.5894 29.4475 33.6188 29.4047 33.6335 29.3477C33.6703 29.2551 33.6923 29.1553 33.6923 29.0626C33.6923 28.9985 33.685 28.9343 33.6703 28.8702C33.5747 28.7989 33.4865 28.7276 33.4056 28.6421C33.3909 28.6278 33.3468 28.5779 33.31 28.5351C33.3027 28.528 33.3027 28.528 33.2953 28.528C33.288 28.528 33.2733 28.528 33.2512 28.5351C33.1851 28.5423 33.1189 28.5351 33.0527 28.528C32.8763 28.5066 32.744 28.471 32.5822 28.3926C32.5602 28.3783 32.5381 28.3641 32.5087 28.357C32.5014 28.357 32.494 28.357 32.494 28.357C32.4867 28.357 32.4867 28.357 32.4793 28.357C32.472 28.357 32.472 28.357 32.4646 28.357C32.222 28.3997 31.9794 28.4282 31.7368 28.3712C31.6706 28.3855 31.6045 28.3997 31.531 28.414C31.5089 28.414 31.4795 28.4211 31.4574 28.4211C31.4574 28.4211 31.4354 28.4211 31.428 28.4282C31.3766 28.4354 31.3325 28.4425 31.2884 28.4567C31.0752 28.5138 30.884 28.6064 30.6561 28.6207C30.6488 28.6207 30.6488 28.6207 30.6414 28.6207C30.5826 28.6421 30.5311 28.6563 30.4723 28.6706C30.4723 28.6706 30.4723 28.6706 30.465 28.6706C30.4576 28.6777 30.4576 28.692 30.4429 28.6991C30.4429 28.6991 30.4429 28.6991 30.4356 28.7062C30.4135 28.7276 30.3841 28.7419 30.3547 28.7561C30.34 28.7561 30.3179 28.7632 30.3032 28.7632C30.2665 28.7632 30.2371 28.7561 30.2077 28.7347C30.193 28.7276 30.1783 28.7133 30.1709 28.7062C30.1489 28.692 30.1415 28.6706 30.1342 28.6492C30.1195 28.6278 30.1195 28.6064 30.1195 28.5779C30.1195 28.5494 30.1268 28.528 30.1342 28.5066C30.1415 28.4853 30.1562 28.4639 30.1709 28.4496C30.1709 28.4496 30.1709 28.4496 30.1783 28.4425C30.2003 28.4211 30.2297 28.4068 30.2591 28.3926C30.2738 28.3712 30.2959 28.3498 30.3179 28.3356C30.3179 28.3356 30.3253 28.3356 30.3253 28.3284C30.3327 28.3213 30.34 28.3142 30.3474 28.3142C30.3621 28.2857 30.3841 28.2572 30.3988 28.2287C30.4062 28.2073 30.4209 28.1859 30.4356 28.1645C30.465 28.1217 30.5017 28.0932 30.5458 28.0647C30.5973 28.0291 30.6635 28.0006 30.7223 27.9792C30.7223 27.9721 30.7223 27.9649 30.7223 27.9649C30.7223 27.9578 30.7223 27.9578 30.7223 27.9507C30.7223 27.915 30.7296 27.8723 30.737 27.8366C30.737 27.8295 30.737 27.8295 30.737 27.8224C30.7517 27.7867 30.7664 27.7511 30.7811 27.7155C30.7884 27.7083 30.7885 27.7012 30.7958 27.6941C30.8179 27.6584 30.8473 27.6299 30.8767 27.5943C30.8914 27.58 30.9061 27.5658 30.9208 27.5515C30.9869 27.5016 31.0531 27.4517 31.1193 27.4161C31.1928 27.3733 31.259 27.3377 31.3325 27.2949C31.3398 27.2807 31.3545 27.2735 31.3619 27.2593C31.3692 27.2521 31.3766 27.245 31.3839 27.2379C31.3839 27.2379 31.3839 27.2379 31.3913 27.2379C31.3913 27.2308 31.3986 27.2308 31.3986 27.2236C31.4427 27.1595 31.4868 27.1025 31.5383 27.0454C31.5751 26.9955 31.6118 26.9528 31.6559 26.91C31.7 26.8672 31.7442 26.8174 31.7883 26.7817C31.7 26.8601 31.8103 26.7603 31.825 26.7318C31.9206 26.5964 32.0088 26.461 32.1191 26.3398C32.222 26.24 32.3396 26.1616 32.4573 26.0761C32.4352 26.0903 32.5308 26.019 32.5455 26.0048C32.6043 25.9549 32.6558 25.9121 32.7072 25.8622C32.8101 25.7696 32.9131 25.684 33.016 25.5985C33.2659 25.406 33.5453 25.292 33.8173 25.1209C33.9349 25.0497 34.0599 25.0211 34.1922 25.0283C34.4128 24.9641 34.6407 24.9427 34.8759 24.9499C34.8833 24.9499 34.8906 24.9427 34.898 24.9427C34.9936 24.9214 35.0891 24.9142 35.1847 24.9071C35.2435 24.8715 35.3023 24.843 35.3538 24.8287C35.5008 24.7859 35.7508 24.8002 35.8831 24.8928C35.8905 24.9 35.8978 24.9 35.9052 24.9071C35.9566 24.9142 36.0081 24.9142 36.0595 24.9214C36.0742 24.9214 36.0816 24.9142 36.0963 24.9071C36.3095 24.8715 36.4712 24.8715 36.6844 24.9214C36.7065 24.9285 36.7212 24.9356 36.7432 24.9356C37.9489 24.9855 39.1766 25.2421 40.0809 25.4916C40.9998 25.7411 41.9188 26.019 42.8156 26.3398C42.8818 26.3469 42.9553 26.354 43.0215 26.3683C43.5361 26.4681 44.0066 26.7389 44.4992 26.9243C44.8888 27.0098 45.2637 27.1167 45.6387 27.2593C45.6681 27.2735 45.6975 27.2878 45.7342 27.302C45.9915 26.5679 46.2415 25.8266 46.4694 25.0782C46.4106 25.0639 46.3738 25.0497 46.3371 25.0425ZM31.3839 25.1138C31.3839 25.1209 31.3839 25.1281 31.3839 25.1281C31.3766 25.1637 31.3766 25.1922 31.3692 25.2279C31.3325 25.4702 31.2295 25.7125 31.0825 25.8979C30.9355 26.0832 30.7296 26.2186 30.5458 26.3754C30.5164 26.4396 30.487 26.4966 30.4429 26.5536C30.3841 26.6249 30.3032 26.6605 30.2297 26.7033C30.2077 26.7389 30.193 26.7817 30.1636 26.8102C29.9577 27.1167 29.671 27.3448 29.4431 27.6228C29.3255 27.7653 29.1711 27.8794 29.0461 28.0219C28.9285 28.1502 28.8329 28.3071 28.7153 28.4425C28.5021 28.6991 28.2742 28.9985 28.0095 29.2052C27.8993 29.2978 27.7743 29.3691 27.6567 29.4475C27.6493 29.4689 27.6346 29.4903 27.6199 29.5117C27.6052 29.5259 27.5832 29.533 27.5685 29.5473C27.5685 29.6257 27.5317 29.7041 27.4582 29.754C27.3259 29.8467 27.1715 29.8966 27.0171 29.9607C26.8921 30.0106 26.7598 30.089 26.6275 30.1389C26.5466 30.1674 26.451 30.1888 26.3628 30.203C26.2084 30.2387 26.0614 30.2672 25.907 30.2815C25.6717 30.3028 25.4071 30.31 25.1718 30.2387C25.1645 30.2458 25.1571 30.2529 25.1498 30.2601C25.0469 30.3242 24.9366 30.2815 24.8557 30.2102C24.8557 30.2102 24.8557 30.2102 24.8484 30.2102C24.8484 30.2102 24.841 30.2102 24.841 30.203C24.8337 30.203 24.8263 30.1959 24.819 30.1959C24.8116 30.1959 24.8043 30.1959 24.7969 30.1888C24.7749 30.1888 24.7528 30.1888 24.7234 30.1817C24.6719 30.1817 24.6278 30.1817 24.5764 30.1745C24.5396 30.1745 24.4955 30.1674 24.4587 30.1603C24.4514 30.1603 24.4367 30.1603 24.4293 30.1532C24.4073 30.1532 24.3852 30.1532 24.3632 30.1532H24.3558C24.2823 30.1674 24.2088 30.1817 24.1353 30.1817C23.9956 30.1817 23.8706 30.1246 23.775 30.0249C23.7162 30.0106 23.6574 29.9963 23.6059 29.9678C23.4957 29.9179 23.4516 29.754 23.5251 29.6613C23.5839 29.5901 23.6501 29.5259 23.7236 29.4689C23.7236 29.4047 23.753 29.3406 23.8338 29.2978C23.8706 29.2764 23.9147 29.2551 23.9588 29.2408C23.9735 29.1268 24.025 29.0198 24.1206 28.9414C24.2602 28.8203 24.4146 28.7205 24.569 28.6278C24.6131 28.5708 24.6572 28.5066 24.7013 28.4425C24.7749 28.3427 24.8557 28.25 24.9513 28.1716C25.0248 28.1075 25.113 28.0505 25.1939 27.9934C25.4806 27.5943 25.8335 27.245 26.1864 26.8886C26.5098 26.5679 26.8554 26.297 27.2229 26.0404C27.2523 25.9834 27.2817 25.9264 27.3259 25.8694C27.3773 25.8052 27.4214 25.7482 27.4876 25.6983C27.5243 25.6698 27.5685 25.6341 27.6126 25.6056C27.6199 25.5985 27.6199 25.5985 27.6346 25.5842C27.6567 25.5629 27.6787 25.5415 27.7008 25.5201C27.7155 25.5058 27.7228 25.4987 27.7228 25.4987C27.7522 25.4559 27.7817 25.3989 27.789 25.3918C27.8699 25.2564 27.9434 25.1281 28.061 25.0211C28.1272 24.9641 28.208 24.9071 28.2816 24.8572C28.2963 24.8501 28.2963 24.8501 28.3036 24.843C28.3183 24.8287 28.333 24.8144 28.3404 24.8144C28.4286 24.736 28.5095 24.6505 28.5977 24.5792C28.6418 24.5436 28.6932 24.5079 28.7374 24.4794L28.7447 24.4723C28.7741 24.4438 28.8256 24.401 28.8329 24.401C28.9211 24.3226 29.0094 24.2513 29.1049 24.1801C29.3328 24.009 29.5975 23.8664 29.8989 23.8878C29.921 23.8878 29.9357 23.895 29.9577 23.9021C30.0827 23.8736 30.2077 23.8878 30.3253 23.9377C30.3768 23.9092 30.4356 23.9021 30.487 23.9235C30.6635 23.9876 30.8252 24.1159 30.9649 24.2513C31.156 24.3868 31.2957 24.5721 31.3692 24.7931C31.3913 24.8857 31.3986 24.9998 31.3839 25.1138Z" fill="white"/>
<path opacity="0.1" d="M38.0507 41.5166C37.9929 41.2508 37.8917 40.9926 37.8122 40.7344C37.74 40.4838 37.711 40.2332 37.6605 39.9826C37.6171 39.77 37.5304 39.6865 37.3569 39.5118C37.169 39.322 36.9811 39.1321 36.7642 38.9803C36.5547 38.836 36.3306 38.7221 36.121 38.5778C35.9837 38.4867 35.8464 38.3879 35.709 38.3044C35.391 38.2133 35.0658 38.1146 34.7406 38.0614C34.6105 38.0386 34.4731 38.031 34.343 38.0234C34.2202 38.1146 34.0612 38.1525 33.9022 38.1146C33.6348 38.0538 33.5047 38.0007 33.2734 38.0538C33.0276 38.1146 32.7747 38.107 32.5362 38.1677C32.3338 38.2209 32.0592 38.3272 31.9146 38.3955C31.8857 38.4107 31.864 38.4259 31.8351 38.4411C31.8062 38.4715 31.7701 38.5018 31.7412 38.5398C31.6689 38.6233 31.5894 38.6917 31.5026 38.7524C31.4304 38.798 31.3581 38.836 31.2786 38.8815C31.1051 39.1169 30.9606 39.3979 30.8522 39.7017C30.6859 40.1649 30.6137 40.6205 30.7293 41.0685C30.7654 41.2128 30.7438 41.3571 30.6787 41.4786C30.6715 41.6457 30.6498 41.8279 30.657 41.995C30.657 42.0178 30.6643 42.0405 30.6643 42.0633C30.6715 42.1241 30.6787 42.1772 30.7004 42.2304C30.7654 42.3899 30.7727 42.5569 30.7221 42.7088C30.7293 42.8303 30.7438 42.9442 30.751 43.0657C30.8088 44.4098 30.7944 45.7311 30.6426 47.0449C30.7799 47.5536 30.8666 48.2295 30.7438 48.7762C30.7871 48.7838 30.8377 48.7838 30.8811 48.7838C30.9389 48.7838 30.9895 48.7914 31.0473 48.7914C31.0545 48.7914 31.1196 48.7914 31.1557 48.7914C31.1557 48.7914 31.163 48.7914 31.1702 48.7838C31.1774 48.7762 31.1991 48.7686 31.228 48.7535C31.2858 48.7079 31.3509 48.6699 31.4087 48.6244C31.5388 48.5332 31.6978 48.4573 31.8207 48.3586C31.864 48.3206 32.0086 48.1611 32.0736 48.07C32.1676 47.9485 32.2543 47.8194 32.3555 47.7055C32.4567 47.584 32.5651 47.4929 32.6807 47.4094C32.688 47.3714 32.7024 47.3334 32.7096 47.2954C32.7241 47.2499 32.7313 47.2043 32.7385 47.1588C32.7241 47.2271 32.7385 47.1512 32.7385 47.136C32.7385 47.1132 32.7385 47.0828 32.7458 47.06C32.753 46.9613 32.753 46.8626 32.7602 46.7563C32.7891 46.4753 32.847 46.1943 32.9626 45.9362C33.0349 45.7691 33.165 45.6476 33.324 45.5868C33.4974 45.5185 33.6926 45.5717 33.8516 45.6628C34.0612 45.7843 34.2563 46.0045 34.4081 46.1943C34.4731 46.2779 34.531 46.3614 34.5816 46.4449C35.7524 45.0705 36.8799 43.5973 37.9496 42.0481C37.9568 41.8431 37.9929 41.676 38.0507 41.5166Z" fill="white"/>
<path opacity="0.1" d="M30.5207 49.8663C30.3817 49.8598 30.2356 49.8401 30.0966 49.8401C30.0757 49.8401 29.9227 49.8532 29.9644 49.8401C29.9575 49.8401 29.9505 49.8401 29.9436 49.8467C29.7419 49.9777 29.4776 49.9777 29.2899 49.8073L29.2829 49.8008C29.0813 49.8336 28.8657 49.8401 28.664 49.8598C28.5319 49.8729 28.3998 49.886 28.2676 49.8991C28.1842 49.9253 28.1007 49.9384 27.9964 49.9384C27.8921 49.9384 27.7809 49.9188 27.6696 49.8991C27.6279 49.8925 27.5862 49.8794 27.5514 49.8729C27.4888 49.8663 27.4262 49.8532 27.3706 49.8532C27.3289 49.8532 27.2871 49.8532 27.2524 49.8532C27.2106 49.8598 27.1689 49.8663 27.1272 49.8663C27.0298 49.886 26.9325 49.9057 26.8282 49.9253C26.5917 49.9646 26.3622 49.9581 26.1189 49.9646C25.646 49.9777 25.1731 49.9253 24.7002 49.9646C24.2274 50.004 23.7962 49.9909 23.3233 49.9319C22.9548 49.886 22.6071 50.0171 22.2246 49.9712C22.4124 50.194 22.6071 50.4038 22.7879 50.6332C22.8713 50.738 22.9478 50.8495 23.0035 50.9674C23.0591 51.0789 23.0939 51.1837 23.1286 51.2952C23.3512 51.5573 23.5528 51.8392 23.7545 52.121C24.2135 52.7699 24.8949 53.2418 25.4235 53.8382C27.3219 52.7305 29.1856 51.3869 30.9797 49.827C30.8406 49.8598 30.6876 49.8729 30.5207 49.8663Z" fill="white"/>
<path opacity="0.1" d="M23.5496 44.808C23.5423 44.7727 23.5276 44.7375 23.5203 44.7023C23.4909 44.6459 23.4689 44.5825 23.4469 44.5261C23.3882 44.3993 23.3222 44.2725 23.2488 44.1597C22.8967 43.6243 22.3831 43.1945 21.8696 42.7858C21.6202 42.7435 21.3781 42.6167 21.1506 42.6167C20.9306 42.6097 20.7105 42.5815 20.4977 42.5251C20.4757 42.5251 20.4537 42.5251 20.4317 42.5181C20.4244 42.5181 20.4244 42.5181 20.417 42.5181C20.2996 42.5674 20.1602 42.5744 20.0429 42.5462C20.0282 42.5392 20.0135 42.5392 19.9915 42.5322C19.9402 42.5392 19.8741 42.5533 19.8154 42.5533C19.6981 42.5533 19.6614 42.5392 19.5733 42.504C19.5513 42.4969 19.522 42.4828 19.5 42.4758C19.4633 42.4476 19.4266 42.4194 19.3826 42.3912C19.3753 42.3842 19.3753 42.3842 19.3679 42.3771C19.3312 42.3349 19.2872 42.2856 19.2579 42.2362L19.2505 42.2292C19.2359 42.2151 19.2139 42.201 19.1992 42.1869C19.0965 42.1024 19.0158 41.9896 18.9791 41.8628C18.9424 41.7501 18.9424 41.6232 18.9791 41.5105C19.0305 41.3555 19.1332 41.2357 19.2726 41.1441C19.3092 41.1159 19.3533 41.1019 19.3973 41.0807L19.4046 41.0737L19.4119 41.0666C19.4119 41.0666 19.4193 41.0666 19.4193 41.0596C19.4413 41.0455 19.5367 41.0103 19.5587 41.0032C19.6174 40.9821 19.6834 40.975 19.7494 40.975C19.7861 40.975 19.8228 40.9821 19.8595 40.9821C19.9475 40.9398 20.0429 40.9116 20.1382 40.9116C20.1969 40.9116 20.2483 40.9187 20.307 40.9398C20.3657 40.9328 20.4317 40.9187 20.4904 40.9116C20.8865 40.8623 21.246 40.8341 21.6275 40.7425C21.7596 40.7143 21.8843 40.6721 22.009 40.6298C22.031 40.6227 22.1044 40.5875 22.1264 40.5734C22.1777 40.5452 22.2217 40.517 22.2658 40.4889C22.2658 40.4818 22.3685 40.3973 22.3831 40.3832C22.3978 40.3691 22.4932 40.2493 22.4565 40.3057C22.5445 40.1859 22.6399 40.0661 22.7279 39.9463L22.7353 39.9393C22.7133 39.9041 22.6986 39.8688 22.6913 39.8336C22.6839 39.7843 22.6766 39.735 22.6692 39.6856C22.6692 39.587 22.6986 39.4954 22.7499 39.4109C22.7793 39.3756 22.8086 39.3404 22.838 39.2981C22.8527 39.284 22.8673 39.284 22.882 39.2699C22.8747 39.0797 22.8673 38.8965 22.86 38.7063C22.8453 38.7063 22.8233 38.6992 22.8086 38.6992C22.7573 38.7133 22.6986 38.7204 22.6326 38.7204C21.5835 38.7274 20.5491 38.8613 19.5 38.9035C19.1845 38.9176 18.8764 38.8895 18.5609 38.8613C18.5169 38.8542 18.4729 38.8542 18.4289 38.8542C18.3408 38.8965 18.2528 38.9458 18.1648 39.0022C18.0621 39.0867 17.9594 39.1854 17.8567 39.277C17.7906 39.3897 17.7099 39.4954 17.6219 39.594C17.4091 39.8195 17.1524 40.0379 16.9029 40.2423C16.8369 40.4818 16.8443 40.7425 16.8443 40.9891C16.8443 41.3555 16.8369 41.7289 16.8369 42.0953C16.8369 42.4547 16.8736 42.8069 16.9176 43.1522C16.9249 43.1733 16.9323 43.1874 16.9396 43.2086C16.9396 43.2086 16.9396 43.2086 16.9396 43.2156C17.013 43.2861 17.0717 43.3706 17.1304 43.4481C17.1744 43.5115 17.2111 43.5749 17.2551 43.6454C17.2698 43.6736 17.2918 43.6947 17.3064 43.7229C17.3138 43.73 17.3138 43.737 17.3211 43.744C17.3284 43.7511 17.3284 43.7511 17.3284 43.7581C17.4312 43.8709 17.5559 43.9625 17.6732 44.0611C17.7026 44.0822 17.7319 44.1104 17.7539 44.1316C17.7686 44.1386 17.7686 44.1457 17.776 44.1527C17.798 44.1668 17.842 44.1879 17.8493 44.195C17.864 44.202 17.8713 44.2091 17.8787 44.2091C17.886 44.2091 17.886 44.2091 17.8933 44.2161C18.2015 44.3007 18.5022 44.4345 18.8104 44.512C19.0158 44.5614 19.2212 44.6107 19.4119 44.7023C19.632 44.6952 19.8374 44.66 20.0722 44.7234C20.0869 44.7234 20.0942 44.7305 20.1016 44.7375C20.1162 44.7375 20.1309 44.7305 20.1529 44.7305C20.2116 44.7234 20.307 44.7446 20.351 44.7516C20.3657 44.7516 20.3803 44.7586 20.395 44.7657C20.4243 44.7798 20.4537 44.7868 20.4904 44.8009C20.5637 44.8009 20.6371 44.815 20.7031 44.8221C20.7765 44.8361 20.8572 44.8714 20.9159 44.8996C21.0259 44.9559 21.1213 45.0546 21.1873 45.1603C21.29 45.3223 21.312 45.5266 21.2607 45.7028C21.2167 45.8507 21.158 45.9212 21.0553 46.041C21.0333 46.0621 21.0113 46.0833 20.9892 46.1044C20.9012 46.1889 20.7985 46.2453 20.6885 46.2735C20.6298 46.2805 20.5637 46.2876 20.505 46.2946C20.4977 46.2946 20.4977 46.2946 20.4904 46.2946C20.439 46.3087 20.3803 46.3228 20.3143 46.3228C20.2336 46.3228 20.1309 46.3087 20.0502 46.2805C19.9695 46.2524 19.8888 46.2383 19.8081 46.2242C19.7567 46.2242 19.7054 46.2171 19.654 46.2242C19.522 46.2453 19.3899 46.2735 19.2505 46.2805C19.1845 46.2805 19.1258 46.2805 19.0598 46.2665C18.9644 46.2876 18.8691 46.3087 18.781 46.3299C18.5316 46.3933 18.2822 46.4567 18.0474 46.5412C18.0327 46.5483 18.0254 46.5483 18.0254 46.5483C18.0107 46.5553 17.996 46.5624 17.9814 46.5694C17.9153 46.5976 17.8567 46.6328 17.798 46.6681C17.7466 46.6962 17.7026 46.7244 17.6512 46.7597C17.6366 46.7667 17.6366 46.7667 17.6366 46.7738C17.6292 46.7808 17.6146 46.7878 17.6072 46.8019C17.4385 46.9499 17.3064 47.1049 17.1964 47.2811C17.1964 47.4783 17.1597 47.6756 17.101 47.8588C17.0643 47.9856 17.013 48.1125 16.969 48.2393C17.0497 48.2393 17.1304 48.2393 17.2111 48.2534C17.4605 48.2816 17.6806 48.3732 17.9153 48.4577C18.3775 48.3591 18.9131 48.4084 19.3899 48.4295C19.7274 48.3872 20.1309 48.352 20.4684 48.4084C20.5197 48.4013 20.5784 48.4013 20.6298 48.3943C20.9306 48.352 21.2167 48.2463 21.4954 48.1477C21.7375 48.0631 21.9796 47.9856 22.2291 47.9293C22.2511 47.9152 22.2731 47.894 22.2951 47.8799C22.3171 47.8588 22.3465 47.8447 22.3685 47.8236C22.5665 47.6686 22.7499 47.4995 22.9334 47.3374C23.0874 47.2106 23.1168 47.1754 23.1461 46.9851C23.1755 46.7738 23.2048 46.5835 23.2782 46.3792C23.3662 46.1467 23.4909 45.9423 23.5643 45.7239C23.5643 45.6605 23.5716 45.5901 23.5716 45.5266C23.5716 45.2659 23.5716 45.0334 23.5496 44.808Z" fill="white"/>
<path d="M33 40.3976C33 40.3976 34.2916 40.3697 34.5056 40.3906C34.6016 40.3976 35.6939 40.4254 35.6939 41.6803C35.6939 42.4889 35.3618 42.8375 34.9189 42.9908C34.4761 43.1442 33 43.0396 33 43.0396V40.3976Z" fill="#303333"/>
</g>
</svg>
