<svg width="47" height="46" viewBox="0 0 47 46" fill="none" xmlns="http://www.w3.org/2000/svg">
<g clip-path="url(#clip0_218_613)">
<path d="M25.924 20.896C31.6475 19.5619 35.2 13.8657 33.8586 8.17319C32.5172 2.48069 26.79 -1.05248 21.0665 0.281636C15.3429 1.61575 11.7905 7.31195 13.1319 13.0044C14.4733 18.6969 20.2005 22.2301 25.924 20.896Z" fill="url(#paint0_linear_218_613)"/>
<path d="M23.4968 45.999C30.9842 45.999 38.0471 45.0558 44.2811 43.3936C46.4497 42.8132 47.5904 40.4453 46.6818 38.4071C42.7557 29.5554 33.8492 23.375 23.4968 23.375C13.1445 23.375 4.24454 29.5488 0.311844 38.4005C-0.596721 40.4453 0.543959 42.8132 2.71258 43.387C8.95316 45.0492 16.0095 45.9924 23.4968 45.9924V45.999Z" fill="url(#paint1_linear_218_613)"/>
</g>
<defs>
<linearGradient id="paint0_linear_218_613" x1="28.8227" y1="19.7574" x2="18.2651" y2="1.37101" gradientUnits="userSpaceOnUse">
<stop stop-color="#9188FF"/>
<stop offset="1" stop-color="#FF7CB3"/>
</linearGradient>
<linearGradient id="paint1_linear_218_613" x1="30.3409" y1="51.5396" x2="14.7972" y2="24.4628" gradientUnits="userSpaceOnUse">
<stop stop-color="#3883FF"/>
<stop offset="1" stop-color="#9188FF"/>
</linearGradient>
<clipPath id="clip0_218_613">
<rect width="47" height="46" fill="white"/>
</clipPath>
</defs>
</svg>
