<svg width="51" height="51" viewBox="0 0 51 51" fill="none" xmlns="http://www.w3.org/2000/svg">
<g clip-path="url(#clip0_218_625)">
<path d="M36.3477 9.70228C36.1211 9.70228 35.8946 9.70891 35.668 9.72219C32.2898 3.88887 26.1996 0 19.2433 0C8.61549 0 0 9.09174 0 20.3071C0 31.5224 8.61549 40.6142 19.2433 40.6142H36.3477C44.4368 40.6142 50.9933 33.6925 50.9933 25.1582C50.9933 16.6239 44.4368 9.70228 36.3477 9.70228Z" fill="url(#paint0_linear_218_625)"/>
<path d="M25.4999 51.0005C30.9315 51.0005 35.3348 46.3536 35.3348 40.6214C35.3348 34.8891 30.9315 30.2422 25.4999 30.2422C20.0683 30.2422 15.665 34.8891 15.665 40.6214C15.665 46.3536 20.0683 51.0005 25.4999 51.0005Z" fill="#FFED7D"/>
<path d="M22.415 42.2266L25.5001 45.4784L28.5851 42.2266" stroke="white" stroke-width="3" stroke-miterlimit="10"/>
<path d="M25.5 45.4778V36.041" stroke="white" stroke-width="3" stroke-miterlimit="10"/>
</g>
<defs>
<linearGradient id="paint0_linear_218_625" x1="36.6209" y1="42.6117" x2="12.6726" y2="0.958077" gradientUnits="userSpaceOnUse">
<stop stop-color="#3883FF"/>
<stop offset="1" stop-color="#74F8C2"/>
</linearGradient>
<clipPath id="clip0_218_625">
<rect width="51" height="51" fill="white"/>
</clipPath>
</defs>
</svg>
