<svg width="42" height="43" viewBox="0 0 42 43" fill="none" xmlns="http://www.w3.org/2000/svg">
<g clip-path="url(#clip0_218_659)">
<path d="M37.1241 0H4.87588C2.183 0 0 2.15961 0 4.82362V38.1764C0 40.8404 2.183 43 4.87588 43H37.1241C39.817 43 42 40.8404 42 38.1764V4.82362C42 2.15961 39.817 0 37.1241 0Z" fill="url(#paint0_linear_218_659)"/>
<path d="M38.0748 5.93359H3.92529V24.4575H38.0748V5.93359Z" fill="#3883FF"/>
<path d="M10.8252 29.9551V37.4726" stroke="white" stroke-width="3" stroke-miterlimit="10"/>
<path d="M7.02881 33.7109H14.6217" stroke="white" stroke-width="3" stroke-miterlimit="10"/>
<path d="M34.9714 33.7117C34.9714 32.3769 33.8797 31.2969 32.5304 31.2969C31.1811 31.2969 30.0894 32.3769 30.0894 33.7117C30.0894 35.0466 31.1811 36.1266 32.5304 36.1266C33.8797 36.1266 34.9714 35.0466 34.9714 33.7117Z" fill="white"/>
</g>
<defs>
<linearGradient id="paint0_linear_218_659" x1="34.769" y1="45.0933" x2="7.6737" y2="-2.34611" gradientUnits="userSpaceOnUse">
<stop stop-color="#74F8C2"/>
<stop offset="1" stop-color="#FFED7D"/>
</linearGradient>
<clipPath id="clip0_218_659">
<rect width="42" height="43" fill="white"/>
</clipPath>
</defs>
</svg>
