<svg width="40" height="40" viewBox="0 0 40 40" fill="none" xmlns="http://www.w3.org/2000/svg">
<g clip-path="url(#clip0_218_635)">
<path d="M39.1471 19.6125C41.865 11.9672 37.8705 3.56625 30.2252 0.848397C22.58 -1.86945 14.179 2.12501 11.4611 9.77029C8.74329 17.4156 12.7378 25.8165 20.383 28.5344C28.0283 31.2522 36.4293 27.2578 39.1471 19.6125Z" fill="#3883FF"/>
<path d="M27.8877 9.52734H5.88684C2.63581 9.52734 0 12.1632 0 15.4142V26.4315C0 29.6826 2.63581 32.3184 5.88684 32.3184H12.3945L14.6014 37.7142C15.4367 39.763 18.3378 39.763 19.1731 37.7142L21.38 32.3184H27.8877C31.1387 32.3184 33.7745 29.6826 33.7745 26.4315V15.4142C33.7745 12.1632 31.1387 9.52734 27.8877 9.52734Z" fill="url(#paint0_linear_218_635)"/>
<path d="M11.6384 20.5843C11.6384 19.5684 10.8144 18.75 9.80407 18.75C8.79377 18.75 7.96973 19.574 7.96973 20.5843C7.96973 21.5946 8.79377 22.4187 9.80407 22.4187C10.8144 22.4187 11.6384 21.5946 11.6384 20.5843Z" fill="white"/>
<path d="M18.7214 20.5843C18.7214 19.5684 17.8974 18.75 16.8871 18.75C15.8768 18.75 15.0527 19.574 15.0527 20.5843C15.0527 21.5946 15.8768 22.4187 16.8871 22.4187C17.8974 22.4187 18.7214 21.5946 18.7214 20.5843Z" fill="white"/>
<path d="M25.8054 20.5843C25.8054 19.5684 24.9814 18.75 23.9711 18.75C22.9608 18.75 22.1367 19.574 22.1367 20.5843C22.1367 21.5946 22.9608 22.4187 23.9711 22.4187C24.9814 22.4187 25.8054 21.5946 25.8054 20.5843Z" fill="white"/>
</g>
<defs>
<linearGradient id="paint0_linear_218_635" x1="24.9922" y1="34.9542" x2="8.8105" y2="6.9254" gradientUnits="userSpaceOnUse">
<stop stop-color="#9188FF"/>
<stop offset="1" stop-color="#FF7CB3"/>
</linearGradient>
<clipPath id="clip0_218_635">
<rect width="40" height="39.2437" fill="white"/>
</clipPath>
</defs>
</svg>
