<svg width="40" height="40" viewBox="0 0 40 40" fill="none" xmlns="http://www.w3.org/2000/svg">
<g clip-path="url(#clip0_218_603)">
<path d="M23.9876 0H5.61592C2.51433 0 0 2.51433 0 5.61592V23.9876C0 27.0892 2.51433 29.6035 5.61592 29.6035H23.9876C27.0892 29.6035 29.6035 27.0892 29.6035 23.9876V5.61592C29.6035 2.51433 27.0892 0 23.9876 0Z" fill="#3883FF"/>
<path d="M12.6819 6.28711H33.6047C37.1323 6.28711 39.9995 9.15433 39.9995 12.6819V33.6047C39.9995 37.1323 37.1323 39.9995 33.6047 39.9995H12.6819C9.15433 39.9995 6.28711 37.1323 6.28711 33.6047V12.6819C6.28711 9.15433 9.15433 6.28711 12.6819 6.28711Z" fill="url(#paint0_linear_218_603)"/>
</g>
<defs>
<linearGradient id="paint0_linear_218_603" x1="33.4862" y1="41.055" x2="12.8004" y2="5.22601" gradientUnits="userSpaceOnUse">
<stop stop-color="#74F8C2"/>
<stop offset="1" stop-color="#FFED7D"/>
</linearGradient>
<clipPath id="clip0_218_603">
<rect width="40" height="40" fill="white"/>
</clipPath>
</defs>
</svg>
