<svg width="40" height="40" viewBox="0 0 40 40" fill="none" xmlns="http://www.w3.org/2000/svg">
<g clip-path="url(#clip0_218_674)">
<path d="M32.3408 36.241V3.75899C32.3408 1.68296 30.6579 0 28.5818 0L11.418 0C9.34197 0 7.65901 1.68296 7.65901 3.75899L7.65901 36.241C7.65901 38.317 9.34197 40 11.418 40H28.5818C30.6579 40 32.3408 38.317 32.3408 36.241Z" fill="#3883FF"/>
<path d="M36.241 7.6582H3.75899C1.68296 7.6582 0 9.34116 0 11.4172V28.581C0 30.6571 1.68296 32.34 3.75899 32.34H36.241C38.317 32.34 40 30.6571 40 28.581V11.4172C40 9.34116 38.317 7.6582 36.241 7.6582Z" fill="url(#paint0_linear_218_674)"/>
<path d="M22.9 22.9035C24.5046 21.2989 24.5046 18.6972 22.9 17.0926C21.2953 15.488 18.6937 15.488 17.089 17.0926C15.4844 18.6972 15.4844 21.2989 17.089 22.9035C18.6937 24.5081 21.2953 24.5081 22.9 22.9035Z" stroke="white" stroke-width="3" stroke-miterlimit="10"/>
<path d="M9.877 19.998H5.76807" stroke="white" stroke-width="3" stroke-miterlimit="10"/>
<path d="M34.2313 19.998H30.1167" stroke="white" stroke-width="3" stroke-miterlimit="10"/>
</g>
<defs>
<linearGradient id="paint0_linear_218_674" x1="29.6543" y1="36.7199" x2="10.3457" y2="3.27271" gradientUnits="userSpaceOnUse">
<stop stop-color="#74F8C2"/>
<stop offset="1" stop-color="#FFED7D"/>
</linearGradient>
<clipPath id="clip0_218_674">
<rect width="40" height="40" fill="white"/>
</clipPath>
</defs>
</svg>
