<svg width="40" height="40" viewBox="0 0 40 40" fill="none" xmlns="http://www.w3.org/2000/svg">
<g clip-path="url(#clip0_218_1012)">
<path d="M24.8567 0H2.37048C0.547423 0 -0.587048 1.9698 0.321658 3.54452L6.57536 14.3756C6.99867 15.1094 6.99867 16.0068 6.57536 16.7405L0.321658 27.5716C-0.587048 29.1463 0.547423 31.1161 2.37048 31.1161H24.8567C25.7033 31.1161 26.4822 30.6646 26.9055 29.9365L34.5251 16.7405C34.9484 16.0068 34.9484 15.1094 34.5251 14.3756L26.9055 1.17962C26.4822 0.445887 25.7033 0 24.8567 0Z" fill="url(#paint0_linear_218_1012)"/>
<path d="M37.3079 23.1289H18.9757C17.4888 23.1289 16.2834 24.3343 16.2834 25.8212V36.8329C16.2834 38.3198 17.4888 39.5251 18.9757 39.5251H37.3079C38.7947 39.5251 40.0001 38.3198 40.0001 36.8329V25.8212C40.0001 24.3343 38.7947 23.1289 37.3079 23.1289Z" fill="#3883FF"/>
<path d="M23.7109 31.189L27.3627 34.8407L33.6333 28.5645" stroke="white" stroke-width="3" stroke-miterlimit="10"/>
</g>
<defs>
<linearGradient id="paint0_linear_218_1012" x1="23.3215" y1="32.3748" x2="3.90568" y2="-1.25864" gradientUnits="userSpaceOnUse">
<stop stop-color="#9188FF"/>
<stop offset="1" stop-color="#FF7CB3"/>
</linearGradient>
<clipPath id="clip0_218_1012">
<rect width="40" height="39.5259" fill="white"/>
</clipPath>
</defs>
</svg>
