<svg width="596" height="355" viewBox="0 0 596 355" fill="none" xmlns="http://www.w3.org/2000/svg">
<path d="M0.5 185.499C5.83333 186.499 22.7 187.099 47.5 181.499C54.6667 179.999 72 180.699 84 195.499C90.3333 200.832 110.3 208.998 139.5 198.998L341 197.498C348.833 200.665 366.4 207.298 374 208.498C380 209.998 395.6 209.098 410 193.498C424.5 167.331 441.9 110.398 395.5 91.9981C381.167 92.6648 353.3 109.498 356.5 171.498C357.333 180.165 363.8 197.498 383 197.498C397.5 195.165 427.4 190.898 431 192.498L526 187.998C532 190.998 545.4 196.898 551 196.498C558.5 198.498 574.8 191.998 580 149.998C581.333 135.998 580.5 107.398 566.5 104.998C559.5 105.998 545.9 118.498 547.5 160.498C550.167 173.665 560.9 193.698 582.5 168.498C588.667 153.665 596.8 118.898 580 98.4981C575.667 92.4981 567.5 79.4981 569.5 75.4981C567.833 70.9981 561.2 61.7981 548 60.9981C542.667 58.3314 529.9 50.3981 521.5 39.9981C511.667 27.4981 480.3 2.49808 433.5 2.49808C394.5 0.998083 313.1 -0.00191689 299.5 7.99808C292.167 8.99872 268.9 18.4 234.5 48C227.833 53.3333 214.2 59.9 213 43.5C216.167 38.6667 224 30 230 34C230.5 33.5 239 47 209.5 55C174.833 55.5 106.6 57.3 111 60.5C98.8333 63.1667 73.9 74.6 71.5 99C71.8333 109.5 75.5 124.7 87.5 101.5C87.6667 88.1667 84.1 71.4 68.5 111C60 135.5 55.2 182.8 104 176L244 179C265 184.833 310.4 192.5 324 176.5C331.833 156.333 332.1 121.2 270.5 142C214 153.333 99.1 165.6 91.5 124C87.6667 113 88.7 92.6 123.5 99C166.167 97.8333 251.7 97.9 252.5 107.5L254 119C254.667 121.667 259.6 126.2 274 123C298.667 123 349.2 114.3 354 79.5C352 73.6667 333.6 69.4 276 99C271.833 106.167 270 118.8 296 112C305.667 113.5 332.3 106.1 361.5 64.5C368.667 58.6667 385 47.8 393 51H440C441.667 50.6667 445.4 48.7 447 43.5V23.5C447.333 18.6667 443.9 9.4 427.5 11C391.667 9.5 315.9 7.8 299.5 13C285.667 17.6667 256.9 30.3 252.5 43.5C250.167 47.6667 247.1 56 253.5 56L513.5 57.5C520.5 56.5 528.8 50.5 506 34.5C491.833 23.3333 462.5 5.9 458.5 25.5V142.5C458.833 149.167 463.1 161.5 477.5 157.5C495.833 159.834 532.9 155.602 534.5 120C538.5 104 542.8 71.1 528 67.5C522.5 66.3321 511.1 66.2966 509.5 75.4981C510.333 78.6654 515.7 83.9 530.5 79.5C537.167 76.5 549.9 75.1 547.5 93.5C542.167 120.333 532.7 174.3 537.5 175.5C539.5 188.167 553.6 208.6 594 189C592 241.333 571.6 339.9 506 315.5C476.5 313.333 416 318.1 410 354.5" stroke="url(#paint0_linear_308_3800)" stroke-width="2"/>
<defs>
<linearGradient id="paint0_linear_308_3800" x1="-1.50113e-05" y1="1.00002" x2="592.586" y2="316.943" gradientUnits="userSpaceOnUse">
<stop stop-color="#9C11D7"/>
<stop offset="0.229167" stop-color="#B61FDB"/>
<stop offset="0.484375" stop-color="#CE2DDF"/>
<stop offset="0.744792" stop-color="#62ACF2"/>
<stop offset="1" stop-color="#2BEAFC"/>
</linearGradient>
</defs>
</svg>
