<svg width="622" height="564" viewBox="0 0 622 564" fill="none" xmlns="http://www.w3.org/2000/svg">
<path d="M495.5 563C466.7 535.4 489.5 519.5 504.5 515C527.7 536.2 578.167 514.167 600.5 500.5C644.1 431.7 605.333 406.833 580.5 403C528.5 452.2 512.167 413.167 510.5 387.5L490 382L505 336.5C501.8 341.7 489.333 349.333 483.5 352.5C477.9 350.1 451.833 381.5 439.5 397.5L406 430C394 449.2 383.333 456.667 379.5 458C384.3 425.2 367.167 382 358 364.5C376.8 370.1 384.167 423.5 385.5 449.5C387.9 449.5 400.167 433.5 406 425.5L434 398.5C438.8 387.7 463.667 363.333 475.5 352.5C466.3 352.1 461.333 337.333 460 330C466 344.4 475.167 348 479 348C492.6 348 502 336 505 330L511.5 312L530 314.5L510.5 382L513.5 383C519 363.333 530 323.6 530 322C530 320.4 533 319.333 534.5 319L533.5 314.5L538.5 316.5C536.9 314.9 544.5 310.167 548.5 308C552.83 308 557.971 301.333 560 298V286C584 276.399 574.667 261.666 567 255.5C584.6 235.9 572.667 224.667 564.5 221.5C585.3 207.5 569.5 195.667 559 191.5L568.5 164.5L555 161.5L570.5 160L606.5 66L600 60.5C602.4 62.9 607 62.1667 609 61.5C624.2 53.1 612.667 46.3333 605 44C599.8 41.2 594.833 49.5 593 54C549.4 16.4 506.5 18 490.5 23.5C440.5 38.7 400 15.5 386 2C366 18.8 365 53 367 68C372.6 101.2 360 126.167 353 134.5C354.2 138.5 389.167 148.5 406.5 153C428.1 156.999 446.833 154.666 453.5 153C480.7 137.8 519.167 151.333 535 160C540.6 162.8 547 162.833 549.5 162.5L539.5 193.5H550L556 198L559 194.5C575.4 200.5 572.5 211 569 215.5C573 209.429 567.333 203.637 564 201.5C561.6 200.3 560 204.333 559.5 206.5C564.232 209.301 566.472 214.333 567 216.5C552.6 223.3 552.333 208.666 554 200.5C549.2 205.7 551.333 213.333 553 216.5L549.5 217V221C552.7 219.8 559.5 221.166 562.5 222C583.7 236.8 569.667 249.833 560 254.5C589 226 548.5 218 549.5 224C550.3 228.8 546.167 235.333 544 238H550C545.2 243.2 542.667 240.833 542 239C542 241.4 530.667 249 525 252.5C526.833 252.166 529.4 251.8 525 253C520.6 254.2 519.167 259.833 519 262.5C521.4 274.1 533.667 270.333 539.5 267C530.3 271.4 523.667 265.833 521.5 262.5V259C518.7 257.8 531 255.166 537.5 254C541.1 255.2 542 261.833 542 265L554.5 257.5C566.9 256.3 570 264 570 268C572 278.8 557.5 284.5 550 286C574.4 276.8 568.833 265.166 563 260.5H557.5C549.1 268.5 534 271.5 527.5 272C520.3 272.4 513.167 277.166 510.5 279.5L523.5 277C533.046 282.6 527.477 290.333 523.5 293.5L514 294C509.6 294 511.5 291.333 513 290L522 289.5C528 287.5 526.5 282.333 525 280L509 281C502.6 285 506.333 290 509 292C505.8 292 503.667 297 503 299.5C502.6 304.3 510.167 306.5 514 307C521.6 307 524.167 300.666 524.5 297.5C519 305.5 513 305 508 302.5C504 300.5 506 297.333 507.5 296H521.5L530 291H549.5L557.5 287V295.5C556.5 303.5 535.5 311.5 535.5 311C535.5 310.6 512.5 309.833 501 309.5C497.8 306.3 499.667 294.833 501 289.5L505 277.5L494.5 293.5L501 275.5C499 271.1 502.833 257 505 250.5C501.8 250.9 501 246 501 243.5C501.4 246.699 504.833 246.166 506.5 245.5L513.5 238.5C516.3 236.9 515.667 230.166 515 227C518.6 231.8 524.167 229 526.5 227L513.5 261C511.5 265 511.333 272.333 511.5 275.5L531.5 227C539.1 226.2 544.333 212.332 546 205.499C550 202.832 555.8 199.099 547 205.499C536 213.498 525.5 217.5 524 214.5C522.8 212.099 524.5 208.833 525.5 207.5L526.5 212C528.9 213.6 538.5 208.332 543 205.499C551.8 195.099 546 195.165 542 196.499L521 206.5C509.4 206.1 499.5 213.667 496 217.5L468.5 239.5L467.5 247L455.5 263.499C455.5 259.499 455.5 253.999 455.5 263.999C455.5 273.999 448.167 285.832 444.5 290.499L387.5 337.999C361.9 363.599 337.5 363.333 328.5 359.999C284.5 339.999 270 368.999 261.5 377.499C253 385.999 241.5 386.499 238 386.499C234.5 386.499 220 379.999 218 374.499C216.4 370.099 184 359.999 184 359.999C144.167 350 62.9 335.3 56.5 356.5C39.3333 364 4.2 373.7 1 352.5" stroke="url(#paint0_linear_308_3795)" stroke-width="2"/>
<defs>
<linearGradient id="paint0_linear_308_3795" x1="1" y1="2" x2="527.5" y2="563" gradientUnits="userSpaceOnUse">
<stop stop-color="#A214D8"/>
<stop offset="0.255208" stop-color="#B51FDB"/>
<stop offset="0.510417" stop-color="#CF2DDF"/>
<stop offset="0.75" stop-color="#6BA1F1"/>
<stop offset="1" stop-color="#2AEBFC"/>
</linearGradient>
</defs>
</svg>
