<svg width="591" height="394" viewBox="0 0 591 394" fill="none" xmlns="http://www.w3.org/2000/svg">
<path d="M590.5 324.499C513.5 328.666 329.2 326.399 208 283.999C180.666 271.333 124.1 233.499 116.5 183.499C108.9 133.499 114.666 162.666 118.5 183.499C112.333 169.499 104.1 130.299 120.5 85.4991C130.167 64.3324 160.1 19.4991 202.5 9.49906C255.833 -7.50094 368.2 -6.50095 391 133.499C390.667 134.333 388.5 134.3 382.5 127.5C368.833 90.5 323.1 17.1 249.5 19.5C222 20.6667 161.7 36 140.5 88C138.5 95 138.7 109.5 155.5 111.5C193 105.167 278.7 96.3 321.5 111.5C324.667 112.667 333.6 113.7 344 108.5C351.5 106.833 367.3 109.498 370.5 133.499C371.167 147.999 369 181 355 197C351.5 197 343.2 196.2 338 193C314.5 180.833 279.4 153.1 327 139.5C343.5 136 378.6 133.1 387 149.5C386.667 173.667 375.2 228.201 332 253C317.667 264.167 277.3 284.9 230.5 278.5C212.833 274.5 176.2 261.4 171 241C169.333 229.333 177.5 204.7 223.5 199.5C248.667 196 304.6 195.9 327 223.5C328.667 230.833 319.3 248.8 268.5 262H232C202.833 254.833 141.4 224.6 129 161C127 154.5 126.5 140.4 140.5 136C154.5 131.6 147.333 134.167 142 136C156 135.833 186.7 139.6 197.5 156C208.3 172.4 202 163.833 197.5 157.5V167C188 177.833 158.1 201 114.5 207C78.5 212.667 5.7 231.6 2.5 262C4 286.833 39.8 338.6 171 347C197.167 351.667 244.3 367.2 223.5 392" stroke="url(#paint0_linear_308_3798)" stroke-width="4"/>
<defs>
<linearGradient id="paint0_linear_308_3798" x1="590" y1="1.99999" x2="2.00003" y2="443" gradientUnits="userSpaceOnUse">
<stop stop-color="#D47273"/>
<stop offset="0.229167" stop-color="#AF6A81"/>
<stop offset="0.484375" stop-color="#8A618F"/>
<stop offset="0.744792" stop-color="#65589D"/>
<stop offset="1" stop-color="#3C4EAC"/>
</linearGradient>
</defs>
</svg>
