<svg width="622" height="264" viewBox="0 0 622 264" fill="none" xmlns="http://www.w3.org/2000/svg">
<path d="M621.5 171.5C585.833 172.334 514.5 173.1 514.5 169.5C512.833 165.334 508.5 156.3 504.5 153.5C497.833 149 490.2 135.2 513 116C525.333 110.5 551.2 93.1003 556 67.5003C558.833 51.667 555.4 17.1003 519 5.50032C502.5 -0.666348 464.2 -1.69968 443 43.5003C442 48.3335 441.3 58.5 446.5 60.5C450.166 63 459.4 65.7 467 56.5C474.333 45.8333 493.1 27.7 509.5 40.5C516.833 44.3333 527.1 57.9 509.5 81.5C498.5 88.8333 476.5 105.1 476.5 111.5C473 120.167 471.2 138.8 492 144C500 145.167 516.2 150.9 517 164.5C518.5 170 517 182.9 499 190.5C493.833 192.167 482.5 192.1 478.5 178.5C476.833 171.5 478 157.1 496 155.5C506.166 156.833 522.9 165.4 508.5 189C504.666 191 495.6 194.8 490 194H425.5C407.5 195.5 370.4 189.501 366 153.5C360.5 108.5 365 49.5 372.5 53H398C400 52.8332 403.9 51.5997 403.5 48C404.5 43.5 404.8 35.1 398 37.5H317C314.5 38.0002 309.9 39.9006 311.5 43.5003C311 47.3335 311.4 54.6 317 53H345C346.333 52.6667 348.9 53.3 348.5 58.5V157.5C334.666 154.834 306.8 150.301 306 153.5C292.333 136 265.7 100 268.5 96C280.166 76.1666 304 37.1997 306 40C304.166 39.1667 297.3 37.5 284.5 37.5C276 54.3333 258.3 87.3 255.5 84.5C245.333 70.5 225.4 41.5 227 37.5C219.333 37.1666 204.6 37.1997 207 40C220.666 58.1667 247 95.1 243 97.5C232 118.167 209 158.301 205 153.5C209.166 155.5 219.4 158.301 227 153.5C235.5 137.834 253.1 107.2 255.5 110C265.666 123.167 285.3 150.301 282.5 153.5C252.166 157.167 192 162.6 194 155C194.833 150.667 195.4 141.9 191 141.5L140 140.5C139.167 140.667 137.4 140 137 136V106.5C137.167 105.167 138.5 102.7 142.5 103.5H187.5C188 103.833 189.1 103.7 189.5 100.5V92C189.5 91.1667 188.7 89.6 185.5 90H139C138.333 89.8333 137 88.6 137 85V53.5C137.5 52.5 138.8 50.7 140 51.5H191C191.667 51.3333 193 50.4 193 48V39.5C192.833 38.8333 191.6 37.6 188 38H124C122.667 38.1667 120.4 39 122 41V157.5L95.5 155L94 38H79.5V129L17.5 38H2V155H15.5L17.5 66L79.5 155C94.8333 177 131.5 216.3 155.5 197.5C159.833 194.833 165.9 186.3 155.5 173.5C145.333 170.5 127.4 169.7 137 190.5C146.667 201.667 173.3 219.8 202.5 203C208.333 202.5 217.4 198.7 207 187.5C199.667 184.667 185.9 183.3 189.5 200.5C190.667 206.167 201.2 215.8 234 209C239.667 207.833 248.3 203.2 237.5 194C225.833 195.167 209.5 201.2 237.5 216C250.167 222.167 275.3 235.9 274.5 241.5H260L282.5 261L304 241.5H288.5C277 230 251.7 206.8 242.5 206" stroke="url(#paint0_linear_314_110)" stroke-width="3"/>
<defs>
<linearGradient id="paint0_linear_314_110" x1="311.75" y1="2.42969" x2="311.75" y2="261" gradientUnits="userSpaceOnUse">
<stop stop-color="#DE9494"/>
<stop offset="0.265625" stop-color="#B16A81"/>
<stop offset="0.546875" stop-color="#886090"/>
<stop offset="0.786458" stop-color="#5D56A0"/>
<stop offset="1" stop-color="#4651A9"/>
</linearGradient>
</defs>
</svg>
