<svg width="16" height="18" viewBox="0 0 16 18" fill="none" xmlns="http://www.w3.org/2000/svg">
<path d="M13.5225 9.56906C13.5082 7.29128 15.4295 6.19406 15.5149 6.1385C14.419 4.58295 12.7255 4.37462 12.1278 4.36073C10.7046 4.22184 9.32416 5.19406 8.59835 5.19406C7.87255 5.19406 6.74826 4.37462 5.53858 4.40239C3.98735 4.43017 2.54997 5.30517 1.753 6.65239C0.116381 9.41628 1.34029 13.4857 2.90575 15.7218C3.68849 16.8191 4.61353 18.0413 5.80898 17.9996C6.99019 17.9579 7.41714 17.2635 8.84029 17.2635C10.2634 17.2635 10.6619 17.9996 11.8858 17.9718C13.1524 17.9579 13.9352 16.8746 14.7037 15.7635C15.6145 14.5135 15.9703 13.2774 15.9845 13.2079C15.956 13.2079 13.5367 12.2913 13.5082 9.56906H13.5225Z" fill="white"/>
<path d="M11.2175 2.88889C11.8436 2.125 12.2848 1.06944 12.1567 0C11.2459 0.0416667 10.0932 0.611111 9.43851 1.375C8.85502 2.04167 8.32846 3.125 8.47077 4.15278C9.49544 4.22222 10.5486 3.65278 11.2175 2.88889Z" fill="white"/>
</svg>
