<svg width="19" height="23" viewBox="0 0 19 23" fill="none" xmlns="http://www.w3.org/2000/svg">
<g clip-path="url(#clip0_218_211)">
<path d="M15.8631 12.2271C15.8451 9.31664 18.2787 7.91463 18.3869 7.84364C16.9988 5.85599 14.8537 5.58979 14.0965 5.57204C12.2939 5.39457 10.5453 6.63685 9.62595 6.63685C8.7066 6.63685 7.2825 5.58979 5.75024 5.62528C3.78534 5.66077 1.96466 6.77883 0.955171 8.50028C-1.11788 12.0319 0.432401 17.2318 2.41532 20.089C3.40678 21.491 4.57851 23.0527 6.09274 22.9995C7.58895 22.9463 8.12975 22.0589 9.9324 22.0589C11.7351 22.0589 12.2398 22.9995 13.7901 22.964C15.3945 22.9463 16.3859 21.562 17.3593 20.1423C18.513 18.545 18.9637 16.9656 18.9817 16.8768C18.9457 16.8768 15.8812 15.7055 15.8451 12.2271H15.8631Z" fill="white"/>
<path d="M12.9435 3.69136C13.7366 2.71528 14.2955 1.36651 14.1332 0C12.9795 0.0532407 11.5194 0.780864 10.6902 1.75694C9.95106 2.6088 9.28408 3.99306 9.46434 5.30633C10.7623 5.39506 12.0962 4.66744 12.9435 3.69136Z" fill="white"/>
</g>
<defs>
<clipPath id="clip0_218_211">
<rect width="19" height="23" fill="white"/>
</clipPath>
</defs>
</svg>
