<svg width="19" height="23" viewBox="0 0 19 23" fill="none" xmlns="http://www.w3.org/2000/svg">
<path d="M15.8547 12.2271C15.8367 9.31664 18.269 7.91463 18.3771 7.84365C16.9898 5.85599 14.8458 5.58979 14.0891 5.57204C12.2874 5.39457 10.5397 6.63685 9.62084 6.63685C8.70197 6.63685 7.27863 5.58979 5.74718 5.62528C3.78332 5.66077 1.9636 6.77883 0.954651 8.50028C-1.11731 12.0319 0.432157 17.2318 2.41403 20.089C3.40497 21.491 4.57607 23.0528 6.0895 22.9995C7.58492 22.9463 8.12543 22.0589 9.92713 22.0589C11.7288 22.0589 12.2333 22.9995 13.7828 22.964C15.3863 22.9463 16.3772 21.562 17.3501 20.1423C18.5032 18.545 18.9537 16.9656 18.9717 16.8768C18.9356 16.8768 15.8728 15.7055 15.8367 12.2271H15.8547Z" fill="black"/>
<path d="M12.9367 3.69136C13.7295 2.71528 14.288 1.36651 14.1259 0C12.9728 0.0532407 11.5134 0.780864 10.6846 1.75694C9.94591 2.6088 9.27928 3.99306 9.45945 5.30633C10.7567 5.39506 12.0899 4.66744 12.9367 3.69136Z" fill="black"/>
</svg>
