<svg width="16" height="18" viewBox="0 0 16 18" fill="none" xmlns="http://www.w3.org/2000/svg">
<path d="M12.5459 9.56906C12.5317 7.29128 14.4529 6.19406 14.5383 6.1385C13.4425 4.58295 11.7489 4.37462 11.1512 4.36073C9.72805 4.22184 8.3476 5.19406 7.62179 5.19406C6.89599 5.19406 5.7717 4.37462 4.56202 4.40239C3.01079 4.43017 1.5734 5.30517 0.776441 6.65239C-0.860182 9.41628 0.363727 13.4857 1.92919 15.7218C2.71192 16.8191 3.63697 18.0413 4.83242 17.9996C6.01363 17.9579 6.44058 17.2635 7.86373 17.2635C9.28688 17.2635 9.68536 17.9996 10.9093 17.9718C12.1759 17.9579 12.9586 16.8746 13.7271 15.7635C14.6379 14.5135 14.9937 13.2774 15.0079 13.2079C14.9795 13.2079 12.5601 12.2913 12.5317 9.56906H12.5459Z" fill="black"/>
<path d="M10.2409 2.88889C10.8671 2.125 11.3083 1.06944 11.1802 0C10.2694 0.0416667 9.1166 0.611111 8.46195 1.375C7.87846 2.04167 7.35189 3.125 7.49421 4.15278C8.51888 4.22222 9.57201 3.65278 10.2409 2.88889Z" fill="black"/>
</svg>
