<svg width="707" height="282" viewBox="0 0 707 282" fill="none" xmlns="http://www.w3.org/2000/svg">
<path d="M36.1296 248.973C20.6843 248.973 8.16335 220.896 8.16335 186.262C8.16335 151.628 20.6843 123.551 36.1296 123.551C51.5748 123.551 64.0957 151.628 64.0957 186.262C64.0957 220.896 51.5748 248.973 36.1296 248.973Z" stroke="url(#paint0_linear_293_3306)" stroke-width="3" stroke-linecap="round" stroke-linejoin="round"/>
<path d="M385.277 142.12C386.137 145.035 390.899 161.266 392.976 168.179C393.585 170.306 393.941 171.434 393.941 171.434C393.941 171.434 478.134 175.518 483.924 174.199C489.714 172.88 511.869 153.671 511.869 153.671L506.792 153.054C485.938 150.48 407.641 140.865 399.564 140.163C390.249 139.334 384.144 138.355 385.277 142.12Z" stroke="url(#paint1_linear_293_3306)" stroke-width="3" stroke-linecap="round" stroke-linejoin="round"/>
<path d="M385.277 142.12C386.137 145.035 390.899 161.266 392.976 168.179C405.564 168.881 475.994 172.71 481.239 171.519C485.854 170.477 500.897 158.053 506.792 153.054C485.938 150.48 407.641 140.865 399.564 140.163C390.249 139.334 384.144 138.355 385.277 142.12Z" stroke="url(#paint2_linear_293_3306)" stroke-width="3" stroke-linecap="round" stroke-linejoin="round"/>
<path d="M390.815 161.223C395.976 162.563 403.802 163.35 404.431 162.797C405.061 162.244 400.235 150.799 398.788 147.14C398.737 147.026 398.719 146.899 398.733 146.774C398.748 146.65 398.795 146.531 398.87 146.431C398.945 146.331 399.045 146.254 399.16 146.206C399.274 146.159 399.399 146.143 399.522 146.162L418.635 148.289C419.245 148.354 419.835 148.548 420.367 148.86C420.898 149.171 421.359 149.593 421.719 150.097L428.348 159.436C429.276 160.744 430.454 161.848 431.814 162.681C433.173 163.515 434.685 164.061 436.258 164.286L437.37 164.456L430.614 149.565L497.309 156.904C497.309 156.904 481.763 168.817 476.833 169.179C471.902 169.54 391.885 164.818 391.885 164.818L390.815 161.223Z" stroke="url(#paint3_linear_293_3306)" stroke-width="3" stroke-linecap="round" stroke-linejoin="round"/>
<path d="M530.562 159.756L519.841 175.221C519.363 175.927 519.04 176.73 518.895 177.574C518.75 178.418 518.787 179.285 519.002 180.113L530.94 225.721C531.598 228.234 533.058 230.454 535.093 232.036C537.127 233.618 539.621 234.472 542.185 234.464C558.339 234.464 592.096 234.23 607.789 233.507C625.244 232.699 653.63 231.21 668.127 229.614C670.111 229.402 671.966 228.518 673.393 227.105C674.82 225.693 675.737 223.834 675.995 221.829L680.463 176.603C680.617 175.087 680.441 173.554 679.948 172.113C679.455 170.673 678.657 169.359 677.61 168.265L667.519 157.628C665.305 155.331 662.293 154.002 659.127 153.927C647.483 153.927 618.636 153.608 605.334 153.927C590.04 154.374 545.877 156.352 534.422 157.437C533.649 157.507 532.901 157.751 532.233 158.153C531.565 158.554 530.994 159.102 530.562 159.756Z" stroke="url(#paint4_linear_293_3306)" stroke-width="3" stroke-linecap="round" stroke-linejoin="round"/>
<path d="M511.869 153.672L535.178 157.458" stroke="#808AED" stroke-width="3" stroke-linecap="round" stroke-linejoin="round"/>
<path d="M691.058 133.271C691.058 133.271 683.547 144.886 662.903 154.544" stroke="#34DFFA" stroke-width="3" stroke-linecap="round" stroke-linejoin="round"/>
<path d="M690.366 134.25C692.83 139.288 694.839 144.543 696.366 149.949C698.107 157.033 700.772 161.755 697.331 163.755C693.843 165.675 690.165 167.215 686.358 168.35" stroke="#18FFFF" stroke-width="3" stroke-linecap="round" stroke-linejoin="round"/>
<path d="M669.386 151.289C669.386 151.289 678.176 159.479 682.393 164.053C686.61 168.626 686.589 168.498 686.358 173.519C686.358 177.603 684.491 209.214 683.82 220.68C683.794 221.191 683.884 221.702 684.082 222.173C684.281 222.644 684.583 223.063 684.965 223.398C685.348 223.732 685.801 223.974 686.29 224.104C686.778 224.233 687.29 224.248 687.785 224.147C691.981 223.296 697.918 221.531 700.373 218.233C703.394 214.319 701.317 166.435 698.925 160.798" stroke="#4AC7F6" stroke-width="3" stroke-linecap="round" stroke-linejoin="round"/>
<path d="M478.93 176.817L491.35 226.148C491.54 226.924 491.549 227.734 491.376 228.515C491.203 229.295 490.854 230.023 490.355 230.643C489.856 231.262 489.222 231.755 488.502 232.082C487.783 232.41 486.998 232.563 486.21 232.53L410.683 229.169C409.117 229.1 407.619 228.501 406.429 227.467C405.239 226.434 404.424 225.026 404.116 223.468L393.794 171.414L475.825 174.35C476.538 174.359 477.228 174.606 477.789 175.052C478.35 175.497 478.751 176.118 478.93 176.817Z" stroke="url(#paint5_linear_293_3306)" stroke-width="3" stroke-linecap="round" stroke-linejoin="round"/>
<path d="M464.643 173.965H466.741C467.721 174.011 468.66 174.378 469.416 175.01C470.173 175.643 470.706 176.508 470.937 177.475L481.972 223.657C482.112 224.233 482.118 224.834 481.99 225.413C481.863 225.991 481.605 226.532 481.238 226.993C480.87 227.455 480.403 227.824 479.871 228.071C479.34 228.319 478.76 228.439 478.175 228.422L448.908 227.593" stroke="url(#paint6_linear_293_3306)" stroke-width="3" stroke-linecap="round" stroke-linejoin="round"/>
<path d="M442.342 173.52C444.465 175.537 445.929 178.165 446.538 181.05C447.524 185.028 452.999 210.236 455.538 221.999C455.69 222.709 455.679 223.445 455.506 224.15C455.333 224.855 455.002 225.51 454.54 226.065C454.078 226.62 453.496 227.059 452.84 227.35C452.184 227.641 451.47 227.776 450.755 227.743L405.249 225.85" stroke="url(#paint7_linear_293_3306)" stroke-width="3" stroke-linecap="round" stroke-linejoin="round"/>
<path d="M438.292 227.232H441.041C441.364 227.241 441.685 227.175 441.979 227.038C442.273 226.901 442.532 226.696 442.735 226.441C442.938 226.185 443.081 225.886 443.151 225.565C443.221 225.245 443.216 224.912 443.139 224.594L432.817 174.561C432.727 174.123 432.493 173.73 432.154 173.444C431.815 173.158 431.39 172.997 430.949 172.987L428.096 172.859" stroke="#AC58E5" stroke-width="3" stroke-linecap="round" stroke-linejoin="round"/>
<path d="M405.711 171.754C408.4 173.63 410.359 176.398 411.249 179.582C412.047 183.539 417.166 213.129 418.886 223.148C418.956 223.544 418.937 223.952 418.83 224.339C418.723 224.727 418.532 225.086 418.27 225.388C418.008 225.69 417.682 225.929 417.316 226.086C416.951 226.244 416.555 226.316 416.159 226.296L412.928 226.169" stroke="#B74BE3" stroke-width="3" stroke-linecap="round" stroke-linejoin="round"/>
<path d="M388.213 152.033L340.862 148.141" stroke="#CC33E0" stroke-width="3" stroke-linecap="round" stroke-linejoin="round"/>
<path d="M266.341 188.133C266.662 182.431 267.286 176.75 268.209 171.115C274.733 132.272 298.105 125.656 307.252 127.613C316.399 129.57 338.344 137.143 347.114 181.879C355.884 226.615 355.779 245.696 359.702 254.695C359.702 254.695 415.697 256.567 442.887 255.758C442.887 255.758 458.517 245.803 465.105 244.356C471.692 242.91 589.956 240.144 614.062 238.974C637.308 237.783 684.638 236.847 697.981 234.252C698.361 234.178 698.754 234.25 699.084 234.455C699.414 234.66 699.657 234.982 699.765 235.358C700.552 237.876 701.017 240.485 701.149 243.122C701.149 243.122 706.206 231.997 705.345 227.126C704.485 222.254 704.632 222.063 702.849 219.17C702.849 219.17 707.989 157.097 689.359 130.379C670.729 103.66 649.413 93.2369 617.754 94.8748C617.754 94.8748 589.159 89.4929 570.843 87.706C570.843 87.706 510.421 35.6524 482.224 23.1867C454.027 10.7211 390.081 0.55283 334.169 2.16954C278.258 3.78624 222.661 9.33835 195.346 17.8048C168.03 26.2712 114.699 45.1824 63.2773 79.0694C63.2773 79.0694 46.4934 79.7289 38.3742 83.1325C30.255 86.536 20.8559 91.2373 18.9258 93.3645C16.9956 95.4917 6.96728 109.404 2.8762 147.29C-1.21487 185.176 10.345 210.363 10.345 210.363L8.89744 200.407C8.89744 200.407 0.505473 175.54 5.16301 151.821C9.82054 128.102 18.1705 113.829 31.6606 112.978C45.1506 112.127 60.7178 131.187 66.9698 175.646C73.2218 220.106 75.005 227.615 75.005 227.615L272.468 248.887" stroke="url(#paint8_linear_293_3306)" stroke-width="3" stroke-linecap="round" stroke-linejoin="round"/>
<path d="M701.191 243.123C701.191 243.123 700.583 245.633 695.464 244.399C692.725 244.249 689.978 244.363 687.261 244.74C686.002 245.314 685.582 247.463 681.554 247.59C677.526 247.718 589.243 251.441 566.815 253.057C544.388 254.674 516.296 256.801 495.316 256.801C479.266 256.801 458.14 255.461 442.74 255.674" stroke="url(#paint9_linear_293_3306)" stroke-width="3" stroke-linecap="round" stroke-linejoin="round"/>
<path d="M567.549 87.2174C567.549 87.2174 507.19 36.4188 485.602 26.6122C464.014 16.8056 412.991 15.8483 388.213 16.3376C364.443 16.8268 307.651 18.1883 284.929 23.8893C284.594 23.9754 284.281 24.1355 284.014 24.3582C283.747 24.581 283.531 24.8609 283.383 25.178C283.234 25.495 283.157 25.8413 283.156 26.1922C283.155 26.5431 283.23 26.8899 283.377 27.2078C287.258 35.7168 299.741 63.371 307.923 87.9832C308.215 88.8769 308.778 89.6544 309.532 90.2045C310.285 90.7546 311.191 91.0493 312.119 91.0464C332.68 90.5997 443.999 88.1959 459.734 88.1959C477.168 88.1959 556.934 87.2174 567.549 87.2174Z" stroke="url(#paint10_linear_293_3306)" stroke-width="3" stroke-linecap="round" stroke-linejoin="round"/>
<path d="M261.81 86.1318C272.74 87.1742 282.643 88.2591 290.783 89.4929C290.783 89.4929 275.237 38.8432 264.097 28.8239C252.201 18.1877 224.235 18.1877 192.451 28.2495C165.177 36.9287 135.805 51.7769 128.063 55.7761C126.799 56.4391 125.65 57.3087 124.665 58.35L108.804 74.9C108.598 75.1183 108.459 75.392 108.403 75.6883C108.346 75.9846 108.375 76.2911 108.486 76.5713C108.596 76.8515 108.784 77.0936 109.026 77.2687C109.268 77.4438 109.555 77.5446 109.853 77.5591C118.685 77.8569 143.421 78.729 172.792 80.1968C184.247 80.7499 195.87 81.3881 208.081 82.1326" stroke="url(#paint11_linear_293_3306)" stroke-width="3" stroke-linecap="round" stroke-linejoin="round"/>
<path d="M178.918 23.166C173.829 27.208 169.555 32.2059 166.33 37.8865C166.33 37.8865 155.693 46.5232 148.204 79.0062C143.724 82.3371 139.603 86.1375 135.909 90.3444C130.989 95.5217 127.702 102.069 126.469 109.149C126.469 109.149 119.105 126.55 120.909 138.292C122.713 150.035 135.847 201.578 135.847 201.578C135.847 201.578 107.167 196.685 97.2855 186.432C87.404 176.179 79.4526 134.123 78.8442 126.55C78.2358 118.977 77.1659 112.872 83.4179 111.659C89.6699 110.447 195.912 104.81 254.446 109.702C254.446 109.702 191.863 114.914 135.742 122.466" stroke="url(#paint12_linear_293_3306)" stroke-width="3" stroke-linecap="round" stroke-linejoin="round"/>
<path d="M120.972 139.122C120.972 139.122 91.1593 136.08 86.9843 135.272C82.8093 134.464 79.935 133.145 78.5923 125.316" stroke="#A616D9" stroke-width="3" stroke-linecap="round" stroke-linejoin="round"/>
<path d="M126.469 109.148C129.105 113.902 132.25 118.346 135.847 122.401C135.721 132.548 138.134 155.267 139.225 164.074C140.315 172.881 142.225 184.07 140.672 189.197C139.12 194.323 135.847 201.577 135.847 201.577C135.847 201.577 137.945 210.384 138.91 213.554" stroke="#AD1AD9" stroke-width="3" stroke-linecap="round" stroke-linejoin="round"/>
<path d="M70.8722 202.535C70.8722 202.535 215.403 226.105 267.475 233.933" stroke="url(#paint13_linear_293_3306)" stroke-width="3" stroke-linecap="round" stroke-linejoin="round"/>
<path d="M135.784 201.578C135.784 201.578 190.205 213.959 260.593 226.509" stroke="url(#paint14_linear_293_3306)" stroke-width="3" stroke-linecap="round" stroke-linejoin="round"/>
<path d="M288.706 89.4922C288.706 89.4922 279.055 99.9157 276.328 102.256C273.601 104.596 272.468 105.106 271.02 106.51C269.572 107.914 262.628 125.145 261.222 141.525C259.817 157.904 258.096 208.384 261.222 232.613" stroke="#C125DD" stroke-width="3" stroke-linecap="round" stroke-linejoin="round"/>
<path d="M157.036 112.148H144.448C144.308 112.15 144.17 112.19 144.05 112.265C143.93 112.34 143.833 112.447 143.768 112.573C143.704 112.7 143.674 112.842 143.683 112.985C143.692 113.127 143.739 113.264 143.819 113.382L147.05 118.083C147.244 118.377 147.517 118.609 147.836 118.752C148.156 118.895 148.509 118.943 148.854 118.891L156.868 117.891C157.012 117.889 157.153 117.857 157.284 117.799C157.416 117.741 157.534 117.657 157.634 117.552C157.733 117.448 157.811 117.324 157.863 117.189C157.916 117.054 157.941 116.909 157.938 116.764L157.624 112.68C157.628 112.603 157.615 112.527 157.586 112.456C157.557 112.385 157.513 112.321 157.456 112.27C157.4 112.219 157.333 112.182 157.26 112.16C157.187 112.139 157.111 112.135 157.036 112.148Z" stroke="#AE1ADA" stroke-width="3" stroke-linecap="round" stroke-linejoin="round"/>
<path d="M472.637 135.909C466.427 131.028 459.774 126.754 452.769 123.146C449.328 121.231 445.741 119.657 442.279 117.934C438.817 116.211 435.083 114.871 431.474 113.318C416.848 107.625 401.81 103.087 386.493 99.7463L375.017 97.2999L363.436 95.3854L357.646 94.4282C355.716 94.1516 353.765 93.9602 351.814 93.7049L340.149 92.3435C332.365 91.5564 324.561 91.1735 316.756 90.5566L293.28 89.9397C293.142 89.9368 293.005 89.9616 292.877 90.0124C292.748 90.0633 292.631 90.1393 292.532 90.2361C292.432 90.3329 292.353 90.4486 292.298 90.5766C292.242 90.7046 292.213 90.8423 292.21 90.982C292.204 91.1207 292.226 91.2591 292.274 91.3891C292.322 91.5191 292.395 91.6381 292.488 91.7392C292.582 91.8402 292.695 91.9212 292.82 91.9775C292.945 92.0338 293.08 92.0642 293.217 92.0669L316.609 92.4285C324.393 92.9391 332.176 93.2369 339.939 93.9389L351.583 95.1727C353.513 95.3854 355.464 95.5556 357.394 95.8109L363.185 96.7043L374.745 98.4699L386.221 100.789C401.511 103.955 416.536 108.322 431.16 113.85C434.768 115.36 438.44 116.743 442.006 118.338C445.573 119.934 449.139 121.551 452.496 123.422C459.584 126.929 466.328 131.11 472.637 135.909Z" fill="url(#paint15_linear_293_3306)"/>
<path d="M295.734 91.0457C295.734 91.0457 280.629 48.8412 272.195 35.5246C263.761 22.2081 250.733 18.7832 235.082 18.7832C219.431 18.7832 193.122 23.8035 170.254 34.5461" stroke="url(#paint16_linear_293_3306)" stroke-width="3" stroke-linecap="round" stroke-linejoin="round"/>
<path d="M381.5 105.298C372.465 103.048 363.29 101.42 354.037 100.427C344.794 99.3671 335.499 98.8486 326.197 98.8739C323.868 98.8739 321.54 98.8739 319.211 98.8739C316.882 98.8739 314.553 98.8739 312.224 99.1292C307.588 99.4908 302.93 99.7248 298.315 100.384C289.043 101.458 279.844 103.099 270.768 105.298C270.49 105.36 270.248 105.532 270.094 105.775C269.941 106.019 269.889 106.314 269.95 106.596C270.011 106.878 270.18 107.124 270.42 107.279C270.66 107.435 270.952 107.488 271.23 107.425C280.205 105.069 289.313 103.264 298.504 102.022C303.077 101.299 307.693 100.98 312.308 100.512C314.616 100.342 316.945 100.257 319.253 100.129C321.561 100.001 323.889 99.895 326.197 99.895C335.475 99.693 344.756 100.034 353.995 100.916C363.251 101.739 372.441 103.203 381.5 105.298Z" fill="url(#paint17_linear_293_3306)"/>
<path d="M705.408 227.125C698.304 230.812 690.415 232.675 682.435 232.55C682.435 232.55 625.307 235.783 591.089 237.017C556.871 238.251 458.538 241.91 433.215 237.017C407.893 232.124 407.473 232.763 404.431 224.424" stroke="url(#paint18_linear_293_3306)" stroke-width="3" stroke-linecap="round" stroke-linejoin="round"/>
<path d="M455.58 241.654C455.58 241.654 399.816 243.356 360.52 237.399C360.52 237.399 350.702 169.2 339.54 144.971C328.211 120.337 305.553 108.978 284.112 128.825C262.67 148.672 262.167 182.219 262.649 201.151C262.875 212.075 263.835 222.97 265.523 233.762" stroke="url(#paint19_linear_293_3306)" stroke-width="3" stroke-linecap="round" stroke-linejoin="round"/>
<path d="M278.636 142.865H273.286L261.181 142.078" stroke="#C125DD" stroke-width="3" stroke-linecap="round" stroke-linejoin="round"/>
<path d="M265.418 164.288L260.048 162.16C260.048 162.16 183.45 148.865 137.63 150.014" stroke="url(#paint20_linear_293_3306)" stroke-width="3" stroke-linecap="round" stroke-linejoin="round"/>
<path d="M260.593 226.508C260.593 226.508 254.97 216.234 239.046 211.852C223.123 207.47 141.154 183.24 141.154 183.24" stroke="url(#paint21_linear_293_3306)" stroke-width="3" stroke-linecap="round" stroke-linejoin="round"/>
<path d="M271.02 245.377C271.02 245.377 114.867 229.508 78.215 225.04C78.215 225.04 71.5434 166.711 65.4382 148.141C59.3331 129.57 49.0529 106.447 34.9125 104.809C20.7721 103.171 7.11417 122.784 2.93918 145.886" stroke="url(#paint22_linear_293_3306)" stroke-width="3" stroke-linecap="round" stroke-linejoin="round"/>
<path d="M79.6626 132.824L58.9764 131.016L53.8364 130.441" stroke="#A415D8" stroke-width="3" stroke-linecap="round" stroke-linejoin="round"/>
<path d="M13.3032 126.869L9.67368 125.316L6.58964 124.295" stroke="#9A0FD7" stroke-width="3" stroke-linecap="round" stroke-linejoin="round"/>
<path d="M93.1108 61.0508C93.1108 61.0508 52.8295 61.7953 39.822 66.3689C39.822 66.3689 27.9263 75.9628 23.2688 83.791L31.472 80.3662C31.472 80.3662 42.3815 70.4319 45.4446 68.9641C48.5076 67.4963 69.4036 65.5818 87.719 64.0927" stroke="url(#paint23_linear_293_3306)" stroke-width="3" stroke-linecap="round" stroke-linejoin="round"/>
<path d="M78.9492 69.2207L42.3184 73.6454C41.6818 73.7332 41.0841 74.0066 40.598 74.4324L34.304 79.8144C33.8672 80.1715 33.3879 80.4716 32.8774 80.7078C30.5906 81.6651 24.0449 84.4092 23.919 84.3879C23.6696 84.2042 23.4314 84.0053 23.2057 83.7923" stroke="#A012D8" stroke-width="3" stroke-linecap="round" stroke-linejoin="round"/>
<path d="M69.3403 70.3906C69.3403 70.3906 68.69 70.6034 68.69 72.0924V75.5598" stroke="#9E12D8" stroke-width="3" stroke-linecap="round" stroke-linejoin="round"/>
<path d="M57.8014 71.7734C57.8014 71.7734 58.6616 71.9649 58.6616 74.0071V79.3677" stroke="#9A10D7" stroke-width="3" stroke-linecap="round" stroke-linejoin="round"/>
<path d="M156.974 52.2871C156.974 52.2871 133.896 54.4144 126.406 56.8181" stroke="#A817D9" stroke-width="3" stroke-linecap="round" stroke-linejoin="round"/>
<path d="M671.61 153.374C671.61 153.374 681.554 148.439 684.429 145.078C686.254 142.951 687.785 140.824 688.625 139.611C688.721 139.471 688.85 139.356 689 139.277C689.149 139.198 689.316 139.156 689.485 139.156C689.654 139.156 689.82 139.198 689.97 139.277C690.12 139.356 690.248 139.471 690.345 139.611C694.44 145.674 697.333 152.488 698.863 159.671" stroke="url(#paint24_linear_293_3306)" stroke-width="3" stroke-linecap="round" stroke-linejoin="round"/>
<path d="M691.058 140.547C691.058 140.547 698.422 159.543 694.562 161.33C690.702 163.117 683.841 165.585 683.841 165.585" stroke="#41D0F7" stroke-width="3" stroke-linecap="round" stroke-linejoin="round"/>
<path d="M260.383 94.6405L249.348 101.299C248.604 101.765 247.746 102.008 246.872 102.001H240.851C240.504 102.001 240.171 101.863 239.923 101.616C239.676 101.369 239.535 101.034 239.529 100.682V94.1725H247.145C247.45 94.1734 247.754 94.1304 248.047 94.0449L259.46 90.5137L260.74 93.3642C260.849 93.5835 260.873 93.8365 260.807 94.073C260.741 94.3095 260.59 94.5121 260.383 94.6405Z" stroke="url(#paint25_linear_293_3306)" stroke-width="3" stroke-linecap="round" stroke-linejoin="round"/>
<path d="M259.46 90.5141C260.822 88.0218 261.617 85.2529 261.789 82.4093C261.699 80.9817 261.524 79.561 261.265 78.1548C261.07 77.0234 260.679 75.9359 260.111 74.9427C258.264 71.7092 253.208 63.9874 246.201 62.4557C237.977 60.6476 218.298 66.2635 210.325 73.092C209.222 74.0462 208.523 75.3945 208.374 76.8572L208.102 79.4524C207.917 81.1383 208.35 82.8342 209.318 84.2174L211.815 87.77C212.098 88.1733 212.464 88.5096 212.888 88.7557C213.312 89.0017 213.783 89.1517 214.27 89.1952C222.709 90.0133 231.202 90.0987 239.655 89.4505C239.851 89.7648 239.968 90.1226 239.998 90.4931C240.027 90.8636 239.967 91.2358 239.823 91.5777C239.481 92.3586 239.379 93.2259 239.529 94.0666" stroke="url(#paint26_linear_293_3306)" stroke-width="3" stroke-linecap="round" stroke-linejoin="round"/>
<path d="M191.024 28.6953C191.024 28.6953 178.436 55.456 172.771 80.1959" stroke="#AB18D9" stroke-width="3" stroke-linecap="round" stroke-linejoin="round"/>
<path d="M281.909 63.6465L273.454 87.3227" stroke="#C025DC" stroke-width="3" stroke-linecap="round" stroke-linejoin="round"/>
<path d="M569.333 86.4302C569.333 86.4302 574.305 79.8783 571.766 74.5177C569.228 69.157 563.941 66.0087 559.598 64.1154C555.255 62.2222 546.8 57.7337 546.024 67.1787" stroke="#8385EC" stroke-width="3" stroke-linecap="round" stroke-linejoin="round"/>
<path d="M320.931 133.441C289.461 135.569 264.432 167.605 264.432 206.704C264.432 245.802 281.321 277.754 312.686 280.094C313.924 280.2 354.121 280.094 355.38 280.094C373.213 280.094 383.954 270.564 390.081 255.418" stroke="url(#paint27_linear_293_3306)" stroke-width="3" stroke-linecap="round" stroke-linejoin="round"/>
<path d="M333.037 144.972C327.228 141.373 320.563 139.446 313.756 139.398C286.482 139.398 264.432 170.903 264.432 209.746C264.432 248.59 286.524 280.094 313.756 280.094C332.302 280.094 348.457 265.501 356.891 243.931" stroke="url(#paint28_linear_293_3306)" stroke-width="3" stroke-linecap="round" stroke-linejoin="round"/>
<path d="M341.135 161.053C333.603 151.757 323.889 146.162 313.294 146.162C289.335 146.162 269.908 174.774 269.908 209.979C269.908 245.185 289.335 273.797 313.294 273.797C332.953 273.797 349.569 254.524 354.876 228.104" stroke="url(#paint29_linear_293_3306)" stroke-width="3" stroke-linecap="round" stroke-linejoin="round"/>
<path d="M34.7658 241.888C21.0585 241.888 9.94657 217.335 9.94657 187.047C9.94657 156.76 21.0585 132.207 34.7658 132.207C48.4731 132.207 59.585 156.76 59.585 187.047C59.585 217.335 48.4731 241.888 34.7658 241.888Z" stroke="url(#paint30_linear_293_3306)" stroke-width="3" stroke-linecap="round" stroke-linejoin="round"/>
<path d="M106.391 231.018C99.9918 244.462 90.7606 253.035 80.4805 253.354H40.6187C22.7019 253.354 8.16284 223.253 8.16284 186.133C8.16284 149.012 22.7019 118.891 40.6187 118.891C42.6051 118.888 44.575 119.256 46.4302 119.976" stroke="url(#paint31_linear_293_3306)" stroke-width="3" stroke-linecap="round" stroke-linejoin="round"/>
<path d="M674.232 247.867C670.016 254.181 664.457 259.457 657.966 263.308C651.475 267.158 644.215 269.485 636.72 270.118V270.246H612.615C605.756 269.969 599.03 268.246 592.864 265.188C586.698 262.13 581.228 257.803 576.802 252.483" stroke="url(#paint32_linear_293_3306)" stroke-width="3" stroke-linecap="round" stroke-linejoin="round"/>
<defs>
<linearGradient id="paint0_linear_293_3306" x1="8" y1="168.5" x2="64" y2="186" gradientUnits="userSpaceOnUse">
<stop stop-color="#9A0FD7"/>
<stop offset="1" stop-color="#A314D8"/>
</linearGradient>
<linearGradient id="paint1_linear_293_3306" x1="394" y1="135.5" x2="503.5" y2="169" gradientUnits="userSpaceOnUse">
<stop stop-color="#C13FE1"/>
<stop offset="1" stop-color="#8682EC"/>
</linearGradient>
<linearGradient id="paint2_linear_293_3306" x1="389" y1="136.5" x2="501.5" y2="165" gradientUnits="userSpaceOnUse">
<stop stop-color="#C53CE1"/>
<stop offset="1" stop-color="#8682EC"/>
</linearGradient>
<linearGradient id="paint3_linear_293_3306" x1="391" y1="143" x2="501" y2="171.5" gradientUnits="userSpaceOnUse">
<stop stop-color="#C33EE1"/>
<stop offset="1" stop-color="#8682EC"/>
</linearGradient>
<linearGradient id="paint4_linear_293_3306" x1="519" y1="160.5" x2="678" y2="223" gradientUnits="userSpaceOnUse">
<stop stop-color="#808AED"/>
<stop offset="1" stop-color="#27EEFC"/>
</linearGradient>
<linearGradient id="paint5_linear_293_3306" x1="387.5" y1="177.5" x2="498" y2="207" gradientUnits="userSpaceOnUse">
<stop stop-color="#C041E2"/>
<stop offset="1" stop-color="#8287EC"/>
</linearGradient>
<linearGradient id="paint6_linear_293_3306" x1="442" y1="176.5" x2="486" y2="186.5" gradientUnits="userSpaceOnUse">
<stop stop-color="#AD56E5"/>
<stop offset="1" stop-color="#8781EB"/>
</linearGradient>
<linearGradient id="paint7_linear_293_3306" x1="392.5" y1="174" x2="462" y2="191.5" gradientUnits="userSpaceOnUse">
<stop stop-color="#C042E2"/>
<stop offset="0.909456" stop-color="#996CE8"/>
</linearGradient>
<linearGradient id="paint8_linear_293_3306" x1="17.5" y1="46.5" x2="709.5" y2="227.5" gradientUnits="userSpaceOnUse">
<stop stop-color="#9A0FD7"/>
<stop offset="0.5" stop-color="#D12EDF"/>
<stop offset="0.989583" stop-color="#D12EDF"/>
<stop offset="1" stop-color="#1CFAFE"/>
</linearGradient>
<linearGradient id="paint9_linear_293_3306" x1="466.5" y1="185.5" x2="701" y2="250" gradientUnits="userSpaceOnUse">
<stop stop-color="#9571E9"/>
<stop offset="1" stop-color="#1AFCFE"/>
</linearGradient>
<linearGradient id="paint10_linear_293_3306" x1="283" y1="24" x2="564.5" y2="98.5" gradientUnits="userSpaceOnUse">
<stop stop-color="#BE24DC"/>
<stop offset="1" stop-color="#6F9CF0"/>
</linearGradient>
<linearGradient id="paint11_linear_293_3306" x1="126.5" y1="30" x2="291" y2="84.5" gradientUnits="userSpaceOnUse">
<stop stop-color="#A415D8"/>
<stop offset="1" stop-color="#C125DD"/>
</linearGradient>
<linearGradient id="paint12_linear_293_3306" x1="81.5" y1="87.5" x2="254" y2="148.5" gradientUnits="userSpaceOnUse">
<stop stop-color="#A013D8"/>
<stop offset="1" stop-color="#BF24DC"/>
</linearGradient>
<linearGradient id="paint13_linear_293_3306" x1="72" y1="201" x2="265" y2="235.5" gradientUnits="userSpaceOnUse">
<stop stop-color="#A214D8"/>
<stop offset="1" stop-color="#C326DD"/>
</linearGradient>
<linearGradient id="paint14_linear_293_3306" x1="136" y1="199" x2="261" y2="230.5" gradientUnits="userSpaceOnUse">
<stop stop-color="#AD1ADA"/>
<stop offset="1" stop-color="#C326DD"/>
</linearGradient>
<linearGradient id="paint15_linear_293_3306" x1="288.5" y1="90" x2="473.5" y2="138" gradientUnits="userSpaceOnUse">
<stop stop-color="#C125DD"/>
<stop offset="1" stop-color="#986EE9"/>
</linearGradient>
<linearGradient id="paint16_linear_293_3306" x1="170" y1="28" x2="298.5" y2="91" gradientUnits="userSpaceOnUse">
<stop stop-color="#A917D9"/>
<stop offset="1" stop-color="#C427DD"/>
</linearGradient>
<linearGradient id="paint17_linear_293_3306" x1="263.5" y1="98.9999" x2="370.5" y2="129" gradientUnits="userSpaceOnUse">
<stop stop-color="#BD23DC"/>
<stop offset="1" stop-color="#CD32DF"/>
</linearGradient>
<linearGradient id="paint18_linear_293_3306" x1="400" y1="181" x2="693" y2="263.5" gradientUnits="userSpaceOnUse">
<stop stop-color="#B350E4"/>
<stop offset="0.522041" stop-color="#66A6F1"/>
<stop offset="1" stop-color="#1AFCFE"/>
</linearGradient>
<linearGradient id="paint19_linear_293_3306" x1="260.5" y1="152.5" x2="465" y2="242" gradientUnits="userSpaceOnUse">
<stop stop-color="#C125DC"/>
<stop offset="1" stop-color="#9176EA"/>
</linearGradient>
<linearGradient id="paint20_linear_293_3306" x1="138" y1="141" x2="257.5" y2="172" gradientUnits="userSpaceOnUse">
<stop stop-color="#AC19DA"/>
<stop offset="1" stop-color="#C125DD"/>
</linearGradient>
<linearGradient id="paint21_linear_293_3306" x1="141" y1="183" x2="261" y2="219.5" gradientUnits="userSpaceOnUse">
<stop stop-color="#AE1BDA"/>
<stop offset="1" stop-color="#C326DD"/>
</linearGradient>
<linearGradient id="paint22_linear_293_3306" x1="3.00001" y1="143" x2="271" y2="219.5" gradientUnits="userSpaceOnUse">
<stop stop-color="#9A0FD7"/>
<stop offset="1" stop-color="#C427DD"/>
</linearGradient>
<linearGradient id="paint23_linear_293_3306" x1="27" y1="61" x2="88" y2="77.5" gradientUnits="userSpaceOnUse">
<stop stop-color="#9E11D8"/>
<stop offset="1" stop-color="#A113D8"/>
</linearGradient>
<linearGradient id="paint24_linear_293_3306" x1="665.5" y1="144" x2="701.5" y2="156.5" gradientUnits="userSpaceOnUse">
<stop stop-color="#3ED4F8"/>
<stop offset="1" stop-color="#26EEFC"/>
</linearGradient>
<linearGradient id="paint25_linear_293_3306" x1="236.5" y1="96" x2="257" y2="104.5" gradientUnits="userSpaceOnUse">
<stop stop-color="#BA21DC"/>
<stop offset="1" stop-color="#BE23DC"/>
</linearGradient>
<linearGradient id="paint26_linear_293_3306" x1="204.5" y1="86" x2="262" y2="99.5" gradientUnits="userSpaceOnUse">
<stop stop-color="#B41EDB"/>
<stop offset="1" stop-color="#BE23DC"/>
</linearGradient>
<linearGradient id="paint27_linear_293_3306" x1="267.5" y1="175" x2="395.5" y2="235.5" gradientUnits="userSpaceOnUse">
<stop stop-color="#C226DD"/>
<stop offset="1" stop-color="#B44EE4"/>
</linearGradient>
<linearGradient id="paint28_linear_293_3306" x1="266.5" y1="177" x2="346" y2="197" gradientUnits="userSpaceOnUse">
<stop stop-color="#C127DD"/>
<stop offset="1" stop-color="#CF2DDE"/>
</linearGradient>
<linearGradient id="paint29_linear_293_3306" x1="275" y1="173.5" x2="371.5" y2="202.5" gradientUnits="userSpaceOnUse">
<stop stop-color="#C427DD"/>
<stop offset="1" stop-color="#C33DE1"/>
</linearGradient>
<linearGradient id="paint30_linear_293_3306" x1="10" y1="180.5" x2="60" y2="193" gradientUnits="userSpaceOnUse">
<stop stop-color="#990FD7"/>
<stop offset="1" stop-color="#A013D8"/>
</linearGradient>
<linearGradient id="paint31_linear_293_3306" x1="8" y1="218" x2="106" y2="249" gradientUnits="userSpaceOnUse">
<stop stop-color="#9A0FD7"/>
<stop offset="1" stop-color="#AA18D9"/>
</linearGradient>
<linearGradient id="paint32_linear_293_3306" x1="580" y1="244.5" x2="672" y2="269.5" gradientUnits="userSpaceOnUse">
<stop stop-color="#54BBF4"/>
<stop offset="1" stop-color="#22F3FD"/>
</linearGradient>
</defs>
</svg>
