<svg width="283" height="627" viewBox="0 0 283 627" fill="none" xmlns="http://www.w3.org/2000/svg">
<path d="M191.758 3.39844L206.083 19.4571C183.071 11.6898 141.131 11.4198 141.131 11.4198" stroke="#D37274" stroke-width="4" stroke-miterlimit="10"/>
<path d="M251.358 194.799L246.578 195.625C246.578 195.625 226.616 264.895 223.71 311.895C220.804 358.912 221.63 419.223 227.871 445.018C233.127 466.779 237.955 477.469 241.957 479.852C243.751 480.916 246.038 479.312 246.181 477.215C247.086 463.475 250.469 411.074 251.358 381.371C252.39 346.983 251.358 198.468 251.358 194.783L251.358 194.799Z" stroke="url(#paint0_linear_286_3072)" stroke-width="4" stroke-miterlimit="10"/>
<path d="M247.404 332.354L247.404 228.918L239.924 229.95C239.924 229.95 233.683 252.41 227.998 291.659C225.774 307.003 225.076 324.841 224.552 345.347L247.404 332.338L247.404 332.354Z" stroke="url(#paint1_linear_286_3072)" stroke-width="4" stroke-miterlimit="10"/>
<path d="M206.082 19.4555L243.751 57.8151C244.085 58.1646 244.545 58.3552 245.022 58.3552L248.261 58.3552C248.738 58.3552 249.055 57.8628 248.865 57.4339C246.499 52.3193 233.667 27.3656 204.78 17.9941L206.082 19.4555Z" stroke="url(#paint2_linear_286_3072)" stroke-width="4" stroke-miterlimit="10"/>
<path d="M206.082 9.11523C206.082 9.11523 232.349 26.937 243.624 48.2214" stroke="#D57373" stroke-width="4" stroke-miterlimit="10"/>
<path d="M244.069 58.3555C244.069 58.3555 253.645 87.2642 255.312 130.532C256.964 173.8 259.044 286.433 258.218 350.556C257.393 414.679 257.932 492.368 253.438 534.269C251.199 555.204 243.973 581.683 243.973 581.683" stroke="url(#paint3_linear_286_3072)" stroke-width="4" stroke-miterlimit="10"/>
<path d="M213.149 605.334L212.323 611.72C212.323 611.72 231.46 606.319 244.767 590.642C244.767 590.642 247.547 580.937 248.928 574.281C248.928 574.281 242.687 585.654 232.841 593.008C223.614 599.902 218.707 603.682 213.149 605.35L213.149 605.334Z" stroke="url(#paint4_linear_286_3072)" stroke-width="4" stroke-miterlimit="10"/>
<path d="M206.082 19.457C206.082 19.457 242.401 79.7841 251.342 194.8" stroke="url(#paint5_linear_286_3072)" stroke-width="4" stroke-miterlimit="10"/>
<path d="M181.261 22.3633C181.261 22.3633 202.922 56.8949 204.78 141.763C204.78 141.763 198.317 66.457 181.261 22.3633Z" stroke="url(#paint6_linear_286_3072)" stroke-width="4" stroke-miterlimit="10"/>
<path d="M221.058 543.912C221.058 543.912 220.502 568.596 213.149 605.335" stroke="url(#paint7_linear_286_3072)" stroke-width="4" stroke-miterlimit="10"/>
<path d="M204.494 613.625L202.779 626.666" stroke="#3B4EAC" stroke-width="4" stroke-miterlimit="10"/>
<path d="M223.869 416.555C223.869 416.555 228.014 467.637 230.221 493.703C232.428 519.768 234.922 521.166 230.618 553.331C226.314 585.496 225.203 598.632 225.203 598.632" stroke="url(#paint8_linear_286_3072)" stroke-width="4" stroke-miterlimit="10"/>
<path d="M246.245 475.977C246.245 475.977 245.212 501.756 241.179 532.539C237.145 563.322 232.841 592.993 232.841 592.993" stroke="url(#paint9_linear_286_3072)" stroke-width="4" stroke-miterlimit="10"/>
<path d="M90.5029 3.39844L76.1786 19.4571C99.1896 11.6898 141.13 11.4198 141.13 11.4198" stroke="#D47273" stroke-width="4" stroke-miterlimit="10"/>
<path d="M30.9028 194.799L35.6829 195.625C35.6829 195.625 55.6449 264.895 58.551 311.895C61.4572 358.912 60.6314 419.223 54.3903 445.018C49.1338 466.779 44.3061 477.469 40.3041 479.852C38.5096 480.916 36.2228 479.312 36.0799 477.215C35.1747 463.475 31.7921 411.074 30.9028 381.371C29.8706 346.983 30.9028 198.468 30.9028 194.783L30.9028 194.799Z" stroke="url(#paint10_linear_286_3072)" stroke-width="4" stroke-miterlimit="10"/>
<path d="M34.8572 332.354L34.8572 228.918L42.337 229.95C42.337 229.95 48.5781 252.41 54.2634 291.659C56.4867 307.003 57.1854 324.841 57.7095 345.347L34.8414 332.338L34.8572 332.354Z" stroke="url(#paint11_linear_286_3072)" stroke-width="4" stroke-miterlimit="10"/>
<path d="M37.0486 429.627C35.794 399.479 35.254 369.109 35.0317 350.557L57.9951 355.957C57.9951 356.386 58.011 356.815 58.0269 357.26C58.8527 391.505 56.3912 416.538 53.0086 434.424L37.0486 429.627Z" stroke="url(#paint12_linear_286_3072)" stroke-width="4" stroke-miterlimit="10"/>
<path d="M52.04 439.205C48.0222 458.107 43.1151 467.971 40.8442 471.799C40.4631 472.45 39.4626 472.212 39.3991 471.465C38.5256 459.918 37.8269 447.306 37.2552 434.52L52.04 439.205Z" stroke="url(#paint13_linear_286_3072)" stroke-width="4" stroke-miterlimit="10"/>
<path d="M76.1788 19.4555L38.5099 57.8151C38.1764 58.1646 37.7158 58.3552 37.2394 58.3552L33.9998 58.3552C33.5233 58.3552 33.2057 57.8628 33.3963 57.4339C35.7625 52.3193 48.5941 27.3656 77.481 17.9941L76.1788 19.4555Z" stroke="url(#paint14_linear_286_3072)" stroke-width="4" stroke-miterlimit="10"/>
<path d="M76.1787 9.11523C76.1787 9.11523 49.9121 26.937 38.6369 48.2214" stroke="#D57373" stroke-width="4" stroke-miterlimit="10"/>
<path d="M38.1923 58.3555C38.1923 58.3555 28.6163 87.2642 26.9488 130.532C25.2972 173.8 23.2169 286.433 24.0427 350.556C24.8684 414.663 24.3285 492.367 28.8227 534.269C31.0619 555.204 38.2876 581.683 38.2876 581.683" stroke="url(#paint15_linear_286_3072)" stroke-width="4" stroke-miterlimit="10"/>
<path d="M69.1117 605.334L69.9375 611.72C69.9375 611.72 50.8013 606.319 37.4934 590.642C37.4934 590.642 34.7142 580.937 33.3326 574.281C33.3326 574.281 39.5737 585.654 49.4197 593.008C58.6464 599.902 63.5535 603.682 69.1117 605.35L69.1117 605.334Z" stroke="url(#paint16_linear_286_3072)" stroke-width="4" stroke-miterlimit="10"/>
<path d="M76.1787 19.457C76.1787 19.457 39.8597 79.7841 30.9189 194.8" stroke="url(#paint17_linear_286_3072)" stroke-width="4" stroke-miterlimit="10"/>
<path d="M101 22.3633C101 22.3633 79.3388 56.8949 77.4808 141.763C77.4808 141.763 83.9442 66.457 101 22.3633Z" stroke="url(#paint18_linear_286_3072)" stroke-width="4" stroke-miterlimit="10"/>
<path d="M68.0634 451.928C71.3984 396.175 70.0803 340.883 68.4128 313.182C66.7454 285.48 45.2588 205.187 42.1462 191.463C39.0336 177.74 41.114 170.449 71.8907 157.551C102.667 144.653 141.146 145.479 141.146 145.479C141.146 145.479 179.625 144.653 210.402 157.551C241.178 170.449 243.259 177.724 240.146 191.463C237.033 205.187 215.531 285.48 213.879 313.182C212.212 340.883 210.862 396.191 214.197 451.944" stroke="url(#paint19_linear_286_3072)" stroke-width="4" stroke-miterlimit="10"/>
<path d="M141.131 464.3C122.185 464.3 92.5359 462.363 66.4757 451.26C66.4757 451.26 58.1543 510.062 61.2033 543.895C61.2033 543.895 87.6764 563.035 141.131 563.035C194.585 563.035 221.058 543.895 221.058 543.895C224.107 510.062 215.785 451.26 215.785 451.26C189.725 462.347 160.076 464.3 141.131 464.3Z" stroke="url(#paint20_linear_286_3072)" stroke-width="4" stroke-miterlimit="10"/>
<path d="M141.131 558.873C96.903 558.873 71.4781 545.34 65.1734 541.512C63.1407 514.271 68.0161 471.877 69.89 457.121C94.6003 466.429 121.963 468.462 141.131 468.462C160.298 468.462 187.661 466.429 212.371 457.121C214.245 471.877 219.12 514.271 217.088 541.512C210.815 545.324 185.39 558.873 141.146 558.873L141.131 558.873Z" stroke="url(#paint21_linear_286_3072)" stroke-width="4" stroke-miterlimit="10"/>
<path d="M61.2033 543.912C61.2033 543.912 61.7591 568.596 69.1118 605.335" stroke="url(#paint22_linear_286_3072)" stroke-width="4" stroke-miterlimit="10"/>
<path d="M69.9374 611.721C69.9374 611.721 99.5707 618.789 141.13 618.789C182.69 618.789 212.323 611.721 212.323 611.721" stroke="#3B4EAC" stroke-width="4" stroke-miterlimit="10"/>
<path d="M77.7668 613.625L79.4819 626.666" stroke="#3A4EAD" stroke-width="4" stroke-miterlimit="10"/>
<path d="M58.3921 416.555C58.3921 416.555 54.2472 467.637 52.0398 493.703C49.8324 519.768 47.3392 521.166 51.6428 553.331C55.9465 585.496 57.0581 598.632 57.0581 598.632" stroke="url(#paint23_linear_286_3072)" stroke-width="4" stroke-miterlimit="10"/>
<path d="M36.0167 475.977C36.0167 475.977 37.0489 501.756 41.0826 532.539C45.1163 563.322 49.4199 592.993 49.4199 592.993" stroke="url(#paint24_linear_286_3072)" stroke-width="4" stroke-miterlimit="10"/>
<path d="M41.956 190.637C41.956 190.637 59.1865 155.486 141.131 155.486C223.075 155.486 240.305 190.637 240.305 190.637" stroke="#AC6982" stroke-width="4" stroke-miterlimit="10"/>
<path d="M94.3462 2C87.2793 6.79694 101.207 5.52622 117.627 4.0649C134.064 2.60359 148.197 2.60359 164.618 4.06491C181.054 5.52623 194.966 6.79694 187.899 2" stroke="#D47273" stroke-width="4" stroke-miterlimit="10"/>
<path d="M96.8394 5.38281C96.8394 5.38281 86.6757 10.2909 81.054 17.9946C81.054 17.9946 49.0228 70.2051 35.6989 195.64" stroke="url(#paint25_linear_286_3072)" stroke-width="4" stroke-miterlimit="10"/>
<path d="M234.302 192.098C232.841 186.062 218.851 179.2 199.159 171.719C179.467 164.238 155.789 163.682 141.131 163.682C126.473 163.682 102.795 164.238 83.1028 171.719C63.4109 179.2 49.42 186.078 47.959 192.098C46.498 198.134 63.7602 268.023 63.7602 268.023C63.7602 268.023 94.7433 257.206 141.115 257.206C187.486 257.206 218.469 268.023 218.469 268.023C218.469 268.023 235.732 198.134 234.271 192.098L234.302 192.098Z" stroke="url(#paint26_linear_286_3072)" stroke-width="4" stroke-miterlimit="10"/>
<path d="M61.8223 273.631C61.8223 273.631 138.685 247.422 220.216 273.631" stroke="#93638C" stroke-width="4" stroke-miterlimit="10"/>
<path d="M246.562 208.951L246.562 223.088L253.581 224.756C254.598 224.994 255.312 225.899 255.312 226.948L255.312 227.583C255.312 228.377 255.805 229.108 256.567 229.378L279.483 237.78C279.864 237.923 280.261 237.638 280.261 237.24L280.261 233.873C280.261 229.298 277.704 225.105 273.654 222.993L246.578 208.951L246.562 208.951Z" stroke="#9A5877" stroke-width="4" stroke-miterlimit="10"/>
<path d="M35.6987 208.951L35.6987 223.088L28.6795 224.756C27.6631 224.994 26.9485 225.899 26.9485 226.948L26.9485 227.583C26.9485 228.377 26.4562 229.108 25.6939 229.378L2.77817 237.78C2.39703 237.923 2.00001 237.638 2.00001 237.24L2.00001 233.873C2.00001 229.298 4.5568 225.105 8.60636 222.993L35.6829 208.951L35.6987 208.951Z" stroke="#9A5877" stroke-width="4" stroke-miterlimit="10"/>
<defs>
<linearGradient id="paint0_linear_286_3072" x1="252" y1="190" x2="252" y2="484.5" gradientUnits="userSpaceOnUse">
<stop stop-color="#9A5877"/>
<stop offset="1" stop-color="#5E5199"/>
</linearGradient>
<linearGradient id="paint1_linear_286_3072" x1="247" y1="233" x2="236" y2="351.5" gradientUnits="userSpaceOnUse">
<stop stop-color="#9E6687"/>
<stop offset="1" stop-color="#7C5D94"/>
</linearGradient>
<linearGradient id="paint2_linear_286_3072" x1="253" y1="61" x2="208" y2="11" gradientUnits="userSpaceOnUse">
<stop stop-color="#C36E7A"/>
<stop offset="1" stop-color="#D27274"/>
</linearGradient>
<linearGradient id="paint3_linear_286_3072" x1="244" y1="65" x2="251" y2="571" gradientUnits="userSpaceOnUse">
<stop offset="0.0518506" stop-color="#C06E7B"/>
<stop offset="1" stop-color="#4651A8"/>
</linearGradient>
<linearGradient id="paint4_linear_286_3072" x1="254" y1="568.5" x2="212" y2="612" gradientUnits="userSpaceOnUse">
<stop stop-color="#4550A9"/>
<stop offset="1" stop-color="#3B4EAC"/>
</linearGradient>
<linearGradient id="paint5_linear_286_3072" x1="217.5" y1="23" x2="222.5" y2="200" gradientUnits="userSpaceOnUse">
<stop stop-color="#D17275"/>
<stop offset="1" stop-color="#A56785"/>
</linearGradient>
<linearGradient id="paint6_linear_286_3072" x1="181" y1="22" x2="213.5" y2="142" gradientUnits="userSpaceOnUse">
<stop stop-color="#D17275"/>
<stop offset="1" stop-color="#B16A80"/>
</linearGradient>
<linearGradient id="paint7_linear_286_3072" x1="221" y1="544" x2="208.5" y2="605" gradientUnits="userSpaceOnUse">
<stop stop-color="#4D52A6"/>
<stop offset="1" stop-color="#3C4EAC"/>
</linearGradient>
<linearGradient id="paint8_linear_286_3072" x1="228" y1="417" x2="224" y2="599" gradientUnits="userSpaceOnUse">
<stop stop-color="#6C5A9A"/>
<stop offset="1" stop-color="#404FAA"/>
</linearGradient>
<linearGradient id="paint9_linear_286_3072" x1="249.5" y1="476" x2="237" y2="593" gradientUnits="userSpaceOnUse">
<stop stop-color="#5E569F"/>
<stop offset="1" stop-color="#404FAA"/>
</linearGradient>
<linearGradient id="paint10_linear_286_3072" x1="37" y1="199.5" x2="39" y2="480" gradientUnits="userSpaceOnUse">
<stop stop-color="#A46785"/>
<stop offset="1" stop-color="#5F579F"/>
</linearGradient>
<linearGradient id="paint11_linear_286_3072" x1="39.5" y1="229" x2="46" y2="348.5" gradientUnits="userSpaceOnUse">
<stop stop-color="#9D6588"/>
<stop offset="1" stop-color="#805E93"/>
</linearGradient>
<linearGradient id="paint12_linear_286_3072" x1="50" y1="351" x2="47" y2="434" gradientUnits="userSpaceOnUse">
<stop stop-color="#7D5E94"/>
<stop offset="1" stop-color="#69599B"/>
</linearGradient>
<linearGradient id="paint13_linear_286_3072" x1="45" y1="438.5" x2="42.5" y2="467.5" gradientUnits="userSpaceOnUse">
<stop stop-color="#68599B"/>
<stop offset="1" stop-color="#60579F"/>
</linearGradient>
<linearGradient id="paint14_linear_286_3072" x1="80.5" y1="18" x2="36" y2="64" gradientUnits="userSpaceOnUse">
<stop stop-color="#D17275"/>
<stop offset="1" stop-color="#C66F79"/>
</linearGradient>
<linearGradient id="paint15_linear_286_3072" x1="37.9996" y1="61.5" x2="37.9998" y2="575" gradientUnits="userSpaceOnUse">
<stop stop-color="#C76F78"/>
<stop offset="1" stop-color="#4550A9"/>
</linearGradient>
<linearGradient id="paint16_linear_286_3072" x1="33" y1="566" x2="70" y2="618" gradientUnits="userSpaceOnUse">
<stop stop-color="#4951A7"/>
<stop offset="1" stop-color="#3B4EAC"/>
</linearGradient>
<linearGradient id="paint17_linear_286_3072" x1="76" y1="22.5" x2="31" y2="192" gradientUnits="userSpaceOnUse">
<stop stop-color="#D07175"/>
<stop offset="1" stop-color="#A56785"/>
</linearGradient>
<linearGradient id="paint18_linear_286_3072" x1="101" y1="22" x2="77" y2="142" gradientUnits="userSpaceOnUse">
<stop stop-color="#D07175"/>
<stop offset="1" stop-color="#B16A80"/>
</linearGradient>
<linearGradient id="paint19_linear_286_3072" x1="139" y1="142" x2="139" y2="458.5" gradientUnits="userSpaceOnUse">
<stop stop-color="#B26A80"/>
<stop offset="1" stop-color="#62579E"/>
</linearGradient>
<linearGradient id="paint20_linear_286_3072" x1="151" y1="461.5" x2="155.5" y2="568" gradientUnits="userSpaceOnUse">
<stop stop-color="#64589D"/>
<stop offset="1" stop-color="#4751A8"/>
</linearGradient>
<linearGradient id="paint21_linear_286_3072" x1="141" y1="559" x2="138" y2="464.5" gradientUnits="userSpaceOnUse">
<stop stop-color="#4B52A6"/>
<stop offset="1" stop-color="#62579E"/>
</linearGradient>
<linearGradient id="paint22_linear_286_3072" x1="65" y1="544" x2="65" y2="605" gradientUnits="userSpaceOnUse">
<stop stop-color="#4D52A6"/>
<stop offset="1" stop-color="#3F4FAB"/>
</linearGradient>
<linearGradient id="paint23_linear_286_3072" x1="58" y1="417" x2="58" y2="602.5" gradientUnits="userSpaceOnUse">
<stop stop-color="#6E5A9A"/>
<stop offset="1" stop-color="#3F4FAB"/>
</linearGradient>
<linearGradient id="paint24_linear_286_3072" x1="37" y1="478.5" x2="43" y2="586" gradientUnits="userSpaceOnUse">
<stop stop-color="#5F579F"/>
<stop offset="1" stop-color="#4350A9"/>
</linearGradient>
<linearGradient id="paint25_linear_286_3072" x1="93.5" y1="9" x2="32.5" y2="192.5" gradientUnits="userSpaceOnUse">
<stop stop-color="#D47273"/>
<stop offset="1" stop-color="#A56785"/>
</linearGradient>
<linearGradient id="paint26_linear_286_3072" x1="141" y1="263" x2="141" y2="164" gradientUnits="userSpaceOnUse">
<stop stop-color="#91628C"/>
<stop offset="1" stop-color="#AC6982"/>
</linearGradient>
</defs>
</svg>
