<svg width="20" height="20" viewBox="0 0 20 20" fill="none" xmlns="http://www.w3.org/2000/svg">
<path d="M3.20861 1.72137C3.00378 1.94368 2.89453 2.27714 2.89453 2.70787V18.2973C2.89453 18.7281 3.01743 19.0754 3.20861 19.2838L3.26323 19.3394L11.8526 10.5999V10.3915L3.26323 1.67969L3.20861 1.73526" fill="#5AC9F4"/>
<mask id="mask0_6_81" style="mask-type:luminance" maskUnits="userSpaceOnUse" x="11" y="7" width="8" height="7">
<path d="M14.7056 13.5304L11.8516 10.6126V10.4041L14.7192 7.48633L18.1741 9.48712C19.1436 10.0429 19.1436 10.9599 18.1741 11.5157L14.7875 13.4748L14.7192 13.5165" fill="white"/>
</mask>
<g mask="url(#mask0_6_81)">
<path d="M19.1163 7.5H11.8379V13.5302H19.1163V7.5Z" fill="url(#paint0_linear_6_81)"/>
</g>
<mask id="mask1_6_81" style="mask-type:luminance" maskUnits="userSpaceOnUse" x="3" y="10" width="12" height="10">
<path d="M14.7753 13.489L11.853 10.5156L3.22266 19.2969C3.53673 19.6442 4.0693 19.6859 4.65649 19.3385L14.7753 13.489Z" fill="white"/>
</mask>
<g mask="url(#mask1_6_81)">
<path d="M9.00027 4.6254L-1.29297 15.0986L9.00027 25.5719L19.2935 15.0986L9.00027 4.6254Z" fill="url(#paint1_linear_6_81)"/>
</g>
<mask id="mask2_6_81" style="mask-type:luminance" maskUnits="userSpaceOnUse" x="3" y="1" width="12" height="10">
<path d="M14.7753 7.52764L4.65649 1.67811C4.0693 1.33075 3.53673 1.37244 3.22266 1.7198L11.853 10.501L14.7753 7.52764Z" fill="white"/>
</mask>
<g mask="url(#mask2_6_81)">
<path d="M9.00222 -4.55625L-1.29102 5.91699L9.00222 16.3902L19.2955 5.91699L9.00222 -4.55625Z" fill="url(#paint2_linear_6_81)"/>
</g>
<defs>
<linearGradient id="paint0_linear_6_81" x1="17.4771" y1="10.7093" x2="0.967509" y2="10.7093" gradientUnits="userSpaceOnUse">
<stop stop-color="#FEE000"/>
<stop offset="0.4" stop-color="#FBBD0D"/>
<stop offset="0.77" stop-color="#F9A417"/>
<stop offset="1" stop-color="#F99B1B"/>
</linearGradient>
<linearGradient id="paint1_linear_6_81" x1="12.7213" y1="11.6702" x2="-3.39054" y2="27.5051" gradientUnits="userSpaceOnUse">
<stop stop-color="#EF4547"/>
<stop offset="1" stop-color="#C6176D"/>
</linearGradient>
<linearGradient id="paint2_linear_6_81" x1="-3.16871" y1="-6.51472" x2="9.72931" y2="6.16163" gradientUnits="userSpaceOnUse">
<stop stop-color="#269E6F"/>
<stop offset="0.05" stop-color="#2BA06E"/>
<stop offset="0.47" stop-color="#52B26A"/>
<stop offset="0.8" stop-color="#6BBC68"/>
<stop offset="1" stop-color="#74C168"/>
</linearGradient>
</defs>
</svg>
