<svg width="19" height="22" viewBox="0 0 19 22" fill="none" xmlns="http://www.w3.org/2000/svg">
<path d="M1.35103 1.89351C1.1221 2.13805 1 2.50486 1 2.97866V20.1271C1 20.6009 1.13736 20.983 1.35103 21.2122L1.41208 21.2734L11.0119 11.6599V11.4306L1.41208 1.84766L1.35103 1.90879" fill="#5AC9F4"/>
<mask id="mask0_218_218" style="mask-type:luminance" maskUnits="userSpaceOnUse" x="11" y="8" width="8" height="7">
<path d="M14.2015 14.8848L11.0117 11.6752V11.4459L14.2168 8.23633L18.0781 10.4372C19.1617 11.0485 19.1617 12.0573 18.0781 12.6686L14.2931 14.8236L14.2168 14.8695" fill="white"/>
</mask>
<g mask="url(#mask0_218_218)">
<path d="M19.1308 8.25195H10.9961V14.8851H19.1308V8.25195Z" fill="url(#paint0_linear_218_218)"/>
</g>
<mask id="mask1_218_218" style="mask-type:luminance" maskUnits="userSpaceOnUse" x="1" y="11" width="14" height="11">
<path d="M14.278 14.8391L11.0119 11.5684L1.36621 21.2277C1.71724 21.6098 2.31246 21.6557 2.96873 21.2736L14.278 14.8391Z" fill="white"/>
</mask>
<g mask="url(#mask1_218_218)">
<path d="M7.82257 5.08686L-3.68164 16.6074L7.82257 28.128L19.3268 16.6074L7.82257 5.08686Z" fill="url(#paint1_linear_218_218)"/>
</g>
<mask id="mask2_218_218" style="mask-type:luminance" maskUnits="userSpaceOnUse" x="1" y="1" width="14" height="11">
<path d="M14.278 8.28119L2.96873 1.84671C2.31246 1.46461 1.71724 1.51046 1.36621 1.89256L11.0119 11.5519L14.278 8.28119Z" fill="white"/>
</mask>
<g mask="url(#mask2_218_218)">
<path d="M7.82647 -5.0108L-3.67773 6.50977L7.82647 18.0303L19.3307 6.50977L7.82647 -5.0108Z" fill="url(#paint2_linear_218_218)"/>
</g>
<defs>
<linearGradient id="paint0_linear_218_218" x1="17.2987" y1="11.7822" x2="-1.15316" y2="11.7822" gradientUnits="userSpaceOnUse">
<stop stop-color="#FEE000"/>
<stop offset="0.4" stop-color="#FBBD0D"/>
<stop offset="0.77" stop-color="#F9A417"/>
<stop offset="1" stop-color="#F99B1B"/>
</linearGradient>
<linearGradient id="paint1_linear_218_218" x1="11.9813" y1="12.8361" x2="-5.7443" y2="30.5366" gradientUnits="userSpaceOnUse">
<stop stop-color="#EF4547"/>
<stop offset="1" stop-color="#C6176D"/>
</linearGradient>
<linearGradient id="paint2_linear_218_218" x1="-5.77634" y1="-7.16512" x2="8.41361" y2="7.00469" gradientUnits="userSpaceOnUse">
<stop stop-color="#269E6F"/>
<stop offset="0.05" stop-color="#2BA06E"/>
<stop offset="0.47" stop-color="#52B26A"/>
<stop offset="0.8" stop-color="#6BBC68"/>
<stop offset="1" stop-color="#74C168"/>
</linearGradient>
</defs>
</svg>
