<svg width="52" height="54" viewBox="0 0 52 54" fill="none" xmlns="http://www.w3.org/2000/svg">
<g opacity="0.7">
<path d="M48.0792 8.01211C48.0792 8.01211 43.905 5.51118 37.3262 3.07322C37.1958 3.02743 37.0597 2.98165 36.9292 2.93586C36.8839 2.9187 36.8442 2.90153 36.8045 2.88436C33.8894 1.82562 30.5376 0.795488 26.8852 0C14.5953 2.67833 5.69684 8.01211 5.69684 8.01211C5.13537 13.1914 5.84997 22.4339 5.84997 22.4339L10.0355 22.0791C10.0355 22.0791 9.23579 14.6622 9.72353 10.5016C9.72353 10.5016 16.7504 6.66722 26.8908 4.37232C37.0313 6.66722 44.0582 10.5016 44.0582 10.5016C44.4155 13.5633 44.0809 18.3878 43.8767 20.7227L45.3683 19.8242L48.0962 19.8128C48.2607 16.6881 48.4478 11.4516 48.0792 8.01211Z" fill="white"/>
<path d="M27.0176 49.6051C34.5022 46.3075 38.7094 38.6094 38.7094 38.6094H47.5094C47.5094 38.6094 44.5212 39.7573 42.497 40.2525C42.497 40.2525 37.6774 49.7683 27.0176 54.0001C16.3578 49.7683 11.5383 40.2525 11.5383 40.2525C9.51402 39.7573 6.52588 38.6094 6.52588 38.6094H15.3316C15.3316 38.6094 19.5331 46.3075 27.0176 49.6051Z" fill="white"/>
<path d="M17.0544 23.2993C17.0544 23.2993 7.97275 23.2488 4.22521 24.0055C4.22521 24.0055 2.77511 25.5525 2.0074 27.4022C2.0074 27.4022 0.346888 27.7385 0 28.4335H50.2818C50.2818 28.4335 49.0307 27.2228 47.5635 26.1691C47.5635 26.1691 48.2061 24.5043 49.0079 23.927C49.8098 23.3497 49.8951 23.3665 50.5661 23.1703C50.5661 23.1703 51.1916 22.2903 51.1632 21.6345C51.1404 21.0909 49.0307 21.1973 48.2744 21.203C47.518 21.2086 45.8291 21.2254 45.8291 21.2254C45.8291 21.2254 43.9354 22.4417 43.2075 23.2768C43.2075 23.2768 39.7784 20.592 34.1941 18.9553C28.6098 17.3186 22.7923 17.8063 22.7923 17.8063C22.7923 17.8063 19.9944 19.8297 17.0544 23.2993Z" fill="white"/>
<path d="M18.0127 23.1436C18.0726 23.2536 18.6662 23.404 19.6135 23.4735C20.0152 23.4735 20.4349 23.514 20.8426 23.3172C21.4602 23.0105 22.2336 22.0438 22.989 21.2045C23.7385 20.371 24.476 19.6649 24.5119 19.4797C24.5839 19.1034 24.5299 18.6693 24.0323 18.432C23.5286 18.1947 23.103 18.2236 22.8152 18.3915C22.5933 18.5188 19.8413 21.0888 18.6122 22.3795C18.2345 22.7731 17.9947 23.1031 18.0127 23.1436Z" fill="#111111"/>
<path d="M23.4932 22.0579C23.4932 22.0579 25.5496 19.3322 26.5107 19.1716C27.4718 19.0109 28.4777 18.8613 31.3555 19.6148C34.2333 20.3682 37.5694 21.6867 38.3405 22.7061C39.1117 23.7254 38.2399 23.7365 37.1279 23.7365C36.0159 23.7365 31.3555 23.6589 29.0756 23.5703C26.7957 23.4816 25.3651 23.537 24.9852 23.4484C24.9852 23.4484 25.6445 23.2988 26.0245 22.9166C26.3095 22.623 26.4883 21.8917 25.6725 21.8252C24.8511 21.7643 24.5046 21.8307 23.4932 22.0579Z" fill="#111111"/>
<path d="M17.8272 30H14.9713C14.9713 30 13.0522 30.1736 13.0522 32.3798C13.0522 34.586 15.3776 34.6756 15.9646 34.6756C16.5516 34.6756 16.546 35.1515 16.546 35.3139C16.546 35.4763 16.3879 35.8963 15.959 35.8963C15.53 35.8963 14.5592 35.9131 14.5592 35.9131C14.5592 35.9131 13.2667 36.2602 13.2667 37.5649H16.3597C16.3597 37.5649 18.2731 37.1506 18.2731 35.1683C18.2731 33.3485 16.4726 32.9565 16.196 32.9565C15.9195 32.9565 15.197 32.9229 15.197 32.9229C15.197 32.9229 14.8076 32.7662 14.8076 32.3406C14.8076 31.915 14.8979 31.6463 15.8292 31.6463C17.3305 31.6463 17.8272 30.9687 17.8272 30Z" fill="white"/>
<path d="M23.7546 31.3208C23.7546 31.7516 23.7546 37.5196 23.7546 37.5196C23.7546 37.5196 25.4791 37.4449 25.4791 35.2273H26.3163C26.3163 35.2273 27.0028 36.4683 27.639 37.0887C27.8008 37.2438 27.985 37.376 28.1245 37.4334C28.7217 37.6919 29.0733 37.5368 29.4975 37.2094L28.0073 34.9114C28.0073 34.9114 29.3691 34.3024 29.3356 32.0791C29.3077 29.8558 27.2427 29.4766 26.4223 29.4766C25.6019 29.4766 24.8429 29.4594 24.3183 30.0339C23.8662 30.459 23.7546 30.8899 23.7546 31.3208Z" fill="white"/>
<path d="M25.582 31.3156V33.3932H26.9046C26.9046 33.3932 27.6704 33.3438 27.6704 32.4094C27.6704 31.475 27.1483 31.4036 26.922 31.3431C26.6958 31.2826 25.582 31.3156 25.582 31.3156Z" fill="white"/>
<path d="M35.2407 33.6108V36.0933C35.2407 36.0933 35.2904 36.6217 35.6714 37.0235C35.9972 37.3758 36.3284 37.4859 36.5824 37.5189C36.8088 37.5464 37.764 37.607 38.7965 37.5189C39.5916 37.4474 39.9395 36.363 39.9395 35.9502L37.3389 35.9557C37.3389 35.9557 36.9248 35.8786 36.9137 35.3337C36.9027 34.7888 36.9137 32.0091 36.9137 32.0091C36.9137 32.0091 37.0241 31.5577 37.4769 31.5577C37.9297 31.5577 38.4763 31.5522 38.4763 31.5522C38.4763 31.5522 38.4763 31.7614 38.8628 31.7504C39.31 31.7394 39.8677 31.0733 39.8677 30.8201C39.8677 30.5669 39.8732 30 39.8732 30H36.6929C36.6929 30 36.0303 30 35.6769 30.4183C35.3235 30.8367 35.2407 31.332 35.2407 32.0586C35.2407 32.7907 35.2407 33.6108 35.2407 33.6108Z" fill="white"/>
<path d="M12.5298 21.9123C12.5298 21.9123 14.3922 16.6113 23.0419 12.5249C27.2295 10.3455 33.8339 8.52928 35.3135 8.34766C35.3135 8.34766 42.3521 11.2309 42.6891 11.4749C42.6891 11.4749 42.8263 14.2219 42.8091 15.1527C42.8091 15.1527 40.2725 15.9813 37.6502 18.5354C37.6502 18.5354 34.2452 17.0654 30.6231 16.6057C26.9953 16.1516 24.0873 16.1346 22.1792 16.3332C22.1792 16.3332 18.5342 19.0235 16.6432 21.6456C16.6432 21.6456 14.775 21.6626 12.5298 21.9123Z" fill="white"/>
<path d="M27.0176 38.6074H36.8066C36.8066 38.6074 33.2326 44.8642 27.0176 47.9984C20.7969 44.8642 17.2285 38.6074 17.2285 38.6074H27.0176Z" fill="white"/>
<path opacity="0.1" d="M18.0117 42.8103C17.6108 42.5237 17.3115 42.0882 17.0348 41.6968C16.7524 41.2999 16.4532 40.8865 16.2442 40.4455C16.199 40.3462 16.1539 40.247 16.103 40.1478C15.9845 40.0541 15.8828 39.9383 15.8094 39.806C15.7529 39.7123 15.7078 39.6076 15.6682 39.5028C15.448 39.2382 15.2221 38.9626 15.0866 38.6484C14.9793 38.6594 14.872 38.665 14.7647 38.6815C14.7139 38.687 14.6574 38.6925 14.6066 38.7035C14.6236 38.7035 14.5219 38.7146 14.488 38.7201C14.1774 38.7642 13.8895 38.7807 13.5845 38.6925C13.5281 38.7146 13.4659 38.7256 13.4038 38.7311C13.3135 38.7421 13.2231 38.7256 13.1328 38.7146C13.0198 38.7035 12.9069 38.687 12.7883 38.6815C12.7544 38.6815 12.7262 38.6815 12.6923 38.6815C12.6867 38.6815 12.6754 38.6815 12.6697 38.6815C12.6584 38.687 12.6133 38.7035 12.5963 38.7035C12.585 38.7091 12.5681 38.7201 12.5568 38.7256C12.4495 38.7973 12.314 38.7697 12.2236 38.698C12.1784 38.6925 12.1333 38.6705 12.0937 38.6429C11.6702 38.6429 11.2467 38.6098 10.8232 38.6264C10.4448 38.6374 10.0834 38.7587 9.70509 38.7587C9.27028 38.7642 8.85805 38.6153 8.42324 38.6098C7.79643 38.6043 7.15269 38.6484 6.53153 38.7752C6.53153 38.7917 6.52588 38.8083 6.52588 38.8248C6.84211 38.891 7.1188 39.0618 7.42939 39.1886C7.59879 39.2603 7.77385 39.3264 7.9489 39.3926C8.29336 39.4532 8.63218 39.5084 8.94841 39.6903C9.11217 39.7785 9.24205 39.8722 9.42275 39.8887C9.6825 39.9163 9.94226 39.9108 10.1964 39.9769C10.5917 40.0761 11.0999 40.2084 11.3879 40.4951C11.6025 40.7046 11.7041 41.0022 11.7606 41.2999C11.8566 41.4267 11.9526 41.5535 12.0599 41.6692C12.41 42.0386 12.7205 42.4079 12.9464 42.8654C13.0424 43.0694 13.1271 43.2623 13.2118 43.4608C13.2626 43.5214 13.3135 43.5765 13.3756 43.6317C13.6241 43.8522 13.8782 44.0727 14.0589 44.3483C15.3802 44.001 16.7016 43.4828 18.0117 42.8103Z" fill="white"/>
<path opacity="0.1" d="M33.4557 17.1927C33.5409 17.204 33.6147 17.2153 33.6942 17.2436C33.751 17.2606 33.7964 17.2719 33.8248 17.2776C34.0236 17.3059 34.1769 17.3512 34.3472 17.453C34.3529 17.453 34.37 17.4643 34.387 17.4757C34.387 17.47 34.4268 17.487 34.4154 17.487C34.4324 17.487 34.4722 17.487 34.4779 17.487C34.5233 17.487 34.5687 17.4926 34.6198 17.504C34.7845 17.5266 34.9265 17.5888 35.0798 17.6511C35.3637 17.7643 35.6704 17.8209 35.9657 17.8888C36.0679 17.9114 36.1701 17.9397 36.2666 17.9737C37.0049 15.1838 37.4705 12.292 37.5898 9.33799C37.4932 9.30969 37.391 9.2814 37.2945 9.24744C36.9822 9.13992 36.7153 8.96449 36.42 8.83433C36.3064 8.78906 36.1928 8.74379 36.0792 8.69286C36.102 8.70417 36.1247 8.70983 36.1474 8.72115C36.1076 8.70417 36.0736 8.69852 36.0338 8.6872C35.8635 8.68154 35.7215 8.60231 35.6079 8.49479C35.5171 8.50611 35.4262 8.50045 35.341 8.4665C35.2331 8.42122 35.1196 8.38727 35.0117 8.34766C35.006 8.34766 35.006 8.35331 35.0003 8.35331C34.9038 8.38161 34.8129 8.38727 34.7164 8.36463C34.705 8.36463 34.6993 8.36463 34.688 8.35897C34.529 8.43254 34.3586 8.47781 34.1826 8.52309C34.1655 8.52874 34.1485 8.5344 34.1315 8.5344C34.0917 8.54572 34.052 8.55138 34.0065 8.5627C33.8702 8.59099 33.7396 8.63061 33.609 8.6589C33.5806 8.67022 33.5636 8.67588 33.5636 8.67588C33.5522 8.68154 33.5466 8.68154 33.5352 8.6872C33.4784 8.71549 33.4273 8.73813 33.3705 8.76642C33.0241 8.92488 32.6948 8.99844 32.3086 9.02674C32.2745 9.02674 32.2348 9.0324 32.2007 9.0324C32.0247 9.09465 31.843 9.15124 31.6612 9.19651C31.4057 9.25876 31.1047 9.29271 30.8435 9.36062C30.8208 9.37194 30.7981 9.38326 30.7697 9.39458C30.7527 9.41155 30.7299 9.42287 30.7129 9.43985C30.622 9.5021 30.5141 9.54171 30.4063 9.58132C30.3495 9.60396 30.287 9.60962 30.2302 9.60396C29.9633 9.68884 29.6907 9.76241 29.4352 9.88691C28.9128 10.1416 28.3506 10.2887 27.7884 10.4358C27.6748 10.4981 27.5669 10.566 27.4533 10.6169C27.283 10.6962 27.124 10.7527 26.9423 10.7754C26.8855 10.798 26.8287 10.8207 26.7662 10.832C26.681 10.8546 26.5959 10.8716 26.5107 10.8999C26.4993 10.9055 26.4936 10.9112 26.4823 10.9112C26.3062 11.0527 26.1472 11.2111 25.9144 11.279C25.5169 11.4035 25.108 11.5111 24.7049 11.6242C24.3187 11.7318 24.0234 12.0147 23.6373 12.1222C23.6316 12.1222 23.6202 12.1279 23.6146 12.1279C23.359 12.2977 23.1092 12.4504 22.8195 12.5693C22.3198 12.773 21.8201 13.039 21.3488 13.3106C21.292 13.3672 21.2295 13.4125 21.167 13.4578C21.133 13.4861 21.0932 13.503 21.0535 13.5257C20.9569 13.5709 20.8604 13.6049 20.7639 13.6445C20.6787 13.6841 20.5935 13.7237 20.514 13.769C20.5083 13.769 20.5026 13.7747 20.5026 13.7747C20.4629 13.8086 20.4231 13.8426 20.3777 13.8765C20.1846 14.0123 19.9916 14.1538 19.7928 14.2783C19.5713 14.4141 19.3556 14.5613 19.1341 14.6971C19.0659 14.7424 18.9978 14.7876 18.9297 14.8272C18.6571 15.1158 18.2823 15.3139 17.9416 15.5063C17.9075 15.529 17.9132 15.529 17.9416 15.5007C18.0154 15.4441 17.9756 15.4724 17.8223 15.5912C17.7882 15.6138 17.7542 15.6421 17.7258 15.6648C17.686 15.6931 17.6406 15.727 17.6008 15.7553C17.5952 15.761 17.5895 15.7666 17.5781 15.7723C17.4021 15.9251 17.2488 16.1005 17.05 16.2307C16.9762 16.2816 16.8967 16.3212 16.8172 16.3608C16.7774 16.3835 16.7377 16.4004 16.6979 16.4287C16.6866 16.4344 16.6752 16.4401 16.6695 16.4514C16.5389 16.5872 16.4197 16.7343 16.2891 16.8758C16.1187 17.0682 15.9143 17.2323 15.6928 17.3851C15.5906 17.5209 15.477 17.6454 15.3578 17.753C15.3351 17.7869 15.318 17.8152 15.2953 17.8492C15.2726 17.8831 15.2555 17.9171 15.2272 17.951C15.1704 18.0246 15.1193 18.1095 15.0511 18.1717C14.9943 18.2227 14.9262 18.2679 14.8694 18.3189C14.8524 18.3302 14.8353 18.3415 14.8183 18.3585C14.8013 18.3698 14.7842 18.3811 14.7615 18.3868C14.7274 18.432 14.6934 18.483 14.6593 18.5282C14.5911 18.6188 14.506 18.7433 14.3981 18.7999C14.3924 18.8112 14.3867 18.8225 14.381 18.8338C14.3583 18.8848 14.3299 18.93 14.3015 18.9753C14.2164 19.1055 14.1085 19.2243 14.0119 19.3431C14.0062 19.3545 13.9608 19.411 13.9495 19.4224C13.9267 19.4563 13.9097 19.4846 13.8927 19.5186C13.6485 19.9656 13.3362 20.3674 13.0579 20.7975C13.0068 20.8767 12.9557 20.9616 12.9103 21.0408C12.8989 21.0578 12.8932 21.0805 12.8819 21.1031C12.8705 21.1257 12.8591 21.1427 12.8478 21.1653C12.8308 21.205 12.808 21.2446 12.791 21.2842C12.791 21.2898 12.791 21.2955 12.7853 21.3068C12.7569 21.4596 12.6945 21.6124 12.5979 21.7426C12.5979 21.7482 12.5923 21.7539 12.5923 21.7595C12.5695 21.8105 12.5525 21.8614 12.5298 21.9123C12.7456 21.8784 12.95 21.7992 13.1828 21.7992C13.2623 21.7992 13.3418 21.8048 13.427 21.8048C13.4895 21.7765 13.5576 21.7539 13.6314 21.7539C13.6371 21.7539 13.6428 21.7539 13.6485 21.7539C13.8359 21.7199 14.0119 21.6464 14.2107 21.6633C14.3015 21.669 14.3867 21.686 14.4719 21.703C14.7615 21.6237 15.0398 21.5558 15.3578 21.5728C15.6019 21.5898 15.8234 21.6407 16.0506 21.652C16.1414 21.6294 16.2323 21.6181 16.3231 21.6124C16.3856 21.6124 16.4481 21.6181 16.5105 21.6294C16.5616 21.6294 16.6184 21.6294 16.6695 21.6294C16.6923 21.5615 16.7263 21.4992 16.7774 21.4596C16.7945 21.4483 16.8058 21.4313 16.8172 21.4143C16.8569 21.3521 16.891 21.2898 16.9308 21.2276C16.9762 21.1484 17.0273 21.0748 17.0727 21.0012C17.1409 20.8937 17.209 20.7636 17.3055 20.6787C17.368 20.6221 17.4362 20.5768 17.51 20.5259C17.5895 20.4127 17.6633 20.3052 17.7428 20.192C17.8734 20.0109 18.0154 19.8864 18.1971 19.7563C18.3447 19.6487 18.4356 19.5808 18.5662 19.4337C18.606 19.3884 18.6514 19.3488 18.6968 19.3092C18.7934 19.1564 18.924 19.0319 19.0603 18.9187C19.1398 18.8508 19.2249 18.7886 19.3044 18.7206C19.3385 18.6924 19.3783 18.6584 19.4123 18.6244C19.4294 18.6075 19.4351 18.6018 19.4351 18.6018C19.4351 18.6018 19.4407 18.5962 19.4578 18.5679C19.5429 18.4603 19.6224 18.3585 19.736 18.2792C19.7474 18.2623 19.7644 18.2396 19.7871 18.2113C19.8042 18.1944 19.8155 18.1774 19.8382 18.1604C19.9064 18.1038 19.9802 18.0472 20.054 17.9963C20.1392 17.9397 20.2187 17.8831 20.3039 17.8265C20.3152 17.8209 20.3209 17.8152 20.3323 17.8039C20.3834 17.7473 20.4345 17.6907 20.4913 17.6511C20.656 17.5323 20.7695 17.3795 20.9399 17.2436C21.1103 17.1078 21.309 17.006 21.4453 16.8645C21.61 16.6947 21.752 16.508 21.9677 16.3948C22.0416 16.3552 22.1154 16.3325 22.1949 16.3156C22.2346 16.2986 22.2744 16.2929 22.3198 16.2873C22.3936 16.242 22.4788 16.2137 22.5583 16.2194C22.6662 16.225 22.7684 16.2363 22.8763 16.2307C22.9161 16.2194 22.9558 16.2137 22.9956 16.208C23.0864 16.1911 23.183 16.1741 23.2738 16.1741C23.3704 16.1684 23.4726 16.1854 23.5691 16.208C23.6713 16.208 23.7679 16.2024 23.8701 16.1967C24.3528 16.1571 24.8241 16.1628 25.3068 16.1741C25.8292 16.1854 26.3517 16.1967 26.8741 16.2194C27.1297 16.2307 27.3909 16.225 27.6464 16.242C27.7657 16.2533 28.0382 16.3269 28.1007 16.3212C28.22 16.2986 28.3449 16.3156 28.4471 16.3722C28.5493 16.3665 28.6515 16.3665 28.7538 16.3608C28.9468 16.3608 29.1399 16.3835 29.3273 16.3948C29.6453 16.4174 29.9804 16.4287 30.287 16.5193C30.3154 16.5193 30.3438 16.5136 30.3722 16.508C30.5312 16.508 30.6788 16.5646 30.8322 16.5929C31.0934 16.6381 31.3659 16.6494 31.6272 16.6834C31.8884 16.7174 32.1155 16.7909 32.3597 16.8758C32.6607 16.9777 32.9787 17.0116 33.2797 17.1078C33.3421 17.1531 33.3989 17.1701 33.4557 17.1927Z" fill="white"/>
<path opacity="0.1" d="M29.4975 32.1845C29.4527 31.9785 29.3742 31.7783 29.3126 31.5782C29.2566 31.3839 29.2342 31.1896 29.1949 30.9954C29.1613 30.8305 29.0941 30.7658 28.9596 30.6304C28.8139 30.4832 28.6683 30.336 28.5002 30.2183C28.3377 30.1065 28.164 30.0181 28.0015 29.9063C27.8951 29.8357 27.7886 29.7591 27.6822 29.6944C27.4356 29.6237 27.1835 29.5472 26.9314 29.506C26.8305 29.4883 26.7241 29.4824 26.6232 29.4766C26.528 29.5472 26.4047 29.5766 26.2815 29.5472C26.0742 29.5001 25.9733 29.4589 25.794 29.5001C25.6035 29.5472 25.4074 29.5413 25.2225 29.5884C25.0656 29.6296 24.8527 29.712 24.7407 29.765C24.7183 29.7768 24.7015 29.7886 24.679 29.8003C24.6566 29.8239 24.6286 29.8474 24.6062 29.8769C24.5502 29.9416 24.4885 29.9946 24.4213 30.0417C24.3653 30.077 24.3093 30.1064 24.2476 30.1418C24.1132 30.3243 24.0011 30.5421 23.9171 30.7775C23.7882 31.1366 23.7322 31.4899 23.8218 31.8372C23.8498 31.949 23.833 32.0609 23.7826 32.1551C23.777 32.2846 23.7602 32.4259 23.7658 32.5554C23.7658 32.573 23.7714 32.5907 23.7714 32.6083C23.777 32.6554 23.7826 32.6966 23.7994 32.7379C23.8498 32.8615 23.8554 32.991 23.8162 33.1087C23.8218 33.2029 23.833 33.2912 23.8386 33.3854C23.8834 34.4274 23.8722 35.4517 23.7546 36.4701C23.861 36.8645 23.9283 37.3884 23.833 37.8123C23.8666 37.8182 23.9059 37.8182 23.9395 37.8182C23.9843 37.8182 24.0235 37.8241 24.0683 37.8241C24.0739 37.8241 24.1244 37.8241 24.1524 37.8241C24.1524 37.8241 24.158 37.8241 24.1636 37.8182C24.1692 37.8123 24.186 37.8064 24.2084 37.7946C24.2532 37.7593 24.3037 37.7299 24.3485 37.6946C24.4493 37.6239 24.5726 37.565 24.6678 37.4885C24.7015 37.4591 24.8135 37.3355 24.8639 37.2648C24.9368 37.1706 25.004 37.0705 25.0825 36.9822C25.1609 36.8881 25.2449 36.8174 25.3346 36.7527C25.3402 36.7232 25.3514 36.6938 25.357 36.6644C25.3682 36.629 25.3738 36.5937 25.3794 36.5584C25.3682 36.6114 25.3794 36.5525 25.3794 36.5407C25.3794 36.5231 25.3794 36.4995 25.385 36.4819C25.3906 36.4053 25.3906 36.3288 25.3962 36.2464C25.4186 36.0286 25.4634 35.8108 25.5531 35.6106C25.6091 35.4811 25.71 35.3869 25.8332 35.3398C25.9677 35.2868 26.119 35.3281 26.2422 35.3987C26.4047 35.4929 26.556 35.6636 26.6737 35.8108C26.7241 35.8755 26.7689 35.9403 26.8081 36.005C27.7158 34.9395 28.5898 33.7975 29.4191 32.5966C29.4247 32.4376 29.4527 32.3081 29.4975 32.1845Z" fill="white"/>
<path opacity="0.1" d="M23.6598 38.6582C23.552 38.6531 23.4388 38.6379 23.331 38.6379C23.3148 38.6379 23.1962 38.6481 23.2285 38.6379C23.2231 38.6379 23.2177 38.6379 23.2124 38.643C23.056 38.7446 22.8512 38.7446 22.7056 38.6125L22.7002 38.6074C22.5439 38.6328 22.3768 38.6379 22.2204 38.6532C22.118 38.6633 22.0156 38.6735 21.9132 38.6836C21.8485 38.704 21.7838 38.7141 21.7029 38.7141C21.6221 38.7141 21.5358 38.6989 21.4495 38.6836C21.4172 38.6786 21.3849 38.6684 21.3579 38.6633C21.3094 38.6582 21.2609 38.6481 21.2177 38.6481C21.1854 38.6481 21.1531 38.6481 21.1261 38.6481C21.0938 38.6532 21.0614 38.6582 21.0291 38.6582C20.9536 38.6735 20.8781 38.6887 20.7973 38.704C20.614 38.7344 20.4361 38.7294 20.2474 38.7344C19.8808 38.7446 19.5142 38.704 19.1477 38.7344C18.7811 38.7649 18.4468 38.7548 18.0803 38.709C17.7946 38.6735 17.525 38.7751 17.2285 38.7395C17.3741 38.9123 17.525 39.0749 17.6652 39.2527C17.7299 39.334 17.7892 39.4204 17.8323 39.5118C17.8754 39.5982 17.9024 39.6795 17.9293 39.7659C18.1018 39.9691 18.2582 40.1876 18.4145 40.4061C18.7703 40.9091 19.2986 41.2749 19.7083 41.7373C21.18 40.8786 22.6248 39.837 24.0156 38.6277C23.9078 38.6532 23.7892 38.6633 23.6598 38.6582Z" fill="white"/>
<path opacity="0.1" d="M18.256 34.7356C18.2503 34.7083 18.239 34.681 18.2333 34.6537C18.2105 34.61 18.1935 34.5608 18.1764 34.5171C18.1309 34.4188 18.0797 34.3205 18.0228 34.2331C17.7499 33.818 17.3518 33.4848 16.9537 33.168C16.7603 33.1352 16.5726 33.0369 16.3963 33.0369C16.2257 33.0314 16.0551 33.0096 15.8902 32.9659C15.8731 32.9659 15.856 32.9659 15.839 32.9604C15.8333 32.9604 15.8333 32.9604 15.8276 32.9604C15.7366 32.9987 15.6285 33.0041 15.5375 32.9823C15.5262 32.9768 15.5148 32.9768 15.4977 32.9713C15.4579 32.9768 15.4067 32.9877 15.3612 32.9877C15.2702 32.9877 15.2418 32.9768 15.1736 32.9495C15.1565 32.944 15.1338 32.9331 15.1167 32.9277C15.0883 32.9058 15.0598 32.884 15.0257 32.8621C15.02 32.8566 15.02 32.8566 15.0143 32.8512C14.9859 32.8184 14.9518 32.7802 14.929 32.7419L14.9233 32.7365C14.912 32.7256 14.8949 32.7146 14.8835 32.7037C14.8039 32.6382 14.7413 32.5508 14.7129 32.4525C14.6845 32.3651 14.6845 32.2667 14.7129 32.1794C14.7527 32.0592 14.8323 31.9663 14.9404 31.8953C14.9688 31.8735 15.003 31.8626 15.0371 31.8462L15.0428 31.8407L15.0484 31.8352C15.0484 31.8352 15.0541 31.8352 15.0541 31.8298C15.0712 31.8189 15.1451 31.7915 15.1622 31.7861C15.2077 31.7697 15.2589 31.7642 15.3101 31.7642C15.3385 31.7642 15.3669 31.7697 15.3954 31.7697C15.4636 31.7369 15.5375 31.7151 15.6115 31.7151C15.657 31.7151 15.6968 31.7205 15.7423 31.7369C15.7878 31.7315 15.839 31.7205 15.8845 31.7151C16.1916 31.6768 16.4702 31.655 16.766 31.584C16.8683 31.5621 16.965 31.5294 17.0617 31.4966C17.0788 31.4911 17.1356 31.4638 17.1527 31.4529C17.1925 31.4311 17.2266 31.4092 17.2608 31.3874C17.2608 31.3819 17.3404 31.3164 17.3518 31.3054C17.3631 31.2945 17.4371 31.2016 17.4086 31.2453C17.4769 31.1525 17.5508 31.0596 17.6191 30.9668L17.6247 30.9613C17.6077 30.934 17.5963 30.9067 17.5906 30.8794C17.5849 30.8412 17.5792 30.8029 17.5736 30.7647C17.5736 30.6882 17.5963 30.6172 17.6361 30.5517C17.6589 30.5244 17.6816 30.497 17.7044 30.4643C17.7157 30.4533 17.7271 30.4533 17.7385 30.4424C17.7328 30.295 17.7271 30.1529 17.7214 30.0055C17.71 30.0055 17.693 30 17.6816 30C17.6418 30.0109 17.5963 30.0164 17.5451 30.0164C16.7319 30.0218 15.93 30.1256 15.1167 30.1584C14.8721 30.1693 14.6333 30.1475 14.3887 30.1256C14.3546 30.1202 14.3205 30.1202 14.2864 30.1202C14.2181 30.1529 14.1499 30.1912 14.0816 30.2349C14.002 30.3004 13.9224 30.3769 13.8428 30.4479C13.7916 30.5353 13.729 30.6172 13.6608 30.6937C13.4958 30.8685 13.2968 31.0378 13.1034 31.1962C13.0522 31.3819 13.0579 31.584 13.0579 31.7752C13.0579 32.0592 13.0522 32.3487 13.0522 32.6327C13.0522 32.9113 13.0807 33.1844 13.1148 33.452C13.1205 33.4684 13.1262 33.4793 13.1319 33.4957C13.1319 33.4957 13.1319 33.4957 13.1319 33.5012C13.1887 33.5558 13.2342 33.6213 13.2797 33.6814C13.3139 33.7306 13.3423 33.7797 13.3764 33.8343C13.3878 33.8562 13.4049 33.8726 13.4162 33.8944C13.4219 33.8999 13.4219 33.9054 13.4276 33.9108C13.4333 33.9163 13.4333 33.9163 13.4333 33.9217C13.5129 34.0091 13.6096 34.0801 13.7006 34.1566C13.7233 34.173 13.7461 34.1948 13.7631 34.2112C13.7745 34.2167 13.7745 34.2222 13.7802 34.2276C13.7973 34.2385 13.8314 34.2549 13.8371 34.2604C13.8485 34.2658 13.8541 34.2713 13.8598 34.2713C13.8655 34.2713 13.8655 34.2713 13.8712 34.2768C14.1101 34.3423 14.3432 34.4461 14.5821 34.5062C14.7413 34.5444 14.9006 34.5826 15.0484 34.6537C15.2191 34.6482 15.3783 34.6209 15.5603 34.67C15.5717 34.67 15.5774 34.6755 15.583 34.681C15.5944 34.681 15.6058 34.6755 15.6229 34.6755C15.6683 34.67 15.7423 34.6864 15.7764 34.6919C15.7878 34.6919 15.7992 34.6974 15.8105 34.7028C15.8333 34.7137 15.856 34.7192 15.8845 34.7301C15.9413 34.7301 15.9982 34.741 16.0494 34.7465C16.1063 34.7574 16.1688 34.7847 16.2143 34.8066C16.2996 34.8503 16.3736 34.9268 16.4247 35.0087C16.5044 35.1343 16.5214 35.2927 16.4816 35.4293C16.4475 35.544 16.402 35.5986 16.3224 35.6914C16.3053 35.7078 16.2883 35.7242 16.2712 35.7406C16.2029 35.8061 16.1233 35.8498 16.038 35.8717C15.9925 35.8772 15.9413 35.8826 15.8958 35.8881C15.8901 35.8881 15.8902 35.8881 15.8845 35.8881C15.8447 35.899 15.7992 35.9099 15.748 35.9099C15.6854 35.9099 15.6058 35.899 15.5432 35.8772C15.4807 35.8553 15.4181 35.8444 15.3556 35.8335C15.3157 35.8335 15.2759 35.828 15.2361 35.8335C15.1338 35.8498 15.0314 35.8717 14.9233 35.8772C14.8721 35.8772 14.8266 35.8772 14.7755 35.8662C14.7015 35.8826 14.6276 35.899 14.5593 35.9154C14.366 35.9645 14.1726 36.0137 13.9906 36.0792C13.9793 36.0847 13.9736 36.0847 13.9736 36.0847C13.9622 36.0902 13.9508 36.0956 13.9394 36.1011C13.8883 36.1229 13.8428 36.1503 13.7973 36.1776C13.7575 36.1994 13.7233 36.2213 13.6835 36.2486C13.6721 36.254 13.6721 36.254 13.6721 36.2595C13.6665 36.265 13.6551 36.2704 13.6494 36.2813C13.5186 36.396 13.4162 36.5162 13.3309 36.6528C13.3309 36.8057 13.3025 36.9586 13.257 37.1006C13.2285 37.199 13.1887 37.2973 13.1546 37.3956C13.2172 37.3956 13.2797 37.3956 13.3423 37.4065C13.5357 37.4284 13.7063 37.4994 13.8883 37.5649C14.2466 37.4885 14.6617 37.5267 15.0314 37.5431C15.293 37.5103 15.6058 37.483 15.8674 37.5267C15.9072 37.5212 15.9527 37.5212 15.9925 37.5158C16.2257 37.483 16.4475 37.4011 16.6636 37.3246C16.8513 37.259 17.039 37.199 17.2323 37.1553C17.2494 37.1443 17.2664 37.128 17.2835 37.117C17.3006 37.1006 17.3233 37.0897 17.3404 37.0733C17.4939 36.9532 17.6361 36.8221 17.7783 36.6965C17.8977 36.5981 17.9205 36.5708 17.9432 36.4234C17.966 36.2595 17.9887 36.112 18.0456 35.9536C18.1138 35.7734 18.2105 35.615 18.2674 35.4457C18.2674 35.3965 18.2731 35.3419 18.2731 35.2927C18.2731 35.0906 18.2731 34.9104 18.256 34.7356Z" fill="white"/>
<path d="M25.582 31.3181C25.582 31.3181 26.5833 31.2965 26.7492 31.3127C26.8236 31.3181 27.6704 31.3397 27.6704 32.3124C27.6704 32.9393 27.4129 33.2095 27.0696 33.3284C26.7263 33.4473 25.582 33.3662 25.582 33.3662V31.3181Z" fill="#303333"/>
</g>
</svg>
