<svg width="32" height="32" viewBox="0 0 32 32" fill="none" xmlns="http://www.w3.org/2000/svg">
<circle cx="16" cy="16" r="16" fill="white"/>
<g clip-path="url(#clip0_139_3194)">
<path d="M22.2431 11.0887C21.0628 10.5733 19.8148 10.2071 18.532 10C18.3571 10.2995 18.1985 10.6071 18.0567 10.9217C16.6934 10.7274 15.3068 10.7274 13.9435 10.9217C13.7993 10.6067 13.6377 10.2991 13.4592 10C12.1752 10.2072 10.9262 10.5742 9.74532 11.0913C7.64823 13.9313 6.70327 17.3831 7.08165 20.8212C8.45392 21.7882 9.99387 22.5249 11.6334 22.9987C12.0026 22.5254 12.3291 22.0241 12.6096 21.4998C12.0769 21.3105 11.5631 21.0771 11.0744 20.8023C11.2031 20.7133 11.329 20.6203 11.4508 20.5241C12.8714 21.1623 14.4261 21.4935 16.0008 21.4935C17.5755 21.4935 19.1302 21.1623 20.5508 20.5241C20.674 20.6197 20.7999 20.7133 20.9272 20.8023C20.4379 21.0778 19.9234 21.3116 19.3899 21.5011C19.6697 22.0254 19.9958 22.5268 20.3647 23C22.0056 22.5266 23.5466 21.7894 24.9193 20.8212C25.2959 17.3807 24.3464 13.9274 22.2431 11.0887ZM13.0116 18.8627C12.5561 18.8332 12.1313 18.6365 11.8288 18.3152C11.5263 17.9939 11.3704 17.5738 11.3947 17.1454C11.3674 16.7163 11.5223 16.2945 11.8253 15.9724C12.1284 15.6503 12.5549 15.4541 13.0116 15.4268C13.2382 15.439 13.4601 15.4932 13.6643 15.5864C13.8685 15.6795 14.051 15.8097 14.2013 15.9695C14.3517 16.1293 14.4668 16.3155 14.5401 16.5173C14.6135 16.7192 14.6435 16.9327 14.6285 17.1454C14.6554 17.5744 14.5004 17.9958 14.1974 18.3177C13.8944 18.6395 13.468 18.8355 13.0116 18.8627ZM18.9879 18.8627C18.5324 18.8332 18.1076 18.6365 17.8051 18.3152C17.5026 17.9939 17.3467 17.5738 17.371 17.1454C17.3438 16.7163 17.4986 16.2945 17.8016 15.9724C18.1047 15.6503 18.5312 15.4541 18.9879 15.4268C19.2145 15.4391 19.4363 15.4934 19.6404 15.5865C19.8446 15.6797 20.0271 15.8099 20.1774 15.9697C20.3277 16.1295 20.4429 16.3156 20.5163 16.5174C20.5896 16.7192 20.6197 16.9327 20.6048 17.1454C20.6317 17.5744 20.4767 17.9958 20.1737 18.3177C19.8707 18.6395 19.4443 18.8355 18.9879 18.8627Z" fill="#111111"/>
</g>
<defs>
<clipPath id="clip0_139_3194">
<rect width="24" height="24" fill="white" transform="translate(4 4)"/>
</clipPath>
</defs>
</svg>
