<svg width="22" height="22" viewBox="0 0 22 22" fill="none" xmlns="http://www.w3.org/2000/svg">
<path d="M21.5127 0.503977C21.3583 0.349284 21.175 0.226556 20.9731 0.142819C20.7712 0.0590823 20.5548 0.0159799 20.3363 0.0159799C20.1177 0.0159799 19.9013 0.0590823 19.6995 0.142819C19.4976 0.226556 19.3142 0.349284 19.1599 0.503977L11 8.64716L2.84014 0.48729C2.68565 0.3328 2.50224 0.210252 2.30039 0.126642C2.09854 0.0430327 1.88219 1.62782e-09 1.66371 0C1.44523 -1.62782e-09 1.22889 0.0430327 1.02704 0.126642C0.825186 0.210252 0.64178 0.3328 0.48729 0.48729C0.3328 0.64178 0.210252 0.825186 0.126642 1.02704C0.0430327 1.22889 -1.62782e-09 1.44523 0 1.66371C1.62782e-09 1.88219 0.0430327 2.09854 0.126642 2.30039C0.210252 2.50224 0.3328 2.68565 0.48729 2.84014L8.64716 11L0.48729 19.1599C0.3328 19.3144 0.210252 19.4978 0.126642 19.6996C0.0430327 19.9015 0 20.1178 0 20.3363C0 20.5548 0.0430327 20.7711 0.126642 20.973C0.210252 21.1748 0.3328 21.3582 0.48729 21.5127C0.64178 21.6672 0.825186 21.7897 1.02704 21.8734C1.22889 21.957 1.44523 22 1.66371 22C1.88219 22 2.09854 21.957 2.30039 21.8734C2.50224 21.7897 2.68565 21.6672 2.84014 21.5127L11 13.3528L19.1599 21.5127C19.3144 21.6672 19.4978 21.7897 19.6996 21.8734C19.9015 21.957 20.1178 22 20.3363 22C20.5548 22 20.7711 21.957 20.973 21.8734C21.1748 21.7897 21.3582 21.6672 21.5127 21.5127C21.6672 21.3582 21.7897 21.1748 21.8734 20.973C21.957 20.7711 22 20.5548 22 20.3363C22 20.1178 21.957 19.9015 21.8734 19.6996C21.7897 19.4978 21.6672 19.3144 21.5127 19.1599L13.3528 11L21.5127 2.84014C22.1468 2.20604 22.1468 1.13808 21.5127 0.503977Z" fill="white"/>
</svg>
