<svg width="32" height="32" viewBox="0 0 32 32" fill="none" xmlns="http://www.w3.org/2000/svg">
<circle cx="16" cy="16" r="16" fill="white"/>
<g clip-path="url(#clip0_20_1383)">
<path d="M7.19502 17.1712L7.26502 17.0612L11.4958 10.4458C11.5098 10.4238 11.5295 10.406 11.5528 10.3943C11.5762 10.3826 11.6022 10.3774 11.6282 10.3793C11.6542 10.3812 11.6793 10.3901 11.7006 10.405C11.722 10.42 11.7389 10.4404 11.7496 10.4642C12.4566 12.0481 13.0666 14.0181 12.7804 15.2442C12.5858 15.8844 12.3061 16.4955 11.9489 17.0612C11.9004 17.1527 11.8473 17.2435 11.7904 17.3304C11.7772 17.3501 11.7594 17.3662 11.7384 17.3774C11.7175 17.3885 11.6941 17.3943 11.6704 17.3942H7.31887C7.29267 17.3947 7.26685 17.388 7.24416 17.3749C7.22147 17.3618 7.20277 17.3427 7.19005 17.3198C7.17734 17.2969 7.17108 17.271 7.17196 17.2448C7.17283 17.2186 7.1808 17.1932 7.19502 17.1712Z" fill="#111111"/>
<path d="M26 18.2873V19.3142C25.9997 19.343 25.9911 19.371 25.9751 19.395C25.9591 19.4189 25.9365 19.4376 25.91 19.4488C25.186 19.7273 24.5334 20.1641 24 20.7273C22.8138 22.3504 21.9069 24.6719 19.88 24.6719H11.4254C10.7177 24.6773 10.016 24.5431 9.36024 24.2771C8.70449 24.011 8.10761 23.6184 7.60374 23.1215C7.09986 22.6246 6.69886 22.0333 6.42368 21.3813C6.1485 20.7294 6.00453 20.0295 6 19.3219V19.2265C6.0002 19.2076 6.00412 19.189 6.01154 19.1716C6.01895 19.1542 6.02972 19.1385 6.04322 19.1253C6.05672 19.112 6.07269 19.1016 6.09022 19.0946C6.10775 19.0875 6.1265 19.084 6.14539 19.0842H10.8585C10.8804 19.0847 10.902 19.0898 10.9218 19.0991C10.9417 19.1083 10.9594 19.1217 10.9739 19.1381C10.9883 19.1546 10.9992 19.1739 11.0058 19.1948C11.0125 19.2157 11.0147 19.2378 11.0123 19.2596C10.9793 19.5661 11.0379 19.8756 11.1808 20.1488C11.3203 20.4229 11.5332 20.6529 11.7957 20.8132C12.0583 20.9734 12.3601 21.0577 12.6677 21.0565H15V19.2658H12.6923C12.6654 19.2659 12.639 19.2586 12.616 19.2447C12.593 19.2309 12.5742 19.2109 12.5618 19.187C12.5494 19.1632 12.5438 19.1364 12.5457 19.1095C12.5475 19.0827 12.5567 19.0569 12.5723 19.035C12.5969 18.9973 12.6254 18.9581 12.6554 18.9134C12.8738 18.6058 13.1854 18.135 13.4954 17.5965C13.7128 17.229 13.907 16.8483 14.0769 16.4565C14.11 16.3858 14.1369 16.3142 14.1638 16.2434C14.2092 16.1188 14.2554 16.0027 14.2892 15.8865C14.3223 15.7881 14.3492 15.685 14.3762 15.5881C14.4537 15.2451 14.4911 14.8943 14.4877 14.5427C14.4877 14.4004 14.4808 14.2511 14.4677 14.1088C14.4608 13.955 14.4408 13.8011 14.4208 13.6419C14.4077 13.5042 14.3823 13.3681 14.3562 13.2258C14.3231 13.0181 14.2792 12.8111 14.2231 12.6034L14.2046 12.5265C14.1646 12.3842 14.1277 12.2481 14.0846 12.1058C13.9531 11.6588 13.8015 11.2227 13.6415 10.815C13.5831 10.6527 13.5162 10.4973 13.45 10.3419C13.3515 10.1111 13.2515 9.89498 13.16 9.69344C13.1131 9.60191 13.0731 9.51806 13.0331 9.43268C12.9931 9.34729 12.9415 9.2396 12.8946 9.14729C12.8615 9.07652 12.8231 9.01114 12.7962 8.94575L12.5108 8.42806C12.5019 8.41227 12.4978 8.39418 12.4992 8.3761C12.5006 8.35802 12.5073 8.34076 12.5185 8.3265C12.5297 8.31224 12.5449 8.30164 12.5622 8.29602C12.5794 8.29041 12.5979 8.29005 12.6154 8.29498L14.3985 8.77037H14.4038C14.4038 8.77037 14.4092 8.77037 14.4108 8.77037L14.6462 8.83421L14.9046 8.90652L14.9992 8.93268V7.89037C15.0061 7.65188 15.1057 7.42548 15.2769 7.25924C15.448 7.093 15.6772 7 15.9158 7C16.1544 7 16.3835 7.093 16.5547 7.25924C16.7258 7.42548 16.8254 7.65188 16.8323 7.89037V9.43652L17.0223 9.48883C17.0377 9.4937 17.0522 9.50097 17.0654 9.51037C17.1123 9.54498 17.1785 9.59575 17.2638 9.65806C17.3308 9.71037 17.4023 9.77421 17.4892 9.8396C17.6608 9.97575 17.8662 10.1473 18.0908 10.3527C18.1508 10.4034 18.2092 10.4558 18.2623 10.5065C18.5523 10.7719 18.8777 11.0834 19.1854 11.4296C19.2723 11.5265 19.3569 11.6242 19.4438 11.7281C19.5308 11.8319 19.6223 11.9358 19.7023 12.0358C19.8077 12.1734 19.9208 12.3158 20.0192 12.465C20.0662 12.5358 20.1192 12.6073 20.1646 12.6781C20.2915 12.8665 20.4031 13.0627 20.5092 13.2565C20.5538 13.3465 20.6008 13.445 20.6408 13.5419C20.7579 13.7958 20.8489 14.0611 20.9123 14.3334C20.9305 14.3906 20.9434 14.4493 20.9508 14.5088V14.5219C20.9688 14.6034 20.9798 14.6863 20.9838 14.7696C21.0115 15.0429 20.9956 15.3189 20.9369 15.5873C20.9111 15.7033 20.8782 15.8176 20.8385 15.9296C20.7985 16.0411 20.7615 16.1604 20.7069 16.2673C20.6063 16.4997 20.4864 16.7233 20.3485 16.9358C20.3038 17.0127 20.25 17.0981 20.1946 17.1765C20.1392 17.255 20.0762 17.3388 20.0231 17.4158C19.9462 17.5142 19.8692 17.6173 19.7923 17.7088C19.7226 17.8059 19.6473 17.8989 19.5669 17.9873C19.4554 18.1165 19.3485 18.2396 19.2369 18.3573C19.17 18.4342 19.0985 18.5111 19.0254 18.5834C18.9523 18.6558 18.8808 18.7327 18.8138 18.7981C18.7023 18.9081 18.6085 18.9927 18.5308 19.0634L18.3477 19.2288C18.3201 19.252 18.2853 19.2648 18.2492 19.265H16.8338V21.0565H18.6208C19.0182 21.0567 19.403 20.917 19.7077 20.6619C20.0967 20.3284 20.4655 19.9722 20.8123 19.595C20.8307 19.575 20.8545 19.5608 20.8808 19.5542L25.8162 18.1519C25.8373 18.1461 25.8596 18.1451 25.8812 18.1491C25.9028 18.1531 25.9232 18.162 25.9409 18.175C25.9586 18.1881 25.9731 18.2049 25.9833 18.2244C25.9936 18.2438 25.9993 18.2653 26 18.2873Z" fill="#111111"/>
</g>
<defs>
<clipPath id="clip0_20_1383">
<rect width="24" height="24" fill="white" transform="translate(4 4)"/>
</clipPath>
</defs>
</svg>
