<svg width="32" height="32" viewBox="0 0 32 32" fill="none" xmlns="http://www.w3.org/2000/svg">
<circle cx="16" cy="16" r="16" fill="white"/>
<g clip-path="url(#clip0_20_1385)">
<path fill-rule="evenodd" clip-rule="evenodd" d="M25 16C25 20.9706 20.9706 25 16 25C11.0294 25 7 20.9706 7 16C7 11.0294 11.0294 7 16 7C20.9706 7 25 11.0294 25 16ZM16.3225 13.6442C15.4471 14.0083 13.6976 14.7619 11.0739 15.905C10.6479 16.0744 10.4247 16.2402 10.4044 16.4022C10.37 16.6761 10.713 16.784 11.1801 16.9308C11.2436 16.9508 11.3095 16.9715 11.377 16.9935C11.8365 17.1428 12.4546 17.3176 12.776 17.3245C13.0675 17.3308 13.3928 17.2106 13.752 16.964C16.2034 15.3092 17.4688 14.4729 17.5482 14.4548C17.6043 14.4421 17.6819 14.4261 17.7346 14.4729C17.7872 14.5197 17.782 14.6082 17.7765 14.632C17.7425 14.7769 16.3961 16.0286 15.6993 16.6763C15.4821 16.8783 15.3281 17.0215 15.2966 17.0542C15.226 17.1275 15.1541 17.1968 15.085 17.2635C14.6581 17.675 14.3379 17.9836 15.1027 18.4876C15.4702 18.7298 15.7643 18.9301 16.0577 19.1299C16.3781 19.3481 16.6977 19.5657 17.1112 19.8367C17.2166 19.9058 17.3172 19.9775 17.4152 20.0474C17.7881 20.3132 18.1231 20.5521 18.5369 20.514C18.7774 20.4918 19.0258 20.2657 19.152 19.5913C19.4502 17.9974 20.0362 14.5438 20.1717 13.1207C20.1835 12.996 20.1686 12.8365 20.1566 12.7664C20.1446 12.6964 20.1196 12.5966 20.0285 12.5227C19.9207 12.4352 19.7542 12.4168 19.6798 12.4181C19.3413 12.424 18.8219 12.6046 16.3225 13.6442Z" fill="#111111"/>
</g>
<defs>
<clipPath id="clip0_20_1385">
<rect width="24" height="24" fill="white" transform="translate(4 4)"/>
</clipPath>
</defs>
</svg>
