<svg width="32" height="32" viewBox="0 0 32 32" fill="none" xmlns="http://www.w3.org/2000/svg">
<circle cx="16" cy="16" r="16" fill="white"/>
<g clip-path="url(#clip0_139_3192)">
<path d="M23.055 12.7346C23.0666 12.8971 23.0666 13.0602 23.0666 13.2247C23.0764 14.6424 22.7963 16.048 22.2424 17.3596C21.6885 18.6713 20.8719 19.863 19.84 20.8654C18.8081 21.8679 17.5815 22.6612 16.2314 23.1993C14.8813 23.7373 13.4347 24.0094 11.9754 23.9998C9.85689 24.0019 7.7825 23.4115 6 22.2991C6.30778 22.3349 6.61746 22.3532 6.92744 22.3537C8.68299 22.3551 10.388 21.783 11.7686 20.7294C10.9552 20.7146 10.1668 20.4532 9.51381 19.9817C8.86081 19.5102 8.37579 18.8522 8.12656 18.0997C8.71084 18.209 9.31315 18.1865 9.88705 18.0339C9.00522 17.8609 8.21213 17.3969 7.64224 16.7206C7.07235 16.0443 6.76075 15.1973 6.76026 14.3232V14.2742C7.30238 14.5676 7.90912 14.7302 8.52939 14.7482C7.70414 14.2123 7.12003 13.3911 6.89592 12.4517C6.67182 11.5122 6.82456 10.5251 7.32307 9.69115C8.30169 10.8611 9.52266 11.8179 10.9067 12.4995C12.2907 13.1812 13.8068 13.5723 15.3566 13.6476C15.1627 12.8359 15.2494 11.9847 15.6035 11.2257C15.9576 10.4668 16.5592 9.8423 17.3153 9.44893C18.0714 9.05557 18.9398 8.91523 19.7863 9.04963C20.6327 9.18403 21.41 9.58568 21.9979 10.1924C22.8708 10.025 23.7079 9.71414 24.4732 9.27317C24.1829 10.1501 23.5747 10.8947 22.7617 11.3687C23.5344 11.2801 24.2889 11.079 25 10.7721C24.477 11.5335 23.8183 12.1981 23.055 12.7346Z" fill="#111111"/>
</g>
<defs>
<clipPath id="clip0_139_3192">
<rect width="24" height="24" fill="white" transform="translate(4 4)"/>
</clipPath>
</defs>
</svg>
