<svg width="32" height="32" viewBox="0 0 32 32" fill="none" xmlns="http://www.w3.org/2000/svg">
<circle cx="16" cy="16" r="16" fill="white"/>
<g clip-path="url(#clip0_139_3188)">
<path d="M14.8015 22.0062C15.1897 22.0068 15.5041 22.3347 15.5035 22.7391C15.5029 23.1432 15.1879 23.4704 14.7994 23.4698C14.4109 23.4692 14.0968 23.1413 14.0974 22.7369C14.098 22.3328 14.413 22.0055 14.8015 22.0062ZM25.8256 17.4812C25.4374 17.4812 25.1227 17.153 25.123 16.7489C25.123 16.3448 25.4383 16.0172 25.8265 16.0176C26.2147 16.0179 26.5294 16.3458 26.5291 16.7499C26.5291 17.1539 26.2138 17.4815 25.8256 17.4812ZM25.8256 14.4874C24.6253 14.4886 23.6527 15.501 23.6515 16.7505C23.6515 16.9931 23.6905 17.2345 23.7664 17.4697L16.5853 21.4491C16.1812 20.8382 15.514 20.4735 14.8012 20.4738C13.9723 20.4738 13.2172 20.9681 12.8512 21.7395L6.40024 18.1982C5.71833 17.8257 5.20833 16.6577 5.26233 15.5938C5.29023 15.0389 5.47443 14.6079 5.75523 14.4415C5.93313 14.3375 6.14734 14.3456 6.37534 14.4696L6.41734 14.4936C8.12734 15.4305 13.7215 18.498 13.9573 18.6117C14.3203 18.7875 14.5222 18.8584 15.1423 18.5523L26.7064 12.2921C26.8765 12.2255 27.0745 12.0557 27.0745 11.7987C27.0745 11.4427 26.7205 11.3021 26.7196 11.3021C26.0617 10.9742 25.0507 10.4818 24.0646 10.0009C21.9565 8.97345 19.5676 7.80958 18.5185 7.23717C17.6125 6.74376 16.8835 7.16003 16.7536 7.24341L16.5016 7.37363C11.7796 9.80411 5.45943 13.0624 5.09943 13.2904C4.45653 13.6983 4.05753 14.5114 4.00563 15.5201C3.92553 17.1199 4.70853 18.7887 5.82963 19.3996L12.6517 23.0617C12.8071 24.1737 13.7224 24.9988 14.8018 25C15.9883 24.9978 16.9546 24.0073 16.9747 22.7725L24.4888 18.5327C24.8689 18.8428 25.3417 19.0126 25.8259 19.0126C27.0262 19.0114 27.9988 17.999 28 16.7495C27.9988 15.5001 27.0262 14.4877 25.8259 14.4864" fill="black"/>
</g>
<defs>
<clipPath id="clip0_139_3188">
<rect width="24" height="24" fill="white" transform="translate(4 4)"/>
</clipPath>
</defs>
</svg>
