<svg width="27" height="27" viewBox="0 0 27 27" fill="none" xmlns="http://www.w3.org/2000/svg">
<path opacity="0.5" fill-rule="evenodd" clip-rule="evenodd" d="M13.0889 26.1778C20.3177 26.1778 26.1778 20.3177 26.1778 13.0889C26.1778 5.8601 20.3177 0 13.0889 0C5.8601 0 0 5.8601 0 13.0889C0 20.3177 5.8601 26.1778 13.0889 26.1778ZM17.0271 6.31332C17.0969 6.38307 17.136 6.47766 17.136 6.57629V8.51013C17.136 8.60876 17.0969 8.70335 17.0271 8.77309C16.9574 8.84284 16.8628 8.88202 16.7642 8.88202H14.905C14.72 8.88109 14.5413 8.94916 14.4038 9.07294C14.2663 9.19672 14.1798 9.36732 14.1613 9.55142V11.5596H16.6526C16.7095 11.56 16.7656 11.5733 16.8165 11.5987C16.8674 11.6241 16.9118 11.6609 16.9463 11.7061C16.9808 11.7514 17.0044 11.804 17.0154 11.8598C17.0264 11.9157 17.0244 11.9733 17.0096 12.0282L16.4742 13.9621C16.4527 14.0419 16.4052 14.1123 16.3392 14.1622C16.2732 14.212 16.1924 14.2384 16.1098 14.2373H14.1613V19.2206C14.1613 19.3192 14.1221 19.4138 14.0524 19.4836C13.9827 19.5533 13.8881 19.5925 13.7895 19.5925H11.5584C11.4598 19.5925 11.3652 19.5533 11.2955 19.4836C11.2258 19.4138 11.1866 19.3192 11.1866 19.2206V14.2373H9.32739C9.22878 14.2373 9.1342 14.1981 9.06446 14.1283C8.99473 14.0586 8.95555 13.964 8.95555 13.8654V11.9315C8.95555 11.8329 8.99473 11.7383 9.06446 11.6686C9.1342 11.5988 9.22878 11.5596 9.32739 11.5596H11.1866V9.55142C11.2385 8.61537 11.6587 7.73791 12.3555 7.11076C13.0522 6.48361 13.9688 6.15776 14.905 6.2044H16.7642C16.8628 6.2044 16.9574 6.24358 17.0271 6.31332Z" fill="white"/>
</svg>
