<svg width="27" height="27" viewBox="0 0 27 27" fill="none" xmlns="http://www.w3.org/2000/svg">
<path opacity="0.5" fill-rule="evenodd" clip-rule="evenodd" d="M26.1778 13.0889C26.1778 20.3177 20.3177 26.1778 13.0889 26.1778C5.8601 26.1778 0 20.3177 0 13.0889C0 5.8601 5.8601 0 13.0889 0C20.3177 0 26.1778 5.8601 26.1778 13.0889ZM9.12778 6.51111C7.68276 6.51111 6.51111 7.68273 6.51111 9.12828V16.3626C6.51111 17.8082 7.68276 18.9798 9.12778 18.9798H16.3611C17.8061 18.9798 18.9778 17.8082 18.9778 16.3626V9.12828C18.9778 7.68273 17.8061 6.51111 16.3611 6.51111H9.12778ZM4.51111 9.12828C4.51111 6.57842 6.57793 4.51111 9.12778 4.51111H16.3611C18.911 4.51111 20.9778 6.57842 20.9778 9.12828V16.3626C20.9778 18.9125 18.911 20.9798 16.3611 20.9798H9.12778C6.57793 20.9798 4.51111 18.9125 4.51111 16.3626V9.12828ZM16.7225 7.76656C16.1702 7.76656 15.7225 8.21428 15.7225 8.76656C15.7225 9.31885 16.1702 9.76656 16.7225 9.76656H16.7297C17.282 9.76656 17.7297 9.31885 17.7297 8.76656C17.7297 8.21428 17.282 7.76656 16.7297 7.76656H16.7225ZM11.9035 11.0332C12.257 10.8498 12.6593 10.7825 13.0532 10.8409C13.455 10.9005 13.827 11.0877 14.1142 11.375C14.4015 11.6623 14.5887 12.0344 14.6483 12.4364C14.7068 12.8304 14.6395 13.2328 14.456 13.5864C14.2726 13.94 13.9824 14.2267 13.6266 14.4057C13.2709 14.5848 12.8679 14.6471 12.4747 14.5838C12.0816 14.5206 11.7183 14.3349 11.4367 14.0533C11.1551 13.7716 10.9695 13.4083 10.9062 13.015C10.8429 12.6217 10.9052 12.2185 11.0843 11.8627C11.2634 11.5069 11.55 11.2166 11.9035 11.0332ZM13.3466 8.86253C12.5365 8.74239 11.7092 8.88078 10.9823 9.25801C10.2554 9.63523 9.66594 10.2321 9.29779 10.9636C8.92964 11.6952 8.8015 12.5242 8.93159 13.3327C9.06168 14.1413 9.44338 14.8883 10.0224 15.4674C10.6015 16.0465 11.3484 16.4283 12.1569 16.5584C12.9655 16.6886 13.7944 16.5604 14.5259 16.1922C15.2574 15.8239 15.8542 15.2344 16.2313 14.5074C16.6085 13.7805 16.7468 12.9531 16.6267 12.143C16.5042 11.3167 16.1192 10.5516 15.5285 9.96091C14.9379 9.37018 14.1729 8.98508 13.3466 8.86253Z" fill="white"/>
</svg>
