<svg width="27" height="27" viewBox="0 0 27 27" fill="none" xmlns="http://www.w3.org/2000/svg">
<path opacity="0.5" fill-rule="evenodd" clip-rule="evenodd" d="M13.0889 26.1778C20.3177 26.1778 26.1778 20.3177 26.1778 13.0889C26.1778 5.8601 20.3177 0 13.0889 0C5.8601 0 0 5.8601 0 13.0889C0 20.3177 5.8601 26.1778 13.0889 26.1778ZM14.8676 8.30163C14.282 8.27993 13.6779 8.26667 13.0889 8.26667C12.4955 8.26745 11.9023 8.2791 11.3095 8.30163L10.6178 8.33056L9.95513 8.36492L9.33513 8.40169L8.76956 8.44027C8.15516 8.48156 7.57707 8.71108 7.13695 9.08846C6.69684 9.46584 6.42288 9.96692 6.36327 10.5036C6.35362 10.5868 6.34467 10.6718 6.33571 10.7598L6.28404 11.3083C6.23582 11.8767 6.2 12.4964 6.2 13.0889C6.20334 13.6831 6.23137 14.277 6.28404 14.8695L6.33571 15.418L6.36327 15.6742C6.42291 16.211 6.69696 16.7121 7.13721 17.0895C7.57747 17.4669 8.15572 17.6964 8.77024 17.7375L9.33651 17.7755L9.95651 17.8129L10.6185 17.8472L11.3102 17.8762C11.9027 17.8987 12.4958 17.9103 13.0889 17.9111C13.682 17.9103 14.275 17.8987 14.8676 17.8762L15.5592 17.8472L16.222 17.8129L16.842 17.7755L17.4068 17.7375C18.0215 17.6965 18.5999 17.4671 19.0403 17.0897C19.4807 16.7123 19.7548 16.211 19.8145 15.6742C19.8242 15.591 19.8331 15.506 19.8421 15.418L19.8937 14.8695C19.942 14.3011 19.9778 13.6814 19.9778 13.0889C19.9778 12.4964 19.942 11.8767 19.8937 11.3083L19.8421 10.7598L19.8145 10.5036C19.7549 9.96683 19.4808 9.46567 19.0406 9.08828C18.6003 8.71088 18.0221 8.48142 17.4075 8.44027L16.8413 8.40169L16.2213 8.36492L15.5592 8.33056L14.8676 8.30163ZM11.7111 11.6278V11.6273C11.7112 11.5639 11.7302 11.5017 11.7664 11.4468C11.8026 11.3918 11.8548 11.3461 11.9177 11.3144C11.9805 11.2826 12.0518 11.2659 12.1244 11.2659C12.197 11.2658 12.2683 11.2826 12.3311 11.3143L15.2244 12.7754C15.2874 12.8072 15.3397 12.8528 15.3761 12.9079C15.4124 12.9629 15.4316 13.0253 15.4316 13.0889C15.4316 13.1525 15.4124 13.2149 15.3761 13.2699C15.3397 13.325 15.2874 13.3706 15.2244 13.4023L12.3311 14.8641C12.0556 15.0027 11.7111 14.8291 11.7111 14.5506V11.6278Z" fill="white"/>
</svg>
