<svg width="1149" height="375" viewBox="0 0 1149 375" fill="none" xmlns="http://www.w3.org/2000/svg">
<path d="M0 4.16773H22C29.3333 3.66773 44 7.36773 44 26.1677V51.1681C44 55.1681 48.6 63.1681 67 63.1681H148C155.833 64.1681 171.5 70.2681 171.5 86.6681C171.5 103.068 171.5 117.168 171.5 122.168C171.167 129.001 174.8 142.668 192 142.668H237C244.833 142.668 260.5 137.968 260.5 119.168V26.1677C259.5 18.8344 262.5 4.16773 282.5 4.16773H429C436.333 3.1676 451 6.16742 451 26.1677V65.168C451.5 72.3347 456.5 86.6681 472.5 86.6681H726C733.667 86.0014 749 89.668 749 109.668V233.168C749.333 240.668 754.3 255.668 771.5 255.668H949.5C957.667 256.335 974 262.168 974 280.168V345.168C974.333 353.668 979.9 370.668 999.5 370.668H1148.5" stroke="url(#paint0_linear_239_4821)" stroke-width="8"/>
<defs>
<linearGradient id="paint0_linear_239_4821" x1="0" y1="4" x2="1149" y2="371" gradientUnits="userSpaceOnUse">
<stop stop-color="#FF947B"/>
<stop offset="0.25" stop-color="#C5849C"/>
<stop offset="0.526042" stop-color="#7363DC"/>
<stop offset="0.776042" stop-color="#6B63E6"/>
<stop offset="1" stop-color="#3A51FE"/>
</linearGradient>
</defs>
</svg>
