<svg width="1779" height="775" viewBox="0 0 1779 775" fill="none" xmlns="http://www.w3.org/2000/svg">
<path d="M1700.52 773.982H1525.08C1523.03 773.982 1521.38 772.303 1521.38 770.224C1521.38 768.144 1523.03 766.465 1525.08 766.465H1697.31L1771.57 685.869V515.899C1771.57 513.82 1773.22 512.141 1775.26 512.141C1777.31 512.141 1778.96 513.82 1778.96 515.899V688.845L1700.52 774.002V773.982Z" fill="#C53CE1"/>
<path d="M1775.28 261.861C1773.24 261.861 1771.59 260.182 1771.59 258.102V83.0002L1692.3 7.51772H1525.1C1523.05 7.51772 1521.4 5.83864 1521.4 3.75886C1521.4 1.67908 1523.05 0 1525.1 0H1695.23L1779 79.7375V258.083C1779 260.163 1777.35 261.842 1775.3 261.842L1775.28 261.861Z" fill="#C53CE1"/>
<path d="M254.358 773.982H78.9137L0.473145 688.826V515.88C0.473145 513.8 2.12492 512.121 4.17087 512.121C6.21682 512.121 7.86859 513.8 7.86859 515.88V685.849L82.1234 766.445H254.358C256.404 766.445 258.056 768.124 258.056 770.204C258.056 772.284 256.404 773.963 254.358 773.963V773.982Z" fill="#C53CE1"/>
<path d="M4.15134 261.861C2.10539 261.861 0.453613 260.182 0.453613 258.102V79.7375L84.2249 0H254.358C256.404 0 258.055 1.67908 258.055 3.75886C258.055 5.83864 256.404 7.51772 254.358 7.51772H87.153L7.86783 83.0002V258.083C7.86783 260.163 6.21606 261.842 4.17011 261.842L4.15134 261.861Z" fill="#C53CE1"/>
<g opacity="0.47">
<path d="M1752.08 342.189V429.997L1690.08 383.843L1752.08 342.189Z" fill="#C53CE1"/>
</g>
<path d="M1779 342.189V429.997L1716.97 383.843L1779 342.189Z" fill="#C53CE1"/>
<g opacity="0.47">
<path d="M26.8979 431.29V343.482L88.9194 389.636L26.8979 431.29Z" fill="#C53CE1"/>
</g>
<path d="M0 431.29V343.482L62.0215 389.636L0 431.29Z" fill="#C53CE1"/>
</svg>
