<svg width="1118" height="324" viewBox="0 0 1118 324" fill="none" xmlns="http://www.w3.org/2000/svg">
<path d="M0 120.505H47C55.6667 120.171 73 124.905 73 146.505V160.004C72.8333 167.004 77.3 181.004 96.5 181.004H144.5C152.667 180.838 169 185.504 169 205.504V296.004C168.833 303.671 173.2 319.004 192 319.004H256.5C264.167 319.004 279.5 314.404 279.5 296.004V28.0043C279.333 20.0043 283.9 4.00435 303.5 4.00435H394C402 3.83768 418 8.40435 418 28.0043V189.504C418 197.171 422.6 212.504 441 212.504H881.5C889.667 212.337 906 207.204 906 188.004V78.0039C906 70.0039 910.8 54.0039 930 54.0039H1118" stroke="url(#paint0_linear_240_1261)" stroke-width="8"/>
<defs>
<linearGradient id="paint0_linear_240_1261" x1="559" y1="4" x2="559" y2="319.004" gradientUnits="userSpaceOnUse">
<stop stop-color="#F965E4"/>
<stop offset="0.255208" stop-color="#CE63EF"/>
<stop offset="0.484375" stop-color="#8C5AEF"/>
<stop offset="0.71875" stop-color="#845AF7"/>
<stop offset="1" stop-color="#3F4FFF"/>
</linearGradient>
</defs>
</svg>
